<svg width="444" height="30" viewBox="0 0 444 30" fill="none" xmlns="http://www.w3.org/2000/svg">
<path fill-rule="evenodd" clip-rule="evenodd" d="M5.353 5.27H17.683C18.43 5.27 19 4.682 19 4.012V2.256C19 1.544 18.43 1 17.684 1H2.72C2.368 1 2.017 1.126 1.754 1.377L0.395 2.674C0.132 2.925 0 3.218 0 3.554V26.405C0 26.74 0.132 27.075 0.395 27.325L1.755 28.623C2.018 28.874 2.37 29 2.721 29H17.684C18.43 29 19 28.414 19 27.744V25.986C19 25.275 18.43 24.689 17.684 24.689H5.354C4.871 24.689 4.476 24.354 4.476 23.894V17.95C4.476 17.49 4.871 17.113 5.353 17.113H15.621C16.323 17.113 16.938 16.569 16.938 15.857V14.1C16.938 13.43 16.323 12.845 15.621 12.845H5.353C4.871 12.845 4.476 12.468 4.476 12.007V6.107C4.476 5.646 4.871 5.27 5.353 5.27Z" fill="#00FFAA"/>
<path fill-rule="evenodd" clip-rule="evenodd" d="M43.877 1H26.123C25.499 1 25 1.502 25 2.13V4.14C25 4.768 25.5 5.312 26.123 5.312H32.193C32.567 5.312 32.858 5.605 32.858 5.982V27.87C32.858 28.498 33.358 29 33.981 29H36.019C36.643 29 37.142 28.498 37.142 27.87V5.98C37.142 5.604 37.432 5.31 37.807 5.31H43.877C44.501 5.31 45 4.768 45 4.14V2.13C45 1.502 44.501 1 43.877 1Z" fill="#00FFAA"/>
<path fill-rule="evenodd" clip-rule="evenodd" d="M67.917 1C67.25 1 66.75 1.542 66.75 2.208V12.125C66.75 12.542 66.375 12.875 65.958 12.875H56C55.9014 12.8754 55.8037 12.8563 55.7125 12.8187C55.6213 12.7812 55.5385 12.7259 55.4688 12.6562C55.3991 12.5865 55.3438 12.5037 55.3063 12.4125C55.2687 12.3213 55.2496 12.2236 55.25 12.125V2.208C55.2495 1.88778 55.122 1.58083 54.8956 1.3544C54.6692 1.12797 54.3622 1.00053 54.042 1H52.167C51.542 1 51 1.542 51 2.208V27.833C51 28.458 51.542 29 52.167 29H54.042C54.708 29 55.25 28.458 55.25 27.833V17.875C55.25 17.458 55.583 17.125 56 17.125H65.958C66.375 17.125 66.75 17.458 66.75 17.875V27.833C66.75 28.458 67.25 29 67.917 29H69.792C70.458 29 71 28.458 71 27.833V2.208C70.9995 1.88778 70.872 1.58083 70.6456 1.3544C70.4192 1.12797 70.1122 1.00053 69.792 1H67.917Z" fill="#00FFAA"/>
<path fill-rule="evenodd" clip-rule="evenodd" d="M82.353 5.27H94.683C95.43 5.27 96 4.682 96 4.012V2.256C96 1.544 95.43 1 94.684 1H79.72C79.368 1 79.017 1.126 78.754 1.377L77.395 2.674C77.132 2.925 77 3.218 77 3.554V26.405C77 26.74 77.132 27.075 77.395 27.325L78.755 28.623C79.018 28.874 79.37 29 79.721 29H94.684C95.43 29 96 28.414 96 27.744V25.986C96 25.275 95.43 24.689 94.684 24.689H82.354C81.871 24.689 81.476 24.354 81.476 23.894V17.95C81.476 17.49 81.871 17.113 82.353 17.113H92.621C93.323 17.113 93.938 16.569 93.938 15.857V14.1C93.938 13.43 93.323 12.845 92.621 12.845H82.353C81.871 12.845 81.476 12.468 81.476 12.007V6.107C81.476 5.646 81.871 5.27 82.353 5.27Z" fill="#00FFAA"/>
<path fill-rule="evenodd" clip-rule="evenodd" d="M121.757 27.1609L115.2 18.0919H116.477C116.647 18.0919 116.775 18.0919 116.946 18.0089L117.968 17.5909C118.095 17.5489 118.223 17.4659 118.351 17.3409L121.076 14.6659C121.189 14.5619 121.277 14.4328 121.331 14.2889L121.757 13.2869C121.839 13.1472 121.883 12.9887 121.885 12.8269V7.22692C121.882 7.11062 121.853 6.99647 121.8 6.89292L121.502 6.01492C121.459 5.88992 121.417 5.76492 121.332 5.68092L118.564 2.04492C118.453 1.89883 118.306 1.78353 118.138 1.70992L116.988 1.12492C116.816 1.03958 116.627 0.996706 116.435 0.999925H104.555C104.257 0.999925 103.959 1.12492 103.703 1.33392L102.341 2.71392C102.085 2.92192 102 3.21392 102 3.54892V27.7889C102 28.4149 102.51 28.9589 103.192 28.9589H105.151C105.79 28.9589 106.343 28.4149 106.343 27.7889V18.0919H109.793L117.2 28.4999C117.413 28.8339 117.796 29.0009 118.18 29.0009H120.777C121.245 29.0009 121.671 28.7919 121.884 28.3739C122.054 27.9979 122.054 27.4959 121.756 27.1619L121.757 27.1609ZM115.455 13.8299H107.067C106.684 13.8299 106.343 13.4949 106.343 13.1199V6.01392C106.343 5.59592 106.683 5.26192 107.067 5.26192H115.2C115.315 5.26161 115.429 5.28778 115.532 5.33841C115.635 5.38905 115.726 5.46279 115.796 5.55392L117.371 7.60192C117.458 7.73941 117.502 7.89936 117.499 8.06192V11.8219C117.5 11.9157 117.481 12.0087 117.445 12.095C117.408 12.1813 117.354 12.2593 117.286 12.3239L115.966 13.6199C115.899 13.6869 115.82 13.7399 115.732 13.7758C115.644 13.8117 115.551 13.8297 115.456 13.8289L115.455 13.8299Z" fill="#00FFAA"/>
<path fill-rule="evenodd" clip-rule="evenodd" d="M133.353 5.27H145.683C146.43 5.27 147 4.682 147 4.012V2.256C147 1.544 146.43 1 145.684 1H130.72C130.368 1 130.017 1.126 129.754 1.377L128.395 2.674C128.132 2.925 128 3.218 128 3.554V26.405C128 26.74 128.132 27.075 128.395 27.325L129.755 28.623C130.018 28.874 130.37 29 130.721 29H145.684C146.43 29 147 28.414 147 27.744V25.986C147 25.275 146.43 24.689 145.684 24.689H133.354C132.871 24.689 132.476 24.354 132.476 23.894V17.95C132.476 17.49 132.871 17.113 133.353 17.113H143.621C144.323 17.113 144.938 16.569 144.938 15.857V14.1C144.938 13.43 144.323 12.845 143.621 12.845H133.353C132.871 12.845 132.476 12.468 132.476 12.007V6.107C132.476 5.646 132.871 5.27 133.353 5.27Z" fill="#00FFAA"/>
<path fill-rule="evenodd" clip-rule="evenodd" d="M170.75 1H169C168.292 1 167.75 1.585 167.75 2.296V22.856C167.75 22.898 167.708 23.484 167.458 23.986C167.25 24.361 166.917 24.696 165.958 24.696H159.042C158.083 24.696 157.75 24.361 157.542 23.986C157.292 23.484 157.25 22.898 157.25 22.898V2.296C157.25 1.586 156.667 1 156 1H154.25C153.542 1 153 1.585 153 2.296V22.898C153 23.149 153 24.445 153.708 25.824C154.708 27.872 156.625 29 159.042 29H165.958C168.375 29 170.292 27.872 171.292 25.824C171.958 24.444 172 23.149 172 22.898V2.296C172 1.586 171.458 1 170.75 1Z" fill="#00FFAA"/>
<path fill-rule="evenodd" clip-rule="evenodd" d="M199.207 1.74002L197.036 1.06402C196.8 0.977049 196.541 0.975884 196.305 1.06073C196.068 1.14557 195.869 1.311 195.742 1.52802L189.605 10.432C189.547 10.5353 189.462 10.6212 189.359 10.6806C189.256 10.74 189.14 10.7709 189.021 10.77C188.897 10.7714 188.774 10.7411 188.664 10.6819C188.555 10.6228 188.462 10.5368 188.395 10.432L182.3 1.52802C182.164 1.30952 181.957 1.14427 181.714 1.05983C181.471 0.975388 181.206 0.976867 180.964 1.06402L178.834 1.73902C178.335 1.90802 178 2.33002 178 2.88002V27.82C178 28.493 178.543 29 179.169 29H181.089C181.757 29 182.258 28.494 182.258 27.818V11.445C182.258 11.065 182.55 10.812 182.801 10.77C183.051 10.685 183.385 10.685 183.636 11.023L186.976 15.918C187.184 16.256 187.56 16.425 187.936 16.425H190.065C190.482 16.425 190.815 16.255 191.066 15.918L194.406 11.023C194.615 10.685 194.991 10.685 195.241 10.77C195.491 10.812 195.742 11.065 195.742 11.445V27.818C195.742 28.494 196.285 29 196.911 29H198.831C199.5 29 200 28.494 200 27.818V2.87802C200 2.33002 199.666 1.90802 199.207 1.73902V1.74002Z" fill="#00FFAA"/>
<path fill-rule="evenodd" clip-rule="evenodd" d="M241.898 23.224C241.807 22.9718 241.66 22.743 241.47 22.554C241.299 22.304 241.042 22.136 240.785 22.011C240.534 21.8779 240.256 21.8059 239.972 21.801C239.63 21.759 239.287 21.801 238.988 21.927C238.702 22.0438 238.44 22.2142 238.218 22.429L236.463 24.479C236.304 24.6387 236.089 24.7292 235.864 24.731H227.477C227.252 24.7295 227.037 24.6393 226.878 24.48L226.621 24.27C226.488 24.1032 226.413 23.898 226.407 23.685V6.357C226.407 6.148 226.493 5.939 226.621 5.771L226.878 5.521C227.049 5.395 227.263 5.311 227.478 5.311H235.864C236.078 5.311 236.292 5.395 236.464 5.521L238.218 7.571C238.346 7.738 238.518 7.864 238.688 7.948C238.902 8.073 239.159 8.157 239.416 8.198C239.758 8.283 240.1 8.283 240.4 8.157C240.826 8.06966 241.206 7.83178 241.47 7.487C241.64 7.278 241.812 7.069 241.898 6.817C241.983 6.525 242.026 6.19 241.983 5.855C241.938 5.36941 241.708 4.91965 241.341 4.599L238.645 1.628C238.232 1.22765 237.68 1.00261 237.105 1H226.665C225.797 1.00255 224.966 1.34882 224.353 1.963L222.941 3.302C222.342 3.93 222 4.725 222 5.562V24.48C222 25.317 222.342 26.112 222.941 26.74L224.353 28.08C224.995 28.707 225.808 29 226.664 29H237.105C237.705 29 238.26 28.79 238.645 28.414L241.341 25.442C241.641 25.149 241.855 24.772 241.941 24.396C242.026 23.978 242.026 23.601 241.898 23.224Z" fill="#00FFAA"/>
<path fill-rule="evenodd" clip-rule="evenodd" d="M264.917 1C264.25 1 263.75 1.542 263.75 2.208V12.125C263.75 12.542 263.375 12.875 262.958 12.875H253C252.901 12.8754 252.804 12.8563 252.713 12.8187C252.621 12.7812 252.539 12.7259 252.469 12.6562C252.399 12.5865 252.344 12.5037 252.306 12.4125C252.269 12.3213 252.25 12.2236 252.25 12.125V2.208C252.249 1.88778 252.122 1.58083 251.896 1.3544C251.669 1.12797 251.362 1.00053 251.042 1H249.167C248.542 1 248 1.542 248 2.208V27.833C248 28.458 248.542 29 249.167 29H251.042C251.708 29 252.25 28.458 252.25 27.833V17.875C252.25 17.458 252.583 17.125 253 17.125H262.958C263.375 17.125 263.75 17.458 263.75 17.875V27.833C263.75 28.458 264.25 29 264.917 29H266.792C267.458 29 268 28.458 268 27.833V2.208C267.999 1.88778 267.872 1.58083 267.646 1.3544C267.419 1.12797 267.112 1.00053 266.792 1H264.917Z" fill="#00FFAA"/>
<path fill-rule="evenodd" clip-rule="evenodd" d="M293.917 10.181L293.5 9.184C293.468 9.03184 293.378 8.8979 293.25 8.81L285.792 1.374C285.687 1.25613 285.559 1.16183 285.415 1.09735C285.271 1.03287 285.116 0.999691 284.958 1H283.042C282.75 1 282.417 1.125 282.208 1.374L274.75 8.81C274.667 8.893 274.542 9.018 274.5 9.184L274.083 10.181C274.032 10.3281 274.004 10.4823 274 10.638V27.795C274 28.46 274.542 29 275.208 29H277.042C277.708 29 278.25 28.46 278.25 27.795V19.985C278.257 19.7775 278.343 19.5806 278.49 19.434C278.637 19.2874 278.835 19.202 279.042 19.195H288.958C289.062 19.1947 289.165 19.215 289.261 19.2546C289.357 19.2941 289.444 19.3523 289.518 19.4257C289.591 19.4991 289.65 19.5862 289.69 19.6822C289.73 19.7782 289.75 19.8811 289.75 19.985V27.795C289.75 28.46 290.292 29 290.958 29H292.792C293.458 29 294 28.46 294 27.795V10.638C294 10.472 293.958 10.306 293.917 10.181ZM284 5.902C284.208 5.902 284.417 5.985 284.542 6.152L289.5 11.095C289.667 11.22 289.75 11.427 289.75 11.635V14.169C289.75 14.626 289.417 14.959 288.958 14.959H279.042C278.938 14.9593 278.835 14.939 278.739 14.8994C278.643 14.8599 278.556 14.8017 278.482 14.7283C278.409 14.6549 278.35 14.5678 278.31 14.4718C278.27 14.3758 278.25 14.2729 278.25 14.169V11.635C278.25 11.427 278.333 11.22 278.5 11.095L283.458 6.151C283.625 5.985 283.792 5.902 284 5.902Z" fill="#00FFAA"/>
<path fill-rule="evenodd" clip-rule="evenodd" d="M321.207 1.74002L319.036 1.06402C318.8 0.977049 318.541 0.975884 318.305 1.06073C318.068 1.14557 317.869 1.311 317.742 1.52802L311.605 10.432C311.547 10.5353 311.462 10.6212 311.359 10.6806C311.256 10.74 311.14 10.7709 311.021 10.77C310.897 10.7714 310.774 10.7411 310.664 10.6819C310.555 10.6228 310.462 10.5368 310.395 10.432L304.3 1.52802C304.164 1.30952 303.957 1.14427 303.714 1.05983C303.471 0.975388 303.206 0.976867 302.964 1.06402L300.834 1.73902C300.335 1.90802 300 2.33002 300 2.88002V27.82C300 28.493 300.543 29 301.169 29H303.089C303.757 29 304.258 28.494 304.258 27.818V11.445C304.258 11.065 304.55 10.812 304.801 10.77C305.051 10.685 305.385 10.685 305.636 11.023L308.976 15.918C309.184 16.256 309.56 16.425 309.936 16.425H312.065C312.482 16.425 312.815 16.255 313.066 15.918L316.406 11.023C316.615 10.685 316.991 10.685 317.241 10.77C317.491 10.812 317.742 11.065 317.742 11.445V27.818C317.742 28.494 318.285 29 318.911 29H320.831C321.5 29 322 28.494 322 27.818V2.87802C322 2.33002 321.666 1.90802 321.207 1.73902V1.74002Z" fill="#00FFAA"/>
<path fill-rule="evenodd" clip-rule="evenodd" d="M347.875 5.813L347.5 4.851C347.427 4.6957 347.329 4.55399 347.208 4.432L344.583 1.753C344.458 1.67 344.292 1.544 344.167 1.503L343.208 1.083C343.045 1.03507 342.877 1.0072 342.708 1H330.583C330.208 1 329.875 1.126 329.625 1.377L328.375 2.674C328.125 2.925 328 3.218 328 3.594V27.661C328 28.414 328.583 29 329.292 29H330.958C331.667 29 332.25 28.414 332.25 27.66V18.997C332.25 18.537 332.625 18.118 333.125 18.118H342.708C342.875 18.118 343.042 18.076 343.208 18.034L344.167 17.616C344.292 17.574 344.458 17.448 344.583 17.323L347.208 14.686C347.333 14.56 347.417 14.435 347.5 14.268L347.875 13.305C347.958 13.137 348 12.97 348 12.803V6.315C348 6.148 347.958 5.981 347.875 5.813ZM343.75 11.756C343.75 12.008 343.625 12.216 343.458 12.384L342.292 13.598C342.211 13.6804 342.113 13.7452 342.006 13.7884C341.898 13.8316 341.783 13.8522 341.667 13.849H333.125C332.893 13.8472 332.671 13.7538 332.507 13.5893C332.343 13.4247 332.251 13.2022 332.25 12.97V6.148C332.25 5.688 332.625 5.269 333.125 5.269H341.667C341.917 5.269 342.125 5.353 342.292 5.52L343.458 6.734C343.625 6.901 343.75 7.111 343.75 7.362V11.756Z" fill="#00FFAA"/>
<path fill-rule="evenodd" clip-rule="evenodd" d="M362.866 5.27H364.804C365.464 5.27 366 4.725 366 4.055V2.214C366 1.544 365.464 1 364.804 1H355.196C354.536 1 354 1.544 354 2.214V4.055C354 4.725 354.536 5.269 355.196 5.269H357.134C357.546 5.269 357.876 5.604 357.876 6.064V23.936C357.876 24.354 357.546 24.731 357.134 24.731H355.196C354.536 24.731 354 25.275 354 25.945V27.786C354 28.456 354.536 29 355.196 29H364.804C365.464 29 366 28.456 366 27.786V25.945C366 25.275 365.464 24.731 364.804 24.731H362.866C362.454 24.731 362.124 24.354 362.124 23.936V6.064C362.124 5.604 362.454 5.27 362.866 5.27Z" fill="#00FFAA"/>
<path fill-rule="evenodd" clip-rule="evenodd" d="M391.875 5.813L391.5 4.851C391.427 4.6957 391.329 4.55399 391.208 4.432L388.542 1.753C388.458 1.628 388.292 1.544 388.167 1.503L387.167 1.083C387.019 1.03144 386.864 1.00343 386.708 1H377.292C377.125 1 376.958 1.042 376.792 1.084L375.833 1.502C375.673 1.54415 375.529 1.63126 375.417 1.753L372.75 4.432C372.629 4.55399 372.531 4.6957 372.458 4.851L372.083 5.813C372 5.981 372 6.148 372 6.315V23.685C372 23.852 372 24.019 372.083 24.145L372.458 25.15C372.542 25.275 372.625 25.442 372.75 25.568L375.417 28.205C375.542 28.33 375.667 28.414 375.833 28.498L376.792 28.916C376.958 28.958 377.125 29 377.292 29H386.708C386.875 29 387.042 28.958 387.167 28.916L388.167 28.498C388.292 28.414 388.458 28.33 388.542 28.205L391.208 25.568C391.333 25.442 391.417 25.275 391.5 25.149L391.875 24.145C391.96 24.0068 392.003 23.8471 392 23.685V6.315C392 6.148 391.958 5.981 391.875 5.813ZM385.667 24.731H378.292C378.183 24.7301 378.075 24.7075 377.975 24.6644C377.874 24.6213 377.784 24.5586 377.708 24.48L376.5 23.224C376.419 23.1586 376.355 23.0755 376.311 22.9812C376.268 22.8868 376.247 22.7838 376.25 22.68V7.32C376.25 7.11 376.333 6.901 376.5 6.734L377.708 5.52C377.784 5.44158 377.875 5.37908 377.975 5.33615C378.075 5.29322 378.183 5.27073 378.292 5.27H385.667C385.917 5.27 386.125 5.353 386.25 5.52L387.5 6.734C387.625 6.901 387.708 7.111 387.708 7.32V22.68C387.708 22.89 387.625 23.099 387.5 23.224L386.25 24.48C386.125 24.647 385.917 24.73 385.667 24.73V24.731Z" fill="#00FFAA"/>
<path fill-rule="evenodd" clip-rule="evenodd" d="M416.917 1H414.833C414.25 1 413.75 1.5 413.75 2.168V17.775C413.75 18.192 413.458 18.443 413.25 18.485C413.042 18.568 412.708 18.485 412.542 18.192L402.292 1.584C402.133 1.37367 401.915 1.21421 401.667 1.125C401.512 1.04461 401.341 1.00179 401.167 1H399.083C398.5 1 398 1.5 398 2.168V27.832C398 28.499 398.5 29 399.083 29H401.167C401.75 29 402.25 28.5 402.25 27.832V12.225C402.25 11.808 402.542 11.599 402.75 11.515C403 11.474 403.292 11.515 403.458 11.808L413.75 28.416C413.875 28.666 414.083 28.791 414.333 28.875C414.5 28.958 414.667 29 414.833 29H416.917C417.5 29 418 28.5 418 27.832V2.168C418 1.501 417.5 1 416.917 1Z" fill="#00FFAA"/>
<path fill-rule="evenodd" clip-rule="evenodd" d="M443.917 17.6999L443.5 16.7369C443.458 16.5763 443.372 16.4309 443.25 16.3179L440.583 13.6399C440.471 13.5182 440.327 13.4311 440.167 13.3889L439.208 12.9699C439.045 12.9215 438.877 12.8933 438.708 12.8859H430.292C430.188 12.889 430.086 12.868 429.992 12.8246C429.898 12.7812 429.815 12.7167 429.75 12.6359L428.5 11.3799C428.419 11.3145 428.355 11.2315 428.311 11.1371C428.268 11.0428 428.247 10.9397 428.25 10.8359V7.31993C428.25 7.10993 428.333 6.94293 428.5 6.77593L429.75 5.51993C429.897 5.38359 430.091 5.30851 430.292 5.30993H442.25C442.917 5.30993 443.458 4.76693 443.458 4.05493V2.25493C443.458 1.58593 442.917 0.99993 442.25 0.99993H429.292C429.13 0.996625 428.971 1.04039 428.833 1.12593L427.833 1.50193C427.679 1.57514 427.538 1.67424 427.417 1.79493L424.75 4.47393C424.667 4.59893 424.542 4.72493 424.5 4.85093L424.083 5.85493C424.042 6.02193 424 6.14793 424 6.31493V11.8399C424 12.0079 424.042 12.1749 424.083 12.3419L424.5 13.3049C424.542 13.4719 424.667 13.5979 424.75 13.7229L427.417 16.4029C427.542 16.4859 427.667 16.6109 427.833 16.6529L428.833 17.0719C428.958 17.1139 429.125 17.1559 429.292 17.1559H437.708C437.812 17.1529 437.914 17.1739 438.008 17.2172C438.102 17.2606 438.185 17.3252 438.25 17.4059L439.5 18.6199C439.667 18.7879 439.75 18.9969 439.75 19.2059V22.6799C439.75 22.8899 439.667 23.0989 439.5 23.2659L438.25 24.5219C438.102 24.6579 437.909 24.7326 437.708 24.7309H425.792C425.627 24.7282 425.462 24.7588 425.309 24.821C425.156 24.8832 425.017 24.9756 424.9 25.0928C424.784 25.2099 424.692 25.3494 424.63 25.5029C424.569 25.6563 424.539 25.8206 424.542 25.9859V27.7859C424.542 28.4559 425.083 28.9999 425.792 28.9999H438.708C438.875 28.9999 439.042 28.9999 439.208 28.9159L440.167 28.4979C440.327 28.4558 440.471 28.3687 440.583 28.2469L443.25 25.5679C443.361 25.4632 443.447 25.3342 443.5 25.1909L443.917 24.1869C443.958 24.0189 444 23.8939 444 23.7269V18.2019C444 18.0339 443.958 17.8669 443.917 17.6999Z" fill="#00FFAA"/>
</svg>

