<svg width="408" height="30" viewBox="0 0 408 30" fill="none" xmlns="http://www.w3.org/2000/svg">
<g clip-path="url(#clip0_206_952)">
<path fill-rule="evenodd" clip-rule="evenodd" d="M17.794 1H15.965C15.258 1 14.718 1.544 14.718 2.214V22.889C14.718 22.931 14.718 23.475 14.427 23.978C14.219 24.354 13.887 24.731 12.93 24.731H6.07001C5.07201 24.731 4.78101 24.354 4.57301 23.978C4.38554 23.643 4.27231 23.2716 4.24101 22.889V17.029C4.2418 16.7083 4.11522 16.4003 3.88908 16.1729C3.66294 15.9454 3.35575 15.8171 3.03501 15.816H1.20501C0.884268 15.8173 0.577177 15.9459 0.351223 16.1736C0.12527 16.4012 -0.00105638 16.7093 6.65508e-06 17.03V22.931C6.65508e-06 23.182 0.0420067 24.48 0.707007 25.861C1.74701 27.87 3.61701 29 6.07001 29H12.93C15.383 29 17.254 27.87 18.252 25.861C18.958 24.48 19 23.182 19 22.931V2.214C19 1.544 18.46 1 17.794 1Z" fill="black"/>
<path fill-rule="evenodd" clip-rule="evenodd" d="M44.875 5.813L44.5 4.851C44.4273 4.6957 44.3285 4.55399 44.208 4.432L41.542 1.753C41.458 1.628 41.292 1.544 41.167 1.503L40.167 1.083C40.0193 1.03144 39.8644 1.00343 39.708 1H30.292C30.125 1 29.958 1.042 29.792 1.084L28.833 1.502C28.6732 1.54415 28.5288 1.63126 28.417 1.753L25.75 4.432C25.6295 4.55399 25.5307 4.6957 25.458 4.851L25.083 5.813C25 5.981 25 6.148 25 6.315V23.685C25 23.852 25 24.019 25.083 24.145L25.458 25.15C25.542 25.275 25.625 25.442 25.75 25.568L28.417 28.205C28.542 28.33 28.667 28.414 28.833 28.498L29.792 28.916C29.958 28.958 30.125 29 30.292 29H39.708C39.875 29 40.042 28.958 40.167 28.916L41.167 28.498C41.292 28.414 41.458 28.33 41.542 28.205L44.208 25.568C44.333 25.442 44.417 25.275 44.5 25.149L44.875 24.145C44.9598 24.0068 45.0032 23.8471 45 23.685V6.315C45 6.148 44.958 5.981 44.875 5.813ZM38.667 24.731H31.292C31.1829 24.7301 31.075 24.7075 30.9747 24.6644C30.8744 24.6213 30.7837 24.5586 30.708 24.48L29.5 23.224C29.4194 23.1586 29.3548 23.0755 29.3115 22.9812C29.2681 22.8868 29.2471 22.7838 29.25 22.68V7.32C29.25 7.11 29.333 6.901 29.5 6.734L30.708 5.52C30.7838 5.44158 30.8745 5.37908 30.9748 5.33615C31.0751 5.29322 31.1829 5.27073 31.292 5.27H38.667C38.917 5.27 39.125 5.353 39.25 5.52L40.5 6.734C40.625 6.901 40.708 7.111 40.708 7.32V22.68C40.708 22.89 40.625 23.099 40.5 23.224L39.25 24.48C39.125 24.647 38.917 24.73 38.667 24.73V24.731Z" fill="black"/>
<path fill-rule="evenodd" clip-rule="evenodd" d="M59.866 5.27H61.804C62.464 5.27 63 4.725 63 4.055V2.214C63 1.544 62.464 1 61.804 1H52.196C51.536 1 51 1.544 51 2.214V4.055C51 4.725 51.536 5.269 52.196 5.269H54.134C54.546 5.269 54.876 5.604 54.876 6.064V23.936C54.876 24.354 54.546 24.731 54.134 24.731H52.196C51.536 24.731 51 25.275 51 25.945V27.786C51 28.456 51.536 29 52.196 29H61.804C62.464 29 63 28.456 63 27.786V25.945C63 25.275 62.464 24.731 61.804 24.731H59.866C59.454 24.731 59.124 24.354 59.124 23.936V6.064C59.124 5.604 59.454 5.27 59.866 5.27Z" fill="black"/>
<path fill-rule="evenodd" clip-rule="evenodd" d="M87.917 1H85.833C85.25 1 84.75 1.5 84.75 2.168V17.775C84.75 18.192 84.458 18.443 84.25 18.485C84.042 18.568 83.708 18.485 83.542 18.192L73.292 1.584C73.1325 1.37367 72.9154 1.21421 72.667 1.125C72.5125 1.04461 72.3412 1.00179 72.167 1H70.083C69.5 1 69 1.5 69 2.168V27.832C69 28.499 69.5 29 70.083 29H72.167C72.75 29 73.25 28.5 73.25 27.832V12.225C73.25 11.808 73.542 11.599 73.75 11.515C74 11.474 74.292 11.515 74.458 11.808L84.75 28.416C84.875 28.666 85.083 28.791 85.333 28.875C85.5 28.958 85.667 29 85.833 29H87.917C88.5 29 89 28.5 89 27.832V2.168C89 1.501 88.5 1 87.917 1Z" fill="black"/>
<path fill-rule="evenodd" clip-rule="evenodd" d="M129.877 1H112.123C111.499 1 111 1.502 111 2.13V4.14C111 4.768 111.5 5.312 112.123 5.312H118.193C118.567 5.312 118.858 5.605 118.858 5.982V27.87C118.858 28.498 119.358 29 119.981 29H122.019C122.643 29 123.142 28.498 123.142 27.87V5.98C123.142 5.604 123.432 5.31 123.807 5.31H129.877C130.501 5.31 131 4.768 131 4.14V2.13C131 1.502 130.501 1 129.877 1Z" fill="black"/>
<path fill-rule="evenodd" clip-rule="evenodd" d="M153.917 1C153.25 1 152.75 1.542 152.75 2.208V12.125C152.75 12.542 152.375 12.875 151.958 12.875H142C141.901 12.8754 141.804 12.8563 141.713 12.8187C141.621 12.7812 141.539 12.7259 141.469 12.6562C141.399 12.5865 141.344 12.5037 141.306 12.4125C141.269 12.3213 141.25 12.2236 141.25 12.125V2.208C141.249 1.88778 141.122 1.58083 140.896 1.3544C140.669 1.12797 140.362 1.00053 140.042 1H138.167C137.542 1 137 1.542 137 2.208V27.833C137 28.458 137.542 29 138.167 29H140.042C140.708 29 141.25 28.458 141.25 27.833V17.875C141.25 17.458 141.583 17.125 142 17.125H151.958C152.375 17.125 152.75 17.458 152.75 17.875V27.833C152.75 28.458 153.25 29 153.917 29H155.792C156.458 29 157 28.458 157 27.833V2.208C156.999 1.88778 156.872 1.58083 156.646 1.3544C156.419 1.12797 156.112 1.00053 155.792 1H153.917Z" fill="black"/>
<path fill-rule="evenodd" clip-rule="evenodd" d="M168.353 5.27H180.683C181.43 5.27 182 4.682 182 4.012V2.256C182 1.544 181.43 1 180.684 1H165.72C165.368 1 165.017 1.126 164.754 1.377L163.395 2.674C163.132 2.925 163 3.218 163 3.554V26.405C163 26.74 163.132 27.075 163.395 27.325L164.755 28.623C165.018 28.874 165.37 29 165.721 29H180.684C181.43 29 182 28.414 182 27.744V25.986C182 25.275 181.43 24.689 180.684 24.689H168.354C167.871 24.689 167.476 24.354 167.476 23.894V17.95C167.476 17.49 167.871 17.113 168.353 17.113H178.621C179.323 17.113 179.938 16.569 179.938 15.857V14.1C179.938 13.43 179.323 12.845 178.621 12.845H168.353C167.871 12.845 167.476 12.468 167.476 12.007V6.107C167.476 5.646 167.871 5.27 168.353 5.27Z" fill="black"/>
<path fill-rule="evenodd" clip-rule="evenodd" d="M225.207 1.74002L223.036 1.06402C222.8 0.977049 222.541 0.975884 222.305 1.06073C222.068 1.14557 221.869 1.311 221.742 1.52802L215.605 10.432C215.547 10.5353 215.462 10.6212 215.359 10.6806C215.256 10.74 215.14 10.7709 215.021 10.77C214.897 10.7714 214.774 10.7411 214.664 10.6819C214.555 10.6228 214.462 10.5368 214.395 10.432L208.3 1.52802C208.164 1.30952 207.957 1.14427 207.714 1.05983C207.471 0.975388 207.206 0.976867 206.964 1.06402L204.834 1.73902C204.335 1.90802 204 2.33002 204 2.88002V27.82C204 28.493 204.543 29 205.169 29H207.089C207.757 29 208.258 28.494 208.258 27.818V11.445C208.258 11.065 208.55 10.812 208.801 10.77C209.051 10.685 209.385 10.685 209.636 11.023L212.976 15.918C213.184 16.256 213.56 16.425 213.936 16.425H216.065C216.482 16.425 216.815 16.255 217.066 15.918L220.406 11.023C220.615 10.685 220.991 10.685 221.241 10.77C221.491 10.812 221.742 11.065 221.742 11.445V27.818C221.742 28.494 222.285 29 222.911 29H224.831C225.5 29 226 28.494 226 27.818V2.87802C226 2.33002 225.666 1.90802 225.207 1.73902V1.74002Z" fill="black"/>
<path fill-rule="evenodd" clip-rule="evenodd" d="M251.875 5.813L251.5 4.851C251.427 4.6957 251.329 4.55399 251.208 4.432L248.542 1.753C248.458 1.628 248.292 1.544 248.167 1.503L247.167 1.083C247.019 1.03144 246.864 1.00343 246.708 1H237.292C237.125 1 236.958 1.042 236.792 1.084L235.833 1.502C235.673 1.54415 235.529 1.63126 235.417 1.753L232.75 4.432C232.629 4.55399 232.531 4.6957 232.458 4.851L232.083 5.813C232 5.981 232 6.148 232 6.315V23.685C232 23.852 232 24.019 232.083 24.145L232.458 25.15C232.542 25.275 232.625 25.442 232.75 25.568L235.417 28.205C235.542 28.33 235.667 28.414 235.833 28.498L236.792 28.916C236.958 28.958 237.125 29 237.292 29H246.708C246.875 29 247.042 28.958 247.167 28.916L248.167 28.498C248.292 28.414 248.458 28.33 248.542 28.205L251.208 25.568C251.333 25.442 251.417 25.275 251.5 25.149L251.875 24.145C251.96 24.0068 252.003 23.8471 252 23.685V6.315C252 6.148 251.958 5.981 251.875 5.813ZM245.667 24.731H238.292C238.183 24.7301 238.075 24.7075 237.975 24.6644C237.874 24.6213 237.784 24.5586 237.708 24.48L236.5 23.224C236.419 23.1586 236.355 23.0755 236.311 22.9812C236.268 22.8868 236.247 22.7838 236.25 22.68V7.32C236.25 7.11 236.333 6.901 236.5 6.734L237.708 5.52C237.784 5.44158 237.875 5.37908 237.975 5.33615C238.075 5.29322 238.183 5.27073 238.292 5.27H245.667C245.917 5.27 246.125 5.353 246.25 5.52L247.5 6.734C247.625 6.901 247.708 7.111 247.708 7.32V22.68C247.708 22.89 247.625 23.099 247.5 23.224L246.25 24.48C246.125 24.647 245.917 24.73 245.667 24.73V24.731Z" fill="black"/>
<path fill-rule="evenodd" clip-rule="evenodd" d="M273.75 1.86613V18.4471C273.753 18.562 273.733 18.6762 273.69 18.7827C273.647 18.8892 273.582 18.9857 273.5 19.0661L268.625 23.8471C268.546 23.9347 268.45 24.0048 268.342 24.0527C268.234 24.1006 268.118 24.1254 268 24.1254C267.882 24.1254 267.766 24.1006 267.658 24.0527C267.55 24.0048 267.454 23.9347 267.375 23.8471L262.5 19.0661C262.375 18.9011 262.25 18.6951 262.25 18.4471V1.86613C262.252 1.75103 262.231 1.63668 262.188 1.53002C262.144 1.42335 262.08 1.3266 261.998 1.24562C261.916 1.16464 261.819 1.10112 261.712 1.05892C261.605 1.01672 261.49 0.996721 261.375 1.00013H258.875C258.76 0.996721 258.645 1.01672 258.538 1.05892C258.431 1.10112 258.334 1.16464 258.252 1.24562C258.17 1.3266 258.105 1.42335 258.062 1.53002C258.019 1.63668 257.998 1.75103 258 1.86613V19.5601C258 19.6431 258.042 19.7661 258.083 19.8901L258.542 20.9621C258.572 21.0707 258.629 21.1698 258.708 21.2501L266.292 28.7531C266.462 28.911 266.685 28.9992 266.917 29.0001H269.083C269.333 29.0001 269.542 28.9181 269.708 28.7531L277.292 21.2501C277.375 21.1681 277.417 21.0851 277.5 20.9621L277.958 19.8901C278 19.7661 278 19.6431 278 19.5601V1.86613C278.002 1.75103 277.981 1.63668 277.938 1.53002C277.894 1.42335 277.83 1.3266 277.748 1.24562C277.666 1.16464 277.569 1.10112 277.462 1.05892C277.355 1.01672 277.24 0.996721 277.125 1.00013H274.625C274.51 0.996721 274.395 1.01672 274.288 1.05892C274.181 1.10112 274.084 1.16464 274.002 1.24562C273.92 1.3266 273.855 1.42335 273.812 1.53002C273.769 1.63668 273.748 1.75103 273.75 1.86613Z" fill="black"/>
<path fill-rule="evenodd" clip-rule="evenodd" d="M289.353 5.27H301.683C302.43 5.27 303 4.682 303 4.012V2.256C303 1.544 302.43 1 301.684 1H286.72C286.368 1 286.017 1.126 285.754 1.377L284.395 2.674C284.132 2.925 284 3.218 284 3.554V26.405C284 26.74 284.132 27.075 284.395 27.325L285.755 28.623C286.018 28.874 286.37 29 286.721 29H301.684C302.43 29 303 28.414 303 27.744V25.986C303 25.275 302.43 24.689 301.684 24.689H289.354C288.871 24.689 288.476 24.354 288.476 23.894V17.95C288.476 17.49 288.871 17.113 289.353 17.113H299.621C300.323 17.113 300.938 16.569 300.938 15.857V14.1C300.938 13.43 300.323 12.845 299.621 12.845H289.353C288.871 12.845 288.476 12.468 288.476 12.007V6.107C288.476 5.646 288.871 5.27 289.353 5.27Z" fill="black"/>
<path fill-rule="evenodd" clip-rule="evenodd" d="M330.207 1.74002L328.036 1.06402C327.8 0.977049 327.541 0.975884 327.305 1.06073C327.068 1.14557 326.869 1.311 326.742 1.52802L320.605 10.432C320.547 10.5353 320.462 10.6212 320.359 10.6806C320.256 10.74 320.14 10.7709 320.021 10.77C319.897 10.7714 319.774 10.7411 319.664 10.6819C319.555 10.6228 319.462 10.5368 319.395 10.432L313.3 1.52802C313.164 1.30952 312.957 1.14427 312.714 1.05983C312.471 0.975388 312.206 0.976867 311.964 1.06402L309.834 1.73902C309.335 1.90802 309 2.33002 309 2.88002V27.82C309 28.493 309.543 29 310.169 29H312.089C312.757 29 313.258 28.494 313.258 27.818V11.445C313.258 11.065 313.55 10.812 313.801 10.77C314.051 10.685 314.385 10.685 314.636 11.023L317.976 15.918C318.184 16.256 318.56 16.425 318.936 16.425H321.065C321.482 16.425 321.815 16.255 322.066 15.918L325.406 11.023C325.615 10.685 325.991 10.685 326.241 10.77C326.491 10.812 326.742 11.065 326.742 11.445V27.818C326.742 28.494 327.285 29 327.911 29H329.831C330.5 29 331 28.494 331 27.818V2.87802C331 2.33002 330.666 1.90802 330.207 1.73902V1.74002Z" fill="black"/>
<path fill-rule="evenodd" clip-rule="evenodd" d="M342.353 5.27H354.683C355.43 5.27 356 4.682 356 4.012V2.256C356 1.544 355.43 1 354.684 1H339.72C339.368 1 339.017 1.126 338.754 1.377L337.395 2.674C337.132 2.925 337 3.218 337 3.554V26.405C337 26.74 337.132 27.075 337.395 27.325L338.755 28.623C339.018 28.874 339.37 29 339.721 29H354.684C355.43 29 356 28.414 356 27.744V25.986C356 25.275 355.43 24.689 354.684 24.689H342.354C341.871 24.689 341.476 24.354 341.476 23.894V17.95C341.476 17.49 341.871 17.113 342.353 17.113H352.621C353.323 17.113 353.938 16.569 353.938 15.857V14.1C353.938 13.43 353.323 12.845 352.621 12.845H342.353C341.871 12.845 341.476 12.468 341.476 12.007V6.107C341.476 5.646 341.871 5.27 342.353 5.27Z" fill="black"/>
<path fill-rule="evenodd" clip-rule="evenodd" d="M380.917 1H378.833C378.25 1 377.75 1.5 377.75 2.168V17.775C377.75 18.192 377.458 18.443 377.25 18.485C377.042 18.568 376.708 18.485 376.542 18.192L366.292 1.584C366.133 1.37367 365.915 1.21421 365.667 1.125C365.512 1.04461 365.341 1.00179 365.167 1H363.083C362.5 1 362 1.5 362 2.168V27.832C362 28.499 362.5 29 363.083 29H365.167C365.75 29 366.25 28.5 366.25 27.832V12.225C366.25 11.808 366.542 11.599 366.75 11.515C367 11.474 367.292 11.515 367.458 11.808L377.75 28.416C377.875 28.666 378.083 28.791 378.333 28.875C378.5 28.958 378.667 29 378.833 29H380.917C381.5 29 382 28.5 382 27.832V2.168C382 1.501 381.5 1 380.917 1Z" fill="black"/>
<path fill-rule="evenodd" clip-rule="evenodd" d="M406.877 1H389.123C388.499 1 388 1.502 388 2.13V4.14C388 4.768 388.5 5.312 389.123 5.312H395.193C395.567 5.312 395.858 5.605 395.858 5.982V27.87C395.858 28.498 396.358 29 396.981 29H399.019C399.643 29 400.142 28.498 400.142 27.87V5.98C400.142 5.604 400.432 5.31 400.807 5.31H406.877C407.501 5.31 408 4.768 408 4.14V2.13C408 1.502 407.501 1 406.877 1Z" fill="black"/>
</g>
<defs>
<clipPath id="clip0_206_952">
<rect width="408" height="30" fill="white"/>
</clipPath>
</defs>
</svg>

