<svg width="343" height="31" viewBox="0 0 343 31" fill="none" xmlns="http://www.w3.org/2000/svg">
<path fill-rule="evenodd" clip-rule="evenodd" d="M19.757 27.6609L13.2 18.5919H14.477C14.647 18.5919 14.775 18.5919 14.946 18.5089L15.968 18.0909C16.095 18.0489 16.223 17.9659 16.351 17.8409L19.076 15.1659C19.1892 15.0619 19.2766 14.9328 19.331 14.7889L19.757 13.7869C19.8385 13.6472 19.8826 13.4887 19.885 13.3269V7.72692C19.8821 7.61062 19.853 7.49647 19.8 7.39292L19.502 6.51492C19.459 6.38992 19.417 6.26492 19.332 6.18092L16.564 2.54492C16.4528 2.39883 16.3062 2.28353 16.138 2.20992L14.988 1.62492C14.8163 1.53958 14.6267 1.49671 14.435 1.49992H2.555C2.257 1.49992 1.959 1.62492 1.703 1.83392L0.341 3.21392C0.085 3.42192 0 3.71392 0 4.04892V28.2889C0 28.9149 0.51 29.4589 1.192 29.4589H3.151C3.79 29.4589 4.343 28.9149 4.343 28.2889V18.5919H7.793L15.2 28.9999C15.413 29.3339 15.796 29.5009 16.18 29.5009H18.777C19.245 29.5009 19.671 29.2919 19.884 28.8739C20.054 28.4979 20.054 27.9959 19.756 27.6619L19.757 27.6609ZM13.455 14.3299H5.067C4.684 14.3299 4.343 13.9949 4.343 13.6199V6.51392C4.343 6.09592 4.683 5.76192 5.067 5.76192H13.2C13.3151 5.76161 13.4287 5.78778 13.5321 5.83841C13.6354 5.88905 13.7257 5.96279 13.796 6.05392L15.371 8.10192C15.4578 8.23941 15.5023 8.39936 15.499 8.56192V12.3219C15.4997 12.4157 15.4812 12.5087 15.4445 12.595C15.4079 12.6813 15.3539 12.7593 15.286 12.8239L13.966 14.1199C13.8991 14.1869 13.8196 14.2399 13.732 14.2758C13.6445 14.3117 13.5506 14.3297 13.456 14.3289L13.455 14.3299Z" fill="#00FFAA"/>
<path fill-rule="evenodd" clip-rule="evenodd" d="M31.353 5.77H43.683C44.43 5.77 45 5.182 45 4.512V2.756C45 2.044 44.43 1.5 43.684 1.5H28.72C28.368 1.5 28.017 1.626 27.754 1.877L26.395 3.174C26.132 3.425 26 3.718 26 4.054V26.905C26 27.24 26.132 27.575 26.395 27.825L27.755 29.123C28.018 29.374 28.37 29.5 28.721 29.5H43.684C44.43 29.5 45 28.914 45 28.244V26.486C45 25.775 44.43 25.189 43.684 25.189H31.354C30.871 25.189 30.476 24.854 30.476 24.394V18.45C30.476 17.99 30.871 17.613 31.353 17.613H41.621C42.323 17.613 42.938 17.069 42.938 16.357V14.6C42.938 13.93 42.323 13.345 41.621 13.345H31.353C30.871 13.345 30.476 12.968 30.476 12.507V6.607C30.476 6.146 30.871 5.77 31.353 5.77Z" fill="#00FFAA"/>
<path fill-rule="evenodd" clip-rule="evenodd" d="M70.898 23.724C70.8065 23.4718 70.6604 23.243 70.47 23.054C70.299 22.804 70.042 22.636 69.785 22.511C69.5343 22.3779 69.2558 22.3059 68.972 22.301C68.63 22.259 68.287 22.301 67.988 22.427C67.7017 22.5438 67.4404 22.7142 67.218 22.929L65.463 24.979C65.3043 25.1387 65.0891 25.2292 64.864 25.231H56.477C56.2521 25.2295 56.0368 25.1393 55.878 24.98L55.621 24.77C55.4884 24.6032 55.4133 24.398 55.407 24.185V6.857C55.407 6.648 55.493 6.439 55.621 6.271L55.878 6.021C56.049 5.895 56.263 5.811 56.478 5.811H64.864C65.078 5.811 65.292 5.895 65.464 6.021L67.218 8.071C67.346 8.238 67.518 8.364 67.688 8.448C67.902 8.573 68.159 8.657 68.416 8.698C68.758 8.783 69.1 8.783 69.4 8.657C69.8257 8.56966 70.2055 8.33178 70.47 7.987C70.64 7.778 70.812 7.569 70.898 7.317C70.983 7.025 71.026 6.69 70.983 6.355C70.9383 5.86941 70.7084 5.41965 70.341 5.099L67.645 2.128C67.232 1.72765 66.6802 1.50261 66.105 1.5H55.665C54.7973 1.50255 53.9659 1.84882 53.353 2.463L51.941 3.802C51.342 4.43 51 5.225 51 6.062V24.98C51 25.817 51.342 26.612 51.941 27.24L53.353 28.58C53.995 29.207 54.808 29.5 55.664 29.5H66.105C66.705 29.5 67.26 29.29 67.645 28.914L70.341 25.942C70.641 25.649 70.855 25.272 70.941 24.896C71.026 24.478 71.026 24.101 70.898 23.724Z" fill="#00FFAA"/>
<path fill-rule="evenodd" clip-rule="evenodd" d="M82.353 5.77H94.683C95.43 5.77 96 5.182 96 4.512V2.756C96 2.044 95.43 1.5 94.684 1.5H79.72C79.368 1.5 79.017 1.626 78.754 1.877L77.395 3.174C77.132 3.425 77 3.718 77 4.054V26.905C77 27.24 77.132 27.575 77.395 27.825L78.755 29.123C79.018 29.374 79.37 29.5 79.721 29.5H94.684C95.43 29.5 96 28.914 96 28.244V26.486C96 25.775 95.43 25.189 94.684 25.189H82.354C81.871 25.189 81.476 24.854 81.476 24.394V18.45C81.476 17.99 81.871 17.613 82.353 17.613H92.621C93.323 17.613 93.938 17.069 93.938 16.357V14.6C93.938 13.93 93.323 13.345 92.621 13.345H82.353C81.871 13.345 81.476 12.968 81.476 12.507V6.607C81.476 6.146 81.871 5.77 82.353 5.77Z" fill="#00FFAA"/>
<path fill-rule="evenodd" clip-rule="evenodd" d="M120.917 1.5H118.833C118.25 1.5 117.75 2 117.75 2.668V18.275C117.75 18.692 117.458 18.943 117.25 18.985C117.042 19.068 116.708 18.985 116.542 18.692L106.292 2.084C106.133 1.87367 105.915 1.71421 105.667 1.625C105.512 1.54461 105.341 1.50179 105.167 1.5H103.083C102.5 1.5 102 2 102 2.668V28.332C102 28.999 102.5 29.5 103.083 29.5H105.167C105.75 29.5 106.25 29 106.25 28.332V12.725C106.25 12.308 106.542 12.099 106.75 12.015C107 11.974 107.292 12.015 107.458 12.308L117.75 28.916C117.875 29.166 118.083 29.291 118.333 29.375C118.5 29.458 118.667 29.5 118.833 29.5H120.917C121.5 29.5 122 29 122 28.332V2.668C122 2.001 121.5 1.5 120.917 1.5Z" fill="#00FFAA"/>
<path fill-rule="evenodd" clip-rule="evenodd" d="M146.877 1.5H129.123C128.499 1.5 128 2.002 128 2.63V4.64C128 5.268 128.5 5.812 129.123 5.812H135.193C135.567 5.812 135.858 6.105 135.858 6.482V28.37C135.858 28.998 136.358 29.5 136.981 29.5H139.019C139.643 29.5 140.142 28.998 140.142 28.37V6.48C140.142 6.104 140.432 5.81 140.807 5.81H146.877C147.501 5.81 148 5.268 148 4.64V2.63C148 2.002 147.501 1.5 146.877 1.5Z" fill="#00FFAA"/>
<path fill-rule="evenodd" clip-rule="evenodd" d="M189.875 6.313L189.5 5.351C189.427 5.1957 189.329 5.05399 189.208 4.932L186.583 2.253C186.458 2.17 186.292 2.044 186.167 2.003L185.208 1.583C185.045 1.53507 184.877 1.5072 184.708 1.5H172.583C172.208 1.5 171.875 1.626 171.625 1.877L170.375 3.174C170.125 3.425 170 3.718 170 4.094V28.161C170 28.914 170.583 29.5 171.292 29.5H172.958C173.667 29.5 174.25 28.914 174.25 28.16V19.497C174.25 19.037 174.625 18.618 175.125 18.618H184.708C184.875 18.618 185.042 18.576 185.208 18.534L186.167 18.116C186.292 18.074 186.458 17.948 186.583 17.823L189.208 15.186C189.333 15.06 189.417 14.935 189.5 14.768L189.875 13.805C189.958 13.637 190 13.47 190 13.303V6.815C190 6.648 189.958 6.481 189.875 6.313ZM185.75 12.256C185.75 12.508 185.625 12.716 185.458 12.884L184.292 14.098C184.211 14.1804 184.113 14.2452 184.006 14.2884C183.898 14.3316 183.783 14.3522 183.667 14.349H175.125C174.893 14.3472 174.671 14.2538 174.507 14.0893C174.343 13.9247 174.251 13.7022 174.25 13.47V6.648C174.25 6.188 174.625 5.769 175.125 5.769H183.667C183.917 5.769 184.125 5.853 184.292 6.02L185.458 7.234C185.625 7.401 185.75 7.611 185.75 7.862V12.256Z" fill="#00FFAA"/>
<path fill-rule="evenodd" clip-rule="evenodd" d="M213.742 25.23H201.249C200.815 25.23 200.425 24.896 200.425 24.478V2.714C200.425 2.044 199.86 1.5 199.167 1.5H197.258C196.564 1.5 196 2.044 196 2.714V26.989C196 27.282 196.13 27.617 196.347 27.826L197.735 29.166C197.995 29.374 198.299 29.5 198.646 29.5H213.742C214.436 29.5 215 28.998 215 28.328V26.445C215 25.775 214.436 25.231 213.742 25.231V25.23Z" fill="#00FFAA"/>
<path fill-rule="evenodd" clip-rule="evenodd" d="M226.353 5.77H238.683C239.43 5.77 240 5.182 240 4.512V2.756C240 2.044 239.43 1.5 238.684 1.5H223.72C223.368 1.5 223.017 1.626 222.754 1.877L221.395 3.174C221.132 3.425 221 3.718 221 4.054V26.905C221 27.24 221.132 27.575 221.395 27.825L222.755 29.123C223.018 29.374 223.37 29.5 223.721 29.5H238.684C239.43 29.5 240 28.914 240 28.244V26.486C240 25.775 239.43 25.189 238.684 25.189H226.354C225.871 25.189 225.476 24.854 225.476 24.394V18.45C225.476 17.99 225.871 17.613 226.353 17.613H236.621C237.323 17.613 237.938 17.069 237.938 16.357V14.6C237.938 13.93 237.323 13.345 236.621 13.345H226.353C225.871 13.345 225.476 12.968 225.476 12.507V6.607C225.476 6.146 225.871 5.77 226.353 5.77Z" fill="#00FFAA"/>
<path fill-rule="evenodd" clip-rule="evenodd" d="M265.917 6.31301L265.5 5.39301C265.459 5.21984 265.373 5.0607 265.25 4.93201L262.583 2.29501C262.462 2.17432 262.321 2.07522 262.167 2.00201L261.208 1.62601C261.054 1.54517 260.882 1.50199 260.708 1.50001H248.583C248.413 1.49939 248.245 1.53239 248.087 1.59708C247.93 1.66178 247.787 1.75691 247.667 1.87701L246.375 3.17401C246.133 3.41893 245.998 3.74979 246 4.09401V26.905C246 27.282 246.125 27.617 246.375 27.868L247.667 29.123C247.917 29.374 248.25 29.5 248.583 29.5H260.708C260.875 29.5 261.042 29.5 261.208 29.416L262.167 28.998C262.327 28.9559 262.471 28.8687 262.583 28.747L265.25 26.068C265.372 25.955 265.458 25.8097 265.5 25.649L265.917 24.687C266 24.519 266 24.352 266 24.185V6.81501C266 6.64801 266 6.48101 265.917 6.31301ZM261.75 23.138C261.75 23.389 261.667 23.598 261.5 23.766L260.292 24.98C260.21 25.0622 260.113 25.1268 260.005 25.1698C259.898 25.2128 259.783 25.2333 259.667 25.23H251.125C250.893 25.2282 250.671 25.135 250.507 24.9706C250.343 24.8063 250.251 24.584 250.25 24.352V6.64801C250.25 6.18801 250.667 5.81101 251.125 5.81101H259.667C259.917 5.81101 260.125 5.89501 260.292 6.06201L261.5 7.23401C261.667 7.40101 261.75 7.61101 261.75 7.86201V23.138Z" fill="#00FFAA"/>
<path fill-rule="evenodd" clip-rule="evenodd" d="M291.667 15.102L290.25 13.68C290.042 13.471 289.792 13.387 289.5 13.387H282.917C282.774 13.3865 282.632 13.4143 282.5 13.4689C282.368 13.5235 282.248 13.6038 282.148 13.7051C282.047 13.8064 281.967 13.9267 281.913 14.059C281.859 14.1913 281.832 14.3331 281.833 14.476V16.568C281.833 17.154 282.292 17.656 282.917 17.656H287.083C287.417 17.656 287.708 17.949 287.708 18.326V23.265C287.712 23.3489 287.7 23.4327 287.671 23.5117C287.643 23.5907 287.599 23.6632 287.542 23.725L286.208 25.065C286.147 25.1221 286.075 25.1663 285.996 25.195C285.917 25.2237 285.834 25.2363 285.75 25.232H278.208C278.124 25.2361 278.041 25.2234 277.962 25.1945C277.883 25.1657 277.811 25.1213 277.75 25.064L276.417 23.725C276.36 23.6633 276.316 23.5908 276.287 23.5118C276.258 23.4329 276.246 23.3489 276.25 23.265V7.778C276.246 7.69406 276.258 7.61012 276.287 7.53112C276.316 7.45212 276.36 7.37966 276.417 7.318L277.75 5.978C277.811 5.9209 277.883 5.87669 277.962 5.848C278.041 5.81932 278.124 5.80673 278.208 5.811H285.75C285.917 5.811 286.083 5.853 286.208 5.978L288.083 7.904C288.292 8.113 288.583 8.197 288.875 8.197C289.167 8.197 289.458 8.113 289.625 7.904L291.125 6.397C291.333 6.187 291.417 5.937 291.417 5.644C291.417 5.351 291.333 5.058 291.125 4.848L288.542 2.253C288.417 2.17 288.333 2.086 288.167 2.044L287.167 1.584C287 1.542 286.875 1.5 286.75 1.5H277.25C277.083 1.5 276.958 1.542 276.833 1.584L275.792 2.044C275.667 2.086 275.542 2.17 275.417 2.254L272.708 4.973C272.623 5.08937 272.553 5.21604 272.5 5.35L272.083 6.397C272 6.522 272 6.648 272 6.815V24.227C272 24.394 272 24.519 272.083 24.645L272.5 25.691C272.542 25.817 272.625 25.942 272.708 26.068L275.417 28.788C275.542 28.872 275.667 28.956 275.792 28.998L276.833 29.458C276.958 29.5 277.083 29.5 277.25 29.5H286.75C286.875 29.5 287 29.5 287.167 29.458L288.167 28.998C288.333 28.956 288.417 28.872 288.542 28.788L291.25 26.068C291.333 25.942 291.417 25.817 291.458 25.691L291.917 24.645C291.958 24.519 292 24.394 292 24.227V15.897C291.996 15.5989 291.877 15.3138 291.667 15.102Z" fill="#00FFAA"/>
<path fill-rule="evenodd" clip-rule="evenodd" d="M303.353 5.77H315.683C316.43 5.77 317 5.182 317 4.512V2.756C317 2.044 316.43 1.5 315.684 1.5H300.72C300.368 1.5 300.017 1.626 299.754 1.877L298.395 3.174C298.132 3.425 298 3.718 298 4.054V26.905C298 27.24 298.132 27.575 298.395 27.825L299.755 29.123C300.018 29.374 300.37 29.5 300.721 29.5H315.684C316.43 29.5 317 28.914 317 28.244V26.486C317 25.775 316.43 25.189 315.684 25.189H303.354C302.871 25.189 302.476 24.854 302.476 24.394V18.45C302.476 17.99 302.871 17.613 303.353 17.613H313.621C314.323 17.613 314.938 17.069 314.938 16.357V14.6C314.938 13.93 314.323 13.345 313.621 13.345H303.353C302.871 13.345 302.476 12.968 302.476 12.507V6.607C302.476 6.146 302.871 5.77 303.353 5.77Z" fill="#00FFAA"/>
<path fill-rule="evenodd" clip-rule="evenodd" d="M342.917 18.1999L342.5 17.2369C342.458 17.0763 342.372 16.9309 342.25 16.8179L339.583 14.1399C339.471 14.0182 339.327 13.9311 339.167 13.8889L338.208 13.4699C338.045 13.4215 337.877 13.3933 337.708 13.3859H329.292C329.188 13.389 329.086 13.368 328.992 13.3246C328.898 13.2812 328.815 13.2167 328.75 13.1359L327.5 11.8799C327.419 11.8145 327.355 11.7315 327.311 11.6371C327.268 11.5428 327.247 11.4397 327.25 11.3359V7.81993C327.25 7.60993 327.333 7.44293 327.5 7.27593L328.75 6.01993C328.897 5.88359 329.091 5.80851 329.292 5.80993H341.25C341.917 5.80993 342.458 5.26693 342.458 4.55493V2.75493C342.458 2.08593 341.917 1.49993 341.25 1.49993H328.292C328.13 1.49662 327.971 1.54039 327.833 1.62593L326.833 2.00193C326.679 2.07514 326.538 2.17424 326.417 2.29493L323.75 4.97393C323.667 5.09893 323.542 5.22493 323.5 5.35093L323.083 6.35493C323.042 6.52193 323 6.64793 323 6.81493V12.3399C323 12.5079 323.042 12.6749 323.083 12.8419L323.5 13.8049C323.542 13.9719 323.667 14.0979 323.75 14.2229L326.417 16.9029C326.542 16.9859 326.667 17.1109 326.833 17.1529L327.833 17.5719C327.958 17.6139 328.125 17.6559 328.292 17.6559H336.708C336.812 17.6529 336.914 17.6739 337.008 17.7172C337.102 17.7606 337.185 17.8252 337.25 17.9059L338.5 19.1199C338.667 19.2879 338.75 19.4969 338.75 19.7059V23.1799C338.75 23.3899 338.667 23.5989 338.5 23.7659L337.25 25.0219C337.102 25.1579 336.909 25.2326 336.708 25.2309H324.792C324.627 25.2282 324.462 25.2588 324.309 25.321C324.156 25.3832 324.017 25.4756 323.9 25.5928C323.784 25.7099 323.692 25.8494 323.63 26.0029C323.569 26.1563 323.539 26.3206 323.542 26.4859V28.2859C323.542 28.9559 324.083 29.4999 324.792 29.4999H337.708C337.875 29.4999 338.042 29.4999 338.208 29.4159L339.167 28.9979C339.327 28.9558 339.471 28.8687 339.583 28.7469L342.25 26.0679C342.361 25.9632 342.447 25.8342 342.5 25.6909L342.917 24.6869C342.958 24.5189 343 24.3939 343 24.2269V18.7019C343 18.5339 342.958 18.3669 342.917 18.1999Z" fill="#00FFAA"/>
</svg>

