<svg width="361" height="31" viewBox="0 0 361 31" fill="none" xmlns="http://www.w3.org/2000/svg">
<path fill-rule="evenodd" clip-rule="evenodd" d="M19.757 27.6609L13.2 18.5919H14.477C14.647 18.5919 14.775 18.5919 14.946 18.5089L15.968 18.0909C16.095 18.0489 16.223 17.9659 16.351 17.8409L19.076 15.1659C19.1892 15.0619 19.2766 14.9328 19.331 14.7889L19.757 13.7869C19.8385 13.6472 19.8826 13.4887 19.885 13.3269V7.72692C19.8821 7.61062 19.853 7.49647 19.8 7.39292L19.502 6.51492C19.459 6.38992 19.417 6.26492 19.332 6.18092L16.564 2.54492C16.4528 2.39883 16.3062 2.28353 16.138 2.20992L14.988 1.62492C14.8163 1.53958 14.6267 1.49671 14.435 1.49992H2.555C2.257 1.49992 1.959 1.62492 1.703 1.83392L0.341 3.21392C0.085 3.42192 0 3.71392 0 4.04892V28.2889C0 28.9149 0.51 29.4589 1.192 29.4589H3.151C3.79 29.4589 4.343 28.9149 4.343 28.2889V18.5919H7.793L15.2 28.9999C15.413 29.3339 15.796 29.5009 16.18 29.5009H18.777C19.245 29.5009 19.671 29.2919 19.884 28.8739C20.054 28.4979 20.054 27.9959 19.756 27.6619L19.757 27.6609ZM13.455 14.3299H5.067C4.684 14.3299 4.343 13.9949 4.343 13.6199V6.51392C4.343 6.09592 4.683 5.76192 5.067 5.76192H13.2C13.3151 5.76161 13.4287 5.78778 13.5321 5.83841C13.6354 5.88905 13.7257 5.96279 13.796 6.05392L15.371 8.10192C15.4578 8.23941 15.5023 8.39936 15.499 8.56192V12.3219C15.4997 12.4157 15.4812 12.5087 15.4445 12.595C15.4079 12.6813 15.3539 12.7593 15.286 12.8239L13.966 14.1199C13.8991 14.1869 13.8196 14.2399 13.732 14.2758C13.6445 14.3117 13.5506 14.3297 13.456 14.3289L13.455 14.3299Z" fill="#00FFAA"/>
<path fill-rule="evenodd" clip-rule="evenodd" d="M31.353 5.77H43.683C44.43 5.77 45 5.182 45 4.512V2.756C45 2.044 44.43 1.5 43.684 1.5H28.72C28.368 1.5 28.017 1.626 27.754 1.877L26.395 3.174C26.132 3.425 26 3.718 26 4.054V26.905C26 27.24 26.132 27.575 26.395 27.825L27.755 29.123C28.018 29.374 28.37 29.5 28.721 29.5H43.684C44.43 29.5 45 28.914 45 28.244V26.486C45 25.775 44.43 25.189 43.684 25.189H31.354C30.871 25.189 30.476 24.854 30.476 24.394V18.45C30.476 17.99 30.871 17.613 31.353 17.613H41.621C42.323 17.613 42.938 17.069 42.938 16.357V14.6C42.938 13.93 42.323 13.345 41.621 13.345H31.353C30.871 13.345 30.476 12.968 30.476 12.507V6.607C30.476 6.146 30.871 5.77 31.353 5.77Z" fill="#00FFAA"/>
<path fill-rule="evenodd" clip-rule="evenodd" d="M70.898 23.724C70.8065 23.4718 70.6604 23.243 70.47 23.054C70.299 22.804 70.042 22.636 69.785 22.511C69.5343 22.3779 69.2558 22.3059 68.972 22.301C68.63 22.259 68.287 22.301 67.988 22.427C67.7017 22.5438 67.4404 22.7142 67.218 22.929L65.463 24.979C65.3043 25.1387 65.0891 25.2292 64.864 25.231H56.477C56.2521 25.2295 56.0368 25.1393 55.878 24.98L55.621 24.77C55.4884 24.6032 55.4133 24.398 55.407 24.185V6.857C55.407 6.648 55.493 6.439 55.621 6.271L55.878 6.021C56.049 5.895 56.263 5.811 56.478 5.811H64.864C65.078 5.811 65.292 5.895 65.464 6.021L67.218 8.071C67.346 8.238 67.518 8.364 67.688 8.448C67.902 8.573 68.159 8.657 68.416 8.698C68.758 8.783 69.1 8.783 69.4 8.657C69.8257 8.56966 70.2055 8.33178 70.47 7.987C70.64 7.778 70.812 7.569 70.898 7.317C70.983 7.025 71.026 6.69 70.983 6.355C70.9383 5.86941 70.7084 5.41965 70.341 5.099L67.645 2.128C67.232 1.72765 66.6802 1.50261 66.105 1.5H55.665C54.7973 1.50255 53.9659 1.84882 53.353 2.463L51.941 3.802C51.342 4.43 51 5.225 51 6.062V24.98C51 25.817 51.342 26.612 51.941 27.24L53.353 28.58C53.995 29.207 54.808 29.5 55.664 29.5H66.105C66.705 29.5 67.26 29.29 67.645 28.914L70.341 25.942C70.641 25.649 70.855 25.272 70.941 24.896C71.026 24.478 71.026 24.101 70.898 23.724Z" fill="#00FFAA"/>
<path fill-rule="evenodd" clip-rule="evenodd" d="M82.353 5.77H94.683C95.43 5.77 96 5.182 96 4.512V2.756C96 2.044 95.43 1.5 94.684 1.5H79.72C79.368 1.5 79.017 1.626 78.754 1.877L77.395 3.174C77.132 3.425 77 3.718 77 4.054V26.905C77 27.24 77.132 27.575 77.395 27.825L78.755 29.123C79.018 29.374 79.37 29.5 79.721 29.5H94.684C95.43 29.5 96 28.914 96 28.244V26.486C96 25.775 95.43 25.189 94.684 25.189H82.354C81.871 25.189 81.476 24.854 81.476 24.394V18.45C81.476 17.99 81.871 17.613 82.353 17.613H92.621C93.323 17.613 93.938 17.069 93.938 16.357V14.6C93.938 13.93 93.323 13.345 92.621 13.345H82.353C81.871 13.345 81.476 12.968 81.476 12.507V6.607C81.476 6.146 81.871 5.77 82.353 5.77Z" fill="#00FFAA"/>
<path fill-rule="evenodd" clip-rule="evenodd" d="M120.917 1.5H118.833C118.25 1.5 117.75 2 117.75 2.668V18.275C117.75 18.692 117.458 18.943 117.25 18.985C117.042 19.068 116.708 18.985 116.542 18.692L106.292 2.084C106.133 1.87367 105.915 1.71421 105.667 1.625C105.512 1.54461 105.341 1.50179 105.167 1.5H103.083C102.5 1.5 102 2 102 2.668V28.332C102 28.999 102.5 29.5 103.083 29.5H105.167C105.75 29.5 106.25 29 106.25 28.332V12.725C106.25 12.308 106.542 12.099 106.75 12.015C107 11.974 107.292 12.015 107.458 12.308L117.75 28.916C117.875 29.166 118.083 29.291 118.333 29.375C118.5 29.458 118.667 29.5 118.833 29.5H120.917C121.5 29.5 122 29 122 28.332V2.668C122 2.001 121.5 1.5 120.917 1.5Z" fill="#00FFAA"/>
<path fill-rule="evenodd" clip-rule="evenodd" d="M146.877 1.5H129.123C128.499 1.5 128 2.002 128 2.63V4.64C128 5.268 128.5 5.812 129.123 5.812H135.193C135.567 5.812 135.858 6.105 135.858 6.482V28.37C135.858 28.998 136.358 29.5 136.981 29.5H139.019C139.643 29.5 140.142 28.998 140.142 28.37V6.48C140.142 6.104 140.432 5.81 140.807 5.81H146.877C147.501 5.81 148 5.268 148 4.64V2.63C148 2.002 147.501 1.5 146.877 1.5Z" fill="#00FFAA"/>
<path fill-rule="evenodd" clip-rule="evenodd" d="M171.742 25.23H159.249C158.815 25.23 158.425 24.896 158.425 24.478V2.714C158.425 2.044 157.86 1.5 157.167 1.5H155.258C154.564 1.5 154 2.044 154 2.714V26.989C154 27.282 154.13 27.617 154.347 27.826L155.735 29.166C155.995 29.374 156.299 29.5 156.646 29.5H171.742C172.436 29.5 173 28.998 173 28.328V26.445C173 25.775 172.436 25.231 171.742 25.231V25.23Z" fill="#00FFAA"/>
<path fill-rule="evenodd" clip-rule="evenodd" d="M197.833 1.5H195.958C195.292 1.5 194.75 2.044 194.75 2.714V8.95C194.75 9.243 194.625 9.452 194.375 9.62L189.417 12.717C189.167 12.884 188.833 12.884 188.625 12.717L183.625 9.62C183.417 9.452 183.25 9.243 183.25 8.95V2.714C183.25 2.044 182.75 1.5 182.083 1.5H180.208C179.542 1.5 179 2.044 179 2.714V10.33C179 10.498 179.042 10.707 179.167 10.916L179.792 12.088C179.917 12.255 180.042 12.423 180.208 12.506L186.542 16.483C186.646 16.5512 186.731 16.6443 186.789 16.7539C186.847 16.8635 186.877 16.9859 186.875 17.11V28.327C186.875 28.955 187.417 29.499 188.083 29.499H189.958C190.625 29.499 191.125 28.955 191.125 28.327V17.111C191.125 16.861 191.292 16.609 191.5 16.484L197.792 12.508C197.958 12.424 198.125 12.256 198.208 12.088L198.875 10.917C198.952 10.7309 198.994 10.5323 199 10.331V2.714C199 2.044 198.458 1.5 197.833 1.5Z" fill="#00FFAA"/>
<path fill-rule="evenodd" clip-rule="evenodd" d="M238.794 1.5H236.965C236.258 1.5 235.718 2.044 235.718 2.714V23.389C235.718 23.431 235.718 23.975 235.427 24.478C235.219 24.854 234.887 25.231 233.93 25.231H227.07C226.072 25.231 225.781 24.854 225.573 24.478C225.386 24.143 225.272 23.7716 225.241 23.389V17.529C225.242 17.2083 225.115 16.9003 224.889 16.6729C224.663 16.4454 224.356 16.3171 224.035 16.316H222.205C221.884 16.3173 221.577 16.4459 221.351 16.6736C221.125 16.9012 220.999 17.2093 221 17.53V23.431C221 23.682 221.042 24.98 221.707 26.361C222.747 28.37 224.617 29.5 227.07 29.5H233.93C236.383 29.5 238.254 28.37 239.252 26.361C239.958 24.98 240 23.682 240 23.431V2.714C240 2.044 239.46 1.5 238.794 1.5Z" fill="#00FFAA"/>
<path fill-rule="evenodd" clip-rule="evenodd" d="M265.875 6.313L265.5 5.351C265.427 5.1957 265.329 5.05399 265.208 4.932L262.542 2.253C262.458 2.128 262.292 2.044 262.167 2.003L261.167 1.583C261.019 1.53144 260.864 1.50343 260.708 1.5H251.292C251.125 1.5 250.958 1.542 250.792 1.584L249.833 2.002C249.673 2.04415 249.529 2.13126 249.417 2.253L246.75 4.932C246.629 5.05399 246.531 5.1957 246.458 5.351L246.083 6.313C246 6.481 246 6.648 246 6.815V24.185C246 24.352 246 24.519 246.083 24.645L246.458 25.65C246.542 25.775 246.625 25.942 246.75 26.068L249.417 28.705C249.542 28.83 249.667 28.914 249.833 28.998L250.792 29.416C250.958 29.458 251.125 29.5 251.292 29.5H260.708C260.875 29.5 261.042 29.458 261.167 29.416L262.167 28.998C262.292 28.914 262.458 28.83 262.542 28.705L265.208 26.068C265.333 25.942 265.417 25.775 265.5 25.649L265.875 24.645C265.96 24.5068 266.003 24.3471 266 24.185V6.815C266 6.648 265.958 6.481 265.875 6.313ZM259.667 25.231H252.292C252.183 25.2301 252.075 25.2075 251.975 25.1644C251.874 25.1213 251.784 25.0586 251.708 24.98L250.5 23.724C250.419 23.6586 250.355 23.5755 250.311 23.4812C250.268 23.3868 250.247 23.2838 250.25 23.18V7.82C250.25 7.61 250.333 7.401 250.5 7.234L251.708 6.02C251.784 5.94158 251.875 5.87908 251.975 5.83615C252.075 5.79322 252.183 5.77073 252.292 5.77H259.667C259.917 5.77 260.125 5.853 260.25 6.02L261.5 7.234C261.625 7.401 261.708 7.611 261.708 7.82V23.18C261.708 23.39 261.625 23.599 261.5 23.724L260.25 24.98C260.125 25.147 259.917 25.23 259.667 25.23V25.231Z" fill="#00FFAA"/>
<path fill-rule="evenodd" clip-rule="evenodd" d="M280.866 5.77H282.804C283.464 5.77 284 5.225 284 4.555V2.714C284 2.044 283.464 1.5 282.804 1.5H273.196C272.536 1.5 272 2.044 272 2.714V4.555C272 5.225 272.536 5.769 273.196 5.769H275.134C275.546 5.769 275.876 6.104 275.876 6.564V24.436C275.876 24.854 275.546 25.231 275.134 25.231H273.196C272.536 25.231 272 25.775 272 26.445V28.286C272 28.956 272.536 29.5 273.196 29.5H282.804C283.464 29.5 284 28.956 284 28.286V26.445C284 25.775 283.464 25.231 282.804 25.231H280.866C280.454 25.231 280.124 24.854 280.124 24.436V6.564C280.124 6.104 280.454 5.77 280.866 5.77Z" fill="#00FFAA"/>
<path fill-rule="evenodd" clip-rule="evenodd" d="M308.917 1.5H306.833C306.25 1.5 305.75 2 305.75 2.668V18.275C305.75 18.692 305.458 18.943 305.25 18.985C305.042 19.068 304.708 18.985 304.542 18.692L294.292 2.084C294.133 1.87367 293.915 1.71421 293.667 1.625C293.512 1.54461 293.341 1.50179 293.167 1.5H291.083C290.5 1.5 290 2 290 2.668V28.332C290 28.999 290.5 29.5 291.083 29.5H293.167C293.75 29.5 294.25 29 294.25 28.332V12.725C294.25 12.308 294.542 12.099 294.75 12.015C295 11.974 295.292 12.015 295.458 12.308L305.75 28.916C305.875 29.166 306.083 29.291 306.333 29.375C306.5 29.458 306.667 29.5 306.833 29.5H308.917C309.5 29.5 310 29 310 28.332V2.668C310 2.001 309.5 1.5 308.917 1.5Z" fill="#00FFAA"/>
<path fill-rule="evenodd" clip-rule="evenodd" d="M321.353 5.77H333.683C334.43 5.77 335 5.182 335 4.512V2.756C335 2.044 334.43 1.5 333.684 1.5H318.72C318.368 1.5 318.017 1.626 317.754 1.877L316.395 3.174C316.132 3.425 316 3.718 316 4.054V26.905C316 27.24 316.132 27.575 316.395 27.825L317.755 29.123C318.018 29.374 318.37 29.5 318.721 29.5H333.684C334.43 29.5 335 28.914 335 28.244V26.486C335 25.775 334.43 25.189 333.684 25.189H321.354C320.871 25.189 320.476 24.854 320.476 24.394V18.45C320.476 17.99 320.871 17.613 321.353 17.613H331.621C332.323 17.613 332.938 17.069 332.938 16.357V14.6C332.938 13.93 332.323 13.345 331.621 13.345H321.353C320.871 13.345 320.476 12.968 320.476 12.507V6.607C320.476 6.146 320.871 5.77 321.353 5.77Z" fill="#00FFAA"/>
<path fill-rule="evenodd" clip-rule="evenodd" d="M360.917 6.31301L360.5 5.39301C360.459 5.21984 360.373 5.0607 360.25 4.93201L357.583 2.29501C357.462 2.17432 357.321 2.07522 357.167 2.00201L356.208 1.62601C356.054 1.54517 355.882 1.50199 355.708 1.50001H343.583C343.413 1.49939 343.245 1.53239 343.087 1.59708C342.93 1.66178 342.787 1.75691 342.667 1.87701L341.375 3.17401C341.133 3.41893 340.998 3.74979 341 4.09401V26.905C341 27.282 341.125 27.617 341.375 27.868L342.667 29.123C342.917 29.374 343.25 29.5 343.583 29.5H355.708C355.875 29.5 356.042 29.5 356.208 29.416L357.167 28.998C357.327 28.9559 357.471 28.8687 357.583 28.747L360.25 26.068C360.372 25.955 360.458 25.8097 360.5 25.649L360.917 24.687C361 24.519 361 24.352 361 24.185V6.81501C361 6.64801 361 6.48101 360.917 6.31301ZM356.75 23.138C356.75 23.389 356.667 23.598 356.5 23.766L355.292 24.98C355.21 25.0622 355.113 25.1268 355.005 25.1698C354.898 25.2128 354.783 25.2333 354.667 25.23H346.125C345.893 25.2282 345.671 25.135 345.507 24.9706C345.343 24.8063 345.251 24.584 345.25 24.352V6.64801C345.25 6.18801 345.667 5.81101 346.125 5.81101H354.667C354.917 5.81101 355.125 5.89501 355.292 6.06201L356.5 7.23401C356.667 7.40101 356.75 7.61101 356.75 7.86201V23.138Z" fill="#00FFAA"/>
</svg>
