<svg width="507" height="29" viewBox="0 0 507 29" fill="none" xmlns="http://www.w3.org/2000/svg">
<g clip-path="url(#clip0_204_17)">
<path fill-rule="evenodd" clip-rule="evenodd" d="M19.917 17.1999L19.5 16.2369C19.4583 16.0763 19.3716 15.9309 19.25 15.8179L16.583 13.1399C16.4712 13.0182 16.3268 12.9311 16.167 12.8889L15.208 12.4699C15.0454 12.4215 14.8775 12.3933 14.708 12.3859H6.292C6.18848 12.389 6.08566 12.368 5.99162 12.3246C5.89758 12.2812 5.81488 12.2167 5.75 12.1359L4.5 10.8799C4.41935 10.8145 4.35485 10.7315 4.31149 10.6371C4.26814 10.5428 4.2471 10.4397 4.25 10.3359V6.81993C4.25 6.60993 4.333 6.44293 4.5 6.27593L5.75 5.01993C5.89741 4.88359 6.09121 4.80851 6.292 4.80993H18.25C18.917 4.80993 19.458 4.26693 19.458 3.55493V1.75493C19.458 1.08593 18.917 0.49993 18.25 0.49993H5.292C5.13003 0.496625 4.97058 0.540395 4.833 0.62593L3.833 1.00193C3.67863 1.07514 3.53793 1.17424 3.417 1.29493L0.75 3.97393C0.667 4.09893 0.542 4.22493 0.5 4.35093L0.083 5.35493C0.042 5.52193 0 5.64793 0 5.81493V11.3399C0 11.5079 0.042 11.6749 0.083 11.8419L0.5 12.8049C0.542 12.9719 0.667 13.0979 0.75 13.2229L3.417 15.9029C3.542 15.9859 3.667 16.1109 3.833 16.1529L4.833 16.5719C4.958 16.6139 5.125 16.6559 5.292 16.6559H13.708C13.8115 16.6529 13.9143 16.6739 14.0084 16.7172C14.1024 16.7606 14.1851 16.8252 14.25 16.9059L15.5 18.1199C15.667 18.2879 15.75 18.4969 15.75 18.7059V22.1799C15.75 22.3899 15.667 22.5989 15.5 22.7659L14.25 24.0219C14.1024 24.1579 13.9087 24.2326 13.708 24.2309H1.792C1.62667 24.2282 1.46249 24.2588 1.30928 24.321C1.15606 24.3832 1.01695 24.4756 0.900267 24.5928C0.783581 24.7099 0.691714 24.8494 0.630157 25.0029C0.5686 25.1563 0.538617 25.3206 0.542 25.4859V27.2859C0.542 27.9559 1.083 28.4999 1.792 28.4999H14.708C14.875 28.4999 15.042 28.4999 15.208 28.4159L16.167 27.9979C16.3268 27.9558 16.4712 27.8687 16.583 27.7469L19.25 25.0679C19.3613 24.9632 19.4469 24.8342 19.5 24.6909L19.917 23.6869C19.958 23.5189 20 23.3939 20 23.2269V17.7019C20 17.5339 19.958 17.3669 19.917 17.1999Z" fill="#16793A"/>
<path fill-rule="evenodd" clip-rule="evenodd" d="M31.353 4.77H43.683C44.43 4.77 45 4.182 45 3.512V1.756C45 1.044 44.43 0.5 43.684 0.5H28.72C28.368 0.5 28.017 0.626 27.754 0.877L26.395 2.174C26.132 2.425 26 2.718 26 3.054V25.905C26 26.24 26.132 26.575 26.395 26.825L27.755 28.123C28.018 28.374 28.37 28.5 28.721 28.5H43.684C44.43 28.5 45 27.914 45 27.244V25.486C45 24.775 44.43 24.189 43.684 24.189H31.354C30.871 24.189 30.476 23.854 30.476 23.394V17.45C30.476 16.99 30.871 16.613 31.353 16.613H41.621C42.323 16.613 42.938 16.069 42.938 15.357V13.6C42.938 12.93 42.323 12.345 41.621 12.345H31.353C30.871 12.345 30.476 11.968 30.476 11.507V5.607C30.476 5.146 30.871 4.77 31.353 4.77Z" fill="#16793A"/>
<path fill-rule="evenodd" clip-rule="evenodd" d="M70.757 26.6609L64.2 17.5919H65.477C65.647 17.5919 65.775 17.5919 65.946 17.5089L66.968 17.0909C67.095 17.0489 67.223 16.9659 67.351 16.8409L70.076 14.1659C70.1892 14.0619 70.2766 13.9328 70.331 13.7889L70.757 12.7869C70.8385 12.6472 70.8826 12.4887 70.885 12.3269V6.72692C70.8821 6.61062 70.853 6.49647 70.8 6.39292L70.502 5.51492C70.459 5.38992 70.417 5.26492 70.332 5.18092L67.564 1.54492C67.4528 1.39883 67.3062 1.28353 67.138 1.20992L65.988 0.624925C65.8163 0.539575 65.6267 0.496706 65.435 0.499925H53.555C53.257 0.499925 52.959 0.624925 52.703 0.833925L51.341 2.21392C51.085 2.42192 51 2.71392 51 3.04892V27.2889C51 27.9149 51.51 28.4589 52.192 28.4589H54.151C54.79 28.4589 55.343 27.9149 55.343 27.2889V17.5919H58.793L66.2 27.9999C66.413 28.3339 66.796 28.5009 67.18 28.5009H69.777C70.245 28.5009 70.671 28.2919 70.884 27.8739C71.054 27.4979 71.054 26.9959 70.756 26.6619L70.757 26.6609ZM64.455 13.3299H56.067C55.684 13.3299 55.343 12.9949 55.343 12.6199V5.51392C55.343 5.09592 55.683 4.76192 56.067 4.76192H64.2C64.3151 4.76161 64.4287 4.78778 64.5321 4.83841C64.6354 4.88905 64.7257 4.96279 64.796 5.05392L66.371 7.10192C66.4578 7.23941 66.5023 7.39936 66.499 7.56192V11.3219C66.4997 11.4157 66.4812 11.5087 66.4445 11.595C66.4079 11.6813 66.3539 11.7593 66.286 11.8239L64.966 13.1199C64.8991 13.1869 64.8196 13.2399 64.732 13.2758C64.6445 13.3117 64.5506 13.3297 64.456 13.3289L64.455 13.3299Z" fill="#16793A"/>
<path fill-rule="evenodd" clip-rule="evenodd" d="M77 16.038C77 15.45 77.475 14.98 78.067 14.98H90.634C91.227 14.98 91.701 15.45 91.701 16.038V17.959C91.701 18.549 91.227 18.979 90.634 18.979H78.067C77.475 18.98 77 18.55 77 17.96V16.04V16.038Z" fill="#16793A"/>
<path fill-rule="evenodd" clip-rule="evenodd" d="M117.917 9.681L117.5 8.684C117.468 8.53184 117.378 8.3979 117.25 8.31L109.792 0.874002C109.687 0.75613 109.559 0.66183 109.415 0.597352C109.271 0.532875 109.116 0.499691 108.958 0.500002H107.042C106.75 0.500002 106.417 0.625002 106.208 0.874002L98.75 8.31C98.667 8.393 98.542 8.518 98.5 8.684L98.083 9.681C98.0316 9.82806 98.0036 9.98227 98 10.138V27.295C98 27.96 98.542 28.5 99.208 28.5H101.042C101.708 28.5 102.25 27.96 102.25 27.295V19.485C102.257 19.2775 102.343 19.0806 102.49 18.934C102.637 18.7874 102.835 18.702 103.042 18.695H112.958C113.062 18.6947 113.165 18.715 113.261 18.7546C113.357 18.7941 113.444 18.8523 113.518 18.9257C113.591 18.9991 113.65 19.0862 113.69 19.1822C113.73 19.2782 113.75 19.3811 113.75 19.485V27.295C113.75 27.96 114.292 28.5 114.958 28.5H116.792C117.458 28.5 118 27.96 118 27.295V10.138C118 9.972 117.958 9.806 117.917 9.681ZM108 5.402C108.208 5.402 108.417 5.485 108.542 5.652L113.5 10.595C113.667 10.72 113.75 10.927 113.75 11.135V13.669C113.75 14.126 113.417 14.459 112.958 14.459H103.042C102.938 14.4593 102.835 14.439 102.739 14.3994C102.643 14.3599 102.556 14.3017 102.482 14.2283C102.409 14.1549 102.35 14.0678 102.31 13.9718C102.27 13.8758 102.25 13.7729 102.25 13.669V11.135C102.25 10.927 102.333 10.72 102.5 10.595L107.458 5.651C107.625 5.485 107.792 5.402 108 5.402Z" fill="#16793A"/>
<path fill-rule="evenodd" clip-rule="evenodd" d="M141.742 24.23H129.249C128.815 24.23 128.425 23.896 128.425 23.478V1.714C128.425 1.044 127.86 0.5 127.167 0.5H125.258C124.564 0.5 124 1.044 124 1.714V25.989C124 26.282 124.13 26.617 124.347 26.826L125.735 28.166C125.995 28.374 126.299 28.5 126.646 28.5H141.742C142.436 28.5 143 27.998 143 27.328V25.445C143 24.775 142.436 24.231 141.742 24.231V24.23Z" fill="#16793A"/>
<path fill-rule="evenodd" clip-rule="evenodd" d="M157.866 4.77H159.804C160.464 4.77 161 4.225 161 3.555V1.714C161 1.044 160.464 0.5 159.804 0.5H150.196C149.536 0.5 149 1.044 149 1.714V3.555C149 4.225 149.536 4.769 150.196 4.769H152.134C152.546 4.769 152.876 5.104 152.876 5.564V23.436C152.876 23.854 152.546 24.231 152.134 24.231H150.196C149.536 24.231 149 24.775 149 25.445V27.286C149 27.956 149.536 28.5 150.196 28.5H159.804C160.464 28.5 161 27.956 161 27.286V25.445C161 24.775 160.464 24.231 159.804 24.231H157.866C157.454 24.231 157.124 23.854 157.124 23.436V5.564C157.124 5.104 157.454 4.77 157.866 4.77Z" fill="#16793A"/>
<path fill-rule="evenodd" clip-rule="evenodd" d="M186.667 14.102L185.25 12.68C185.042 12.471 184.792 12.387 184.5 12.387H177.917C177.774 12.3865 177.632 12.4143 177.5 12.4689C177.368 12.5235 177.248 12.6038 177.148 12.7051C177.047 12.8064 176.967 12.9267 176.913 13.059C176.859 13.1913 176.832 13.3331 176.833 13.476V15.568C176.833 16.154 177.292 16.656 177.917 16.656H182.083C182.417 16.656 182.708 16.949 182.708 17.326V22.265C182.712 22.3489 182.7 22.4327 182.671 22.5117C182.643 22.5907 182.599 22.6632 182.542 22.725L181.208 24.065C181.147 24.1221 181.075 24.1663 180.996 24.195C180.917 24.2237 180.834 24.2363 180.75 24.232H173.208C173.124 24.2361 173.041 24.2234 172.962 24.1945C172.883 24.1657 172.811 24.1213 172.75 24.064L171.417 22.725C171.36 22.6633 171.316 22.5908 171.287 22.5118C171.258 22.4329 171.246 22.3489 171.25 22.265V6.778C171.246 6.69406 171.258 6.61012 171.287 6.53112C171.316 6.45212 171.36 6.37966 171.417 6.318L172.75 4.978C172.811 4.9209 172.883 4.87669 172.962 4.848C173.041 4.81932 173.124 4.80673 173.208 4.811H180.75C180.917 4.811 181.083 4.853 181.208 4.978L183.083 6.904C183.292 7.113 183.583 7.197 183.875 7.197C184.167 7.197 184.458 7.113 184.625 6.904L186.125 5.397C186.333 5.187 186.417 4.937 186.417 4.644C186.417 4.351 186.333 4.058 186.125 3.848L183.542 1.253C183.417 1.17 183.333 1.086 183.167 1.044L182.167 0.584C182 0.542 181.875 0.5 181.75 0.5H172.25C172.083 0.5 171.958 0.542 171.833 0.584L170.792 1.044C170.667 1.086 170.542 1.17 170.417 1.254L167.708 3.973C167.623 4.08937 167.553 4.21604 167.5 4.35L167.083 5.397C167 5.522 167 5.648 167 5.815V23.227C167 23.394 167 23.519 167.083 23.645L167.5 24.691C167.542 24.817 167.625 24.942 167.708 25.068L170.417 27.788C170.542 27.872 170.667 27.956 170.792 27.998L171.833 28.458C171.958 28.5 172.083 28.5 172.25 28.5H181.75C181.875 28.5 182 28.5 182.167 28.458L183.167 27.998C183.333 27.956 183.417 27.872 183.542 27.788L186.25 25.068C186.333 24.942 186.417 24.817 186.458 24.691L186.917 23.645C186.958 23.519 187 23.394 187 23.227V14.897C186.996 14.5989 186.877 14.3138 186.667 14.102Z" fill="#16793A"/>
<path fill-rule="evenodd" clip-rule="evenodd" d="M211.917 0.5H209.833C209.25 0.5 208.75 1 208.75 1.668V17.275C208.75 17.692 208.458 17.943 208.25 17.985C208.042 18.068 207.708 17.985 207.542 17.692L197.292 1.084C197.133 0.873673 196.915 0.714209 196.667 0.625C196.512 0.544611 196.341 0.501786 196.167 0.5H194.083C193.5 0.5 193 1 193 1.668V27.332C193 27.999 193.5 28.5 194.083 28.5H196.167C196.75 28.5 197.25 28 197.25 27.332V11.725C197.25 11.308 197.542 11.099 197.75 11.015C198 10.974 198.292 11.015 198.458 11.308L208.75 27.916C208.875 28.166 209.083 28.291 209.333 28.375C209.5 28.458 209.667 28.5 209.833 28.5H211.917C212.5 28.5 213 28 213 27.332V1.668C213 1.001 212.5 0.5 211.917 0.5Z" fill="#16793A"/>
<path fill-rule="evenodd" clip-rule="evenodd" d="M224.353 4.77H236.683C237.43 4.77 238 4.182 238 3.512V1.756C238 1.044 237.43 0.5 236.684 0.5H221.72C221.368 0.5 221.017 0.626 220.754 0.877L219.395 2.174C219.132 2.425 219 2.718 219 3.054V25.905C219 26.24 219.132 26.575 219.395 26.825L220.755 28.123C221.018 28.374 221.37 28.5 221.721 28.5H236.684C237.43 28.5 238 27.914 238 27.244V25.486C238 24.775 237.43 24.189 236.684 24.189H224.354C223.871 24.189 223.476 23.854 223.476 23.394V17.45C223.476 16.99 223.871 16.613 224.353 16.613H234.621C235.323 16.613 235.938 16.069 235.938 15.357V13.6C235.938 12.93 235.323 12.345 234.621 12.345H224.353C223.871 12.345 223.476 11.968 223.476 11.507V5.607C223.476 5.146 223.871 4.77 224.353 4.77Z" fill="#16793A"/>
<path fill-rule="evenodd" clip-rule="evenodd" d="M263.917 5.31301L263.5 4.39301C263.459 4.21984 263.373 4.0607 263.25 3.93201L260.583 1.29501C260.462 1.17432 260.321 1.07522 260.167 1.00201L259.208 0.626008C259.054 0.545166 258.882 0.50199 258.708 0.500008H246.583C246.413 0.499395 246.245 0.532386 246.087 0.597084C245.93 0.661783 245.787 0.756914 245.667 0.877008L244.375 2.17401C244.133 2.41893 243.998 2.74979 244 3.09401V25.905C244 26.282 244.125 26.617 244.375 26.868L245.667 28.123C245.917 28.374 246.25 28.5 246.583 28.5H258.708C258.875 28.5 259.042 28.5 259.208 28.416L260.167 27.998C260.327 27.9559 260.471 27.8687 260.583 27.747L263.25 25.068C263.372 24.955 263.458 24.8097 263.5 24.649L263.917 23.687C264 23.519 264 23.352 264 23.185V5.81501C264 5.64801 264 5.48101 263.917 5.31301ZM259.75 22.138C259.75 22.389 259.667 22.598 259.5 22.766L258.292 23.98C258.21 24.0622 258.113 24.1268 258.005 24.1698C257.898 24.2128 257.783 24.2333 257.667 24.23H249.125C248.893 24.2282 248.671 24.135 248.507 23.9706C248.343 23.8063 248.251 23.584 248.25 23.352V5.64801C248.25 5.18801 248.667 4.81101 249.125 4.81101H257.667C257.917 4.81101 258.125 4.89501 258.292 5.06201L259.5 6.23401C259.667 6.40101 259.75 6.61101 259.75 6.86201V22.138Z" fill="#16793A"/>
<path fill-rule="evenodd" clip-rule="evenodd" d="M305.898 22.724C305.807 22.4718 305.66 22.243 305.47 22.054C305.299 21.804 305.042 21.636 304.785 21.511C304.534 21.3779 304.256 21.3059 303.972 21.301C303.63 21.259 303.287 21.301 302.988 21.427C302.702 21.5438 302.44 21.7142 302.218 21.929L300.463 23.979C300.304 24.1387 300.089 24.2292 299.864 24.231H291.477C291.252 24.2295 291.037 24.1393 290.878 23.98L290.621 23.77C290.488 23.6032 290.413 23.398 290.407 23.185V5.857C290.407 5.648 290.493 5.439 290.621 5.271L290.878 5.021C291.049 4.895 291.263 4.811 291.478 4.811H299.864C300.078 4.811 300.292 4.895 300.464 5.021L302.218 7.071C302.346 7.238 302.518 7.364 302.688 7.448C302.902 7.573 303.159 7.657 303.416 7.698C303.758 7.783 304.1 7.783 304.4 7.657C304.826 7.56966 305.206 7.33178 305.47 6.987C305.64 6.778 305.812 6.569 305.898 6.317C305.983 6.025 306.026 5.69 305.983 5.355C305.938 4.86941 305.708 4.41965 305.341 4.099L302.645 1.128C302.232 0.72765 301.68 0.502608 301.105 0.5H290.665C289.797 0.502548 288.966 0.848821 288.353 1.463L286.941 2.802C286.342 3.43 286 4.225 286 5.062V23.98C286 24.817 286.342 25.612 286.941 26.24L288.353 27.58C288.995 28.207 289.808 28.5 290.664 28.5H301.105C301.705 28.5 302.26 28.29 302.645 27.914L305.341 24.942C305.641 24.649 305.855 24.272 305.941 23.896C306.026 23.478 306.026 23.101 305.898 22.724Z" fill="#16793A"/>
<path fill-rule="evenodd" clip-rule="evenodd" d="M331.875 5.313L331.5 4.351C331.427 4.1957 331.329 4.05399 331.208 3.932L328.542 1.253C328.458 1.128 328.292 1.044 328.167 1.003L327.167 0.583C327.019 0.53144 326.864 0.503431 326.708 0.5H317.292C317.125 0.5 316.958 0.542 316.792 0.584L315.833 1.002C315.673 1.04415 315.529 1.13126 315.417 1.253L312.75 3.932C312.629 4.05399 312.531 4.1957 312.458 4.351L312.083 5.313C312 5.481 312 5.648 312 5.815V23.185C312 23.352 312 23.519 312.083 23.645L312.458 24.65C312.542 24.775 312.625 24.942 312.75 25.068L315.417 27.705C315.542 27.83 315.667 27.914 315.833 27.998L316.792 28.416C316.958 28.458 317.125 28.5 317.292 28.5H326.708C326.875 28.5 327.042 28.458 327.167 28.416L328.167 27.998C328.292 27.914 328.458 27.83 328.542 27.705L331.208 25.068C331.333 24.942 331.417 24.775 331.5 24.649L331.875 23.645C331.96 23.5068 332.003 23.3471 332 23.185V5.815C332 5.648 331.958 5.481 331.875 5.313ZM325.667 24.231H318.292C318.183 24.2301 318.075 24.2075 317.975 24.1644C317.874 24.1213 317.784 24.0586 317.708 23.98L316.5 22.724C316.419 22.6586 316.355 22.5755 316.311 22.4812C316.268 22.3868 316.247 22.2838 316.25 22.18V6.82C316.25 6.61 316.333 6.401 316.5 6.234L317.708 5.02C317.784 4.94158 317.875 4.87908 317.975 4.83615C318.075 4.79322 318.183 4.77073 318.292 4.77H325.667C325.917 4.77 326.125 4.853 326.25 5.02L327.5 6.234C327.625 6.401 327.708 6.611 327.708 6.82V22.18C327.708 22.39 327.625 22.599 327.5 22.724L326.25 23.98C326.125 24.147 325.917 24.23 325.667 24.23V24.231Z" fill="#16793A"/>
<path fill-rule="evenodd" clip-rule="evenodd" d="M359.207 1.24002L357.036 0.564016C356.8 0.477049 356.541 0.475884 356.305 0.560727C356.068 0.645569 355.869 0.811003 355.742 1.02802L349.605 9.93202C349.547 10.0353 349.462 10.1212 349.359 10.1806C349.256 10.24 349.14 10.2709 349.021 10.27C348.897 10.2714 348.774 10.2411 348.664 10.1819C348.555 10.1228 348.462 10.0368 348.395 9.93202L342.3 1.02802C342.164 0.80952 341.957 0.644268 341.714 0.559828C341.471 0.475388 341.206 0.476867 340.964 0.564016L338.834 1.23902C338.335 1.40802 338 1.83002 338 2.38002V27.32C338 27.993 338.543 28.5 339.169 28.5H341.089C341.757 28.5 342.258 27.994 342.258 27.318V10.945C342.258 10.565 342.55 10.312 342.801 10.27C343.051 10.185 343.385 10.185 343.636 10.523L346.976 15.418C347.184 15.756 347.56 15.925 347.936 15.925H350.065C350.482 15.925 350.815 15.755 351.066 15.418L354.406 10.523C354.615 10.185 354.991 10.185 355.241 10.27C355.491 10.312 355.742 10.565 355.742 10.945V27.318C355.742 27.994 356.285 28.5 356.911 28.5H358.831C359.5 28.5 360 27.994 360 27.318V2.37802C360 1.83002 359.666 1.40802 359.207 1.23902V1.24002Z" fill="#16793A"/>
<path fill-rule="evenodd" clip-rule="evenodd" d="M385.875 5.313L385.5 4.351C385.427 4.1957 385.329 4.05399 385.208 3.932L382.583 1.253C382.458 1.17 382.292 1.044 382.167 1.003L381.208 0.583C381.045 0.535074 380.877 0.507201 380.708 0.5H368.583C368.208 0.5 367.875 0.626 367.625 0.877L366.375 2.174C366.125 2.425 366 2.718 366 3.094V27.161C366 27.914 366.583 28.5 367.292 28.5H368.958C369.667 28.5 370.25 27.914 370.25 27.16V18.497C370.25 18.037 370.625 17.618 371.125 17.618H380.708C380.875 17.618 381.042 17.576 381.208 17.534L382.167 17.116C382.292 17.074 382.458 16.948 382.583 16.823L385.208 14.186C385.333 14.06 385.417 13.935 385.5 13.768L385.875 12.805C385.958 12.637 386 12.47 386 12.303V5.815C386 5.648 385.958 5.481 385.875 5.313ZM381.75 11.256C381.75 11.508 381.625 11.716 381.458 11.884L380.292 13.098C380.211 13.1804 380.113 13.2452 380.006 13.2884C379.898 13.3316 379.783 13.3522 379.667 13.349H371.125C370.893 13.3472 370.671 13.2538 370.507 13.0893C370.343 12.9247 370.251 12.7022 370.25 12.47V5.648C370.25 5.188 370.625 4.769 371.125 4.769H379.667C379.917 4.769 380.125 4.853 380.292 5.02L381.458 6.234C381.625 6.401 381.75 6.611 381.75 6.862V11.256Z" fill="#16793A"/>
<path fill-rule="evenodd" clip-rule="evenodd" d="M411.917 9.681L411.5 8.684C411.468 8.53184 411.378 8.3979 411.25 8.31L403.792 0.874002C403.687 0.75613 403.559 0.66183 403.415 0.597352C403.271 0.532875 403.116 0.499691 402.958 0.500002H401.042C400.75 0.500002 400.417 0.625002 400.208 0.874002L392.75 8.31C392.667 8.393 392.542 8.518 392.5 8.684L392.083 9.681C392.032 9.82806 392.004 9.98227 392 10.138V27.295C392 27.96 392.542 28.5 393.208 28.5H395.042C395.708 28.5 396.25 27.96 396.25 27.295V19.485C396.257 19.2775 396.343 19.0806 396.49 18.934C396.637 18.7874 396.835 18.702 397.042 18.695H406.958C407.062 18.6947 407.165 18.715 407.261 18.7546C407.357 18.7941 407.444 18.8523 407.518 18.9257C407.591 18.9991 407.65 19.0862 407.69 19.1822C407.73 19.2782 407.75 19.3811 407.75 19.485V27.295C407.75 27.96 408.292 28.5 408.958 28.5H410.792C411.458 28.5 412 27.96 412 27.295V10.138C412 9.972 411.958 9.806 411.917 9.681ZM402 5.402C402.208 5.402 402.417 5.485 402.542 5.652L407.5 10.595C407.667 10.72 407.75 10.927 407.75 11.135V13.669C407.75 14.126 407.417 14.459 406.958 14.459H397.042C396.938 14.4593 396.835 14.439 396.739 14.3994C396.643 14.3599 396.556 14.3017 396.482 14.2283C396.409 14.1549 396.35 14.0678 396.31 13.9718C396.27 13.8758 396.25 13.7729 396.25 13.669V11.135C396.25 10.927 396.333 10.72 396.5 10.595L401.458 5.651C401.625 5.485 401.792 5.402 402 5.402Z" fill="#16793A"/>
<path fill-rule="evenodd" clip-rule="evenodd" d="M436.917 0.5H434.833C434.25 0.5 433.75 1 433.75 1.668V17.275C433.75 17.692 433.458 17.943 433.25 17.985C433.042 18.068 432.708 17.985 432.542 17.692L422.292 1.084C422.133 0.873673 421.915 0.714209 421.667 0.625C421.512 0.544611 421.341 0.501786 421.167 0.5H419.083C418.5 0.5 418 1 418 1.668V27.332C418 27.999 418.5 28.5 419.083 28.5H421.167C421.75 28.5 422.25 28 422.25 27.332V11.725C422.25 11.308 422.542 11.099 422.75 11.015C423 10.974 423.292 11.015 423.458 11.308L433.75 27.916C433.875 28.166 434.083 28.291 434.333 28.375C434.5 28.458 434.667 28.5 434.833 28.5H436.917C437.5 28.5 438 28 438 27.332V1.668C438 1.001 437.5 0.5 436.917 0.5Z" fill="#16793A"/>
<path fill-rule="evenodd" clip-rule="evenodd" d="M452.866 4.77H454.804C455.464 4.77 456 4.225 456 3.555V1.714C456 1.044 455.464 0.5 454.804 0.5H445.196C444.536 0.5 444 1.044 444 1.714V3.555C444 4.225 444.536 4.769 445.196 4.769H447.134C447.546 4.769 447.876 5.104 447.876 5.564V23.436C447.876 23.854 447.546 24.231 447.134 24.231H445.196C444.536 24.231 444 24.775 444 25.445V27.286C444 27.956 444.536 28.5 445.196 28.5H454.804C455.464 28.5 456 27.956 456 27.286V25.445C456 24.775 455.464 24.231 454.804 24.231H452.866C452.454 24.231 452.124 23.854 452.124 23.436V5.564C452.124 5.104 452.454 4.77 452.866 4.77Z" fill="#16793A"/>
<path fill-rule="evenodd" clip-rule="evenodd" d="M467.353 4.77H479.683C480.43 4.77 481 4.182 481 3.512V1.756C481 1.044 480.43 0.5 479.684 0.5H464.72C464.368 0.5 464.017 0.626 463.754 0.877L462.395 2.174C462.132 2.425 462 2.718 462 3.054V25.905C462 26.24 462.132 26.575 462.395 26.825L463.755 28.123C464.018 28.374 464.37 28.5 464.721 28.5H479.684C480.43 28.5 481 27.914 481 27.244V25.486C481 24.775 480.43 24.189 479.684 24.189H467.354C466.871 24.189 466.476 23.854 466.476 23.394V17.45C466.476 16.99 466.871 16.613 467.353 16.613H477.621C478.323 16.613 478.938 16.069 478.938 15.357V13.6C478.938 12.93 478.323 12.345 477.621 12.345H467.353C466.871 12.345 466.476 11.968 466.476 11.507V5.607C466.476 5.146 466.871 4.77 467.353 4.77Z" fill="#16793A"/>
<path fill-rule="evenodd" clip-rule="evenodd" d="M506.917 17.1999L506.5 16.2369C506.458 16.0763 506.372 15.9309 506.25 15.8179L503.583 13.1399C503.471 13.0182 503.327 12.9311 503.167 12.8889L502.208 12.4699C502.045 12.4215 501.877 12.3933 501.708 12.3859H493.292C493.188 12.389 493.086 12.368 492.992 12.3246C492.898 12.2812 492.815 12.2167 492.75 12.1359L491.5 10.8799C491.419 10.8145 491.355 10.7315 491.311 10.6371C491.268 10.5428 491.247 10.4397 491.25 10.3359V6.81993C491.25 6.60993 491.333 6.44293 491.5 6.27593L492.75 5.01993C492.897 4.88359 493.091 4.80851 493.292 4.80993H505.25C505.917 4.80993 506.458 4.26693 506.458 3.55493V1.75493C506.458 1.08593 505.917 0.49993 505.25 0.49993H492.292C492.13 0.496625 491.971 0.540395 491.833 0.62593L490.833 1.00193C490.679 1.07514 490.538 1.17424 490.417 1.29493L487.75 3.97393C487.667 4.09893 487.542 4.22493 487.5 4.35093L487.083 5.35493C487.042 5.52193 487 5.64793 487 5.81493V11.3399C487 11.5079 487.042 11.6749 487.083 11.8419L487.5 12.8049C487.542 12.9719 487.667 13.0979 487.75 13.2229L490.417 15.9029C490.542 15.9859 490.667 16.1109 490.833 16.1529L491.833 16.5719C491.958 16.6139 492.125 16.6559 492.292 16.6559H500.708C500.812 16.6529 500.914 16.6739 501.008 16.7172C501.102 16.7606 501.185 16.8252 501.25 16.9059L502.5 18.1199C502.667 18.2879 502.75 18.4969 502.75 18.7059V22.1799C502.75 22.3899 502.667 22.5989 502.5 22.7659L501.25 24.0219C501.102 24.1579 500.909 24.2326 500.708 24.2309H488.792C488.627 24.2282 488.462 24.2588 488.309 24.321C488.156 24.3832 488.017 24.4756 487.9 24.5928C487.784 24.7099 487.692 24.8494 487.63 25.0029C487.569 25.1563 487.539 25.3206 487.542 25.4859V27.2859C487.542 27.9559 488.083 28.4999 488.792 28.4999H501.708C501.875 28.4999 502.042 28.4999 502.208 28.4159L503.167 27.9979C503.327 27.9558 503.471 27.8687 503.583 27.7469L506.25 25.0679C506.361 24.9632 506.447 24.8342 506.5 24.6909L506.917 23.6869C506.958 23.5189 507 23.3939 507 23.2269V17.7019C507 17.5339 506.958 17.3669 506.917 17.1999Z" fill="#16793A"/>
</g>
<defs>
<clipPath id="clip0_204_17">
<rect width="507" height="29" fill="white"/>
</clipPath>
</defs>
</svg>
