<svg width="565" height="31" viewBox="0 0 565 31" fill="none" xmlns="http://www.w3.org/2000/svg">
<g clip-path="url(#clip0_209_85)">
<path fill-rule="evenodd" clip-rule="evenodd" d="M19.917 18.2L19.5 17.237C19.4583 17.0763 19.3716 16.931 19.25 16.818L16.583 14.14C16.4712 14.0183 16.3268 13.9311 16.167 13.889L15.208 13.47C15.0454 13.4216 14.8775 13.3934 14.708 13.386H6.292C6.18848 13.389 6.08566 13.3681 5.99162 13.3247C5.89758 13.2813 5.81488 13.2167 5.75 13.136L4.5 11.88C4.41935 11.8146 4.35485 11.7315 4.31149 11.6372C4.26814 11.5428 4.2471 11.4398 4.25 11.336V7.81999C4.25 7.60999 4.333 7.44299 4.5 7.27599L5.75 6.01999C5.89741 5.88366 6.09121 5.80857 6.292 5.80999H18.25C18.917 5.80999 19.458 5.26699 19.458 4.55499V2.75499C19.458 2.08599 18.917 1.49999 18.25 1.49999H5.292C5.13003 1.49669 4.97058 1.54046 4.833 1.62599L3.833 2.00199C3.67863 2.0752 3.53793 2.1743 3.417 2.29499L0.75 4.97399C0.667 5.09899 0.542 5.22499 0.5 5.35099L0.083 6.35499C0.042 6.52199 0 6.64799 0 6.81499V12.34C0 12.508 0.042 12.675 0.083 12.842L0.5 13.805C0.542 13.972 0.667 14.098 0.75 14.223L3.417 16.903C3.542 16.986 3.667 17.111 3.833 17.153L4.833 17.572C4.958 17.614 5.125 17.656 5.292 17.656H13.708C13.8115 17.6529 13.9143 17.6739 14.0084 17.7173C14.1024 17.7607 14.1851 17.8253 14.25 17.906L15.5 19.12C15.667 19.288 15.75 19.497 15.75 19.706V23.18C15.75 23.39 15.667 23.599 15.5 23.766L14.25 25.022C14.1024 25.158 13.9087 25.2327 13.708 25.231H1.792C1.62667 25.2283 1.46249 25.2589 1.30928 25.3211C1.15606 25.3832 1.01695 25.4757 0.900267 25.5928C0.783581 25.71 0.691714 25.8494 0.630157 26.0029C0.5686 26.1564 0.538617 26.3207 0.542 26.486V28.286C0.542 28.956 1.083 29.5 1.792 29.5H14.708C14.875 29.5 15.042 29.5 15.208 29.416L16.167 28.998C16.3268 28.9558 16.4712 28.8687 16.583 28.747L19.25 26.068C19.3613 25.9633 19.4469 25.8343 19.5 25.691L19.917 24.687C19.958 24.519 20 24.394 20 24.227V18.702C20 18.534 19.958 18.367 19.917 18.2Z" fill="#16793A"/>
<path fill-rule="evenodd" clip-rule="evenodd" d="M44.877 1.5H27.123C26.499 1.5 26 2.002 26 2.63V4.64C26 5.268 26.5 5.812 27.123 5.812H33.193C33.567 5.812 33.858 6.105 33.858 6.482V28.37C33.858 28.998 34.358 29.5 34.981 29.5H37.019C37.643 29.5 38.142 28.998 38.142 28.37V6.48C38.142 6.104 38.432 5.81 38.807 5.81H44.877C45.501 5.81 46 5.268 46 4.64V2.63C46 2.002 45.501 1.5 44.877 1.5Z" fill="#16793A"/>
<path fill-rule="evenodd" clip-rule="evenodd" d="M71.757 27.661L65.2 18.592H66.477C66.647 18.592 66.775 18.592 66.946 18.509L67.968 18.091C68.095 18.049 68.223 17.966 68.351 17.841L71.076 15.166C71.1892 15.0619 71.2766 14.9328 71.331 14.789L71.757 13.787C71.8385 13.6472 71.8826 13.4888 71.885 13.327V7.72699C71.8821 7.61068 71.853 7.49653 71.8 7.39299L71.502 6.51499C71.459 6.38999 71.417 6.26499 71.332 6.18099L68.564 2.54499C68.4528 2.3989 68.3062 2.28359 68.138 2.20999L66.988 1.62499C66.8163 1.53964 66.6267 1.49677 66.435 1.49999H54.555C54.257 1.49999 53.959 1.62499 53.703 1.83399L52.341 3.21399C52.085 3.42199 52 3.71399 52 4.04899V28.289C52 28.915 52.51 29.459 53.192 29.459H55.151C55.79 29.459 56.343 28.915 56.343 28.289V18.592H59.793L67.2 29C67.413 29.334 67.796 29.501 68.18 29.501H70.777C71.245 29.501 71.671 29.292 71.884 28.874C72.054 28.498 72.054 27.996 71.756 27.662L71.757 27.661ZM65.455 14.33H57.067C56.684 14.33 56.343 13.995 56.343 13.62V6.51399C56.343 6.09599 56.683 5.76199 57.067 5.76199H65.2C65.3151 5.76167 65.4287 5.78784 65.5321 5.83847C65.6354 5.88911 65.7257 5.96285 65.796 6.05399L67.371 8.10199C67.4578 8.23947 67.5023 8.39943 67.499 8.56199V12.322C67.4997 12.4158 67.4812 12.5087 67.4445 12.5951C67.4079 12.6814 67.3539 12.7593 67.286 12.824L65.966 14.12C65.8991 14.187 65.8196 14.24 65.732 14.2758C65.6445 14.3117 65.5506 14.3298 65.456 14.329L65.455 14.33Z" fill="#16793A"/>
<path fill-rule="evenodd" clip-rule="evenodd" d="M97.917 10.681L97.5 9.684C97.4678 9.53184 97.3783 9.3979 97.25 9.31L89.792 1.874C89.6874 1.75613 89.559 1.66183 89.4152 1.59735C89.2714 1.53287 89.1156 1.49969 88.958 1.5H87.042C86.75 1.5 86.417 1.625 86.208 1.874L78.75 9.31C78.667 9.393 78.542 9.518 78.5 9.684L78.083 10.681C78.0316 10.8281 78.0036 10.9823 78 11.138V28.295C78 28.96 78.542 29.5 79.208 29.5H81.042C81.708 29.5 82.25 28.96 82.25 28.295V20.485C82.2575 20.2775 82.3434 20.0806 82.4904 19.934C82.6374 19.7874 82.8345 19.702 83.042 19.695H92.958C93.0619 19.6947 93.1649 19.715 93.2609 19.7546C93.357 19.7941 93.4443 19.8523 93.5179 19.9257C93.5915 19.9991 93.6498 20.0862 93.6897 20.1822C93.7295 20.2782 93.75 20.3811 93.75 20.485V28.295C93.75 28.96 94.292 29.5 94.958 29.5H96.792C97.458 29.5 98 28.96 98 28.295V11.138C98 10.972 97.958 10.806 97.917 10.681ZM88 6.402C88.208 6.402 88.417 6.485 88.542 6.652L93.5 11.595C93.667 11.72 93.75 11.927 93.75 12.135V14.669C93.75 15.126 93.417 15.459 92.958 15.459H83.042C82.9381 15.4593 82.8351 15.439 82.7391 15.3994C82.643 15.3599 82.5557 15.3017 82.4821 15.2283C82.4085 15.1549 82.3502 15.0678 82.3103 14.9718C82.2705 14.8758 82.25 14.7729 82.25 14.669V12.135C82.25 11.927 82.333 11.72 82.5 11.595L87.458 6.651C87.625 6.485 87.792 6.402 88 6.402Z" fill="#16793A"/>
<path fill-rule="evenodd" clip-rule="evenodd" d="M122.877 1.5H105.123C104.499 1.5 104 2.002 104 2.63V4.64C104 5.268 104.5 5.812 105.123 5.812H111.193C111.567 5.812 111.858 6.105 111.858 6.482V28.37C111.858 28.998 112.358 29.5 112.981 29.5H115.019C115.643 29.5 116.142 28.998 116.142 28.37V6.48C116.142 6.104 116.432 5.81 116.807 5.81H122.877C123.501 5.81 124 5.268 124 4.64V2.63C124 2.002 123.501 1.5 122.877 1.5Z" fill="#16793A"/>
<path fill-rule="evenodd" clip-rule="evenodd" d="M135.353 5.77H147.683C148.43 5.77 149 5.182 149 4.512V2.756C149 2.044 148.43 1.5 147.684 1.5H132.72C132.368 1.5 132.017 1.626 131.754 1.877L130.395 3.174C130.132 3.425 130 3.718 130 4.054V26.905C130 27.24 130.132 27.575 130.395 27.825L131.755 29.123C132.018 29.374 132.37 29.5 132.721 29.5H147.684C148.43 29.5 149 28.914 149 28.244V26.486C149 25.775 148.43 25.189 147.684 25.189H135.354C134.871 25.189 134.476 24.854 134.476 24.394V18.45C134.476 17.99 134.871 17.613 135.353 17.613H145.621C146.323 17.613 146.938 17.069 146.938 16.357V14.6C146.938 13.93 146.323 13.345 145.621 13.345H135.353C134.871 13.345 134.476 12.968 134.476 12.507V6.607C134.476 6.146 134.871 5.77 135.353 5.77Z" fill="#16793A"/>
<path fill-rule="evenodd" clip-rule="evenodd" d="M174.667 15.102L173.25 13.68C173.042 13.471 172.792 13.387 172.5 13.387H165.917C165.774 13.3865 165.632 13.4143 165.5 13.4689C165.368 13.5235 165.248 13.6038 165.148 13.7051C165.047 13.8064 164.967 13.9267 164.913 14.059C164.859 14.1913 164.832 14.3331 164.833 14.476V16.568C164.833 17.154 165.292 17.656 165.917 17.656H170.083C170.417 17.656 170.708 17.949 170.708 18.326V23.265C170.712 23.3489 170.7 23.4327 170.671 23.5117C170.643 23.5907 170.599 23.6632 170.542 23.725L169.208 25.065C169.147 25.1221 169.075 25.1663 168.996 25.195C168.917 25.2237 168.834 25.2363 168.75 25.232H161.208C161.124 25.2361 161.041 25.2234 160.962 25.1945C160.883 25.1657 160.811 25.1213 160.75 25.064L159.417 23.725C159.36 23.6633 159.316 23.5908 159.287 23.5118C159.258 23.4329 159.246 23.3489 159.25 23.265V7.778C159.246 7.69406 159.258 7.61012 159.287 7.53112C159.316 7.45212 159.36 7.37966 159.417 7.318L160.75 5.978C160.811 5.9209 160.883 5.87669 160.962 5.848C161.041 5.81932 161.124 5.80673 161.208 5.811H168.75C168.917 5.811 169.083 5.853 169.208 5.978L171.083 7.904C171.292 8.113 171.583 8.197 171.875 8.197C172.167 8.197 172.458 8.113 172.625 7.904L174.125 6.397C174.333 6.187 174.417 5.937 174.417 5.644C174.417 5.351 174.333 5.058 174.125 4.848L171.542 2.253C171.417 2.17 171.333 2.086 171.167 2.044L170.167 1.584C170 1.542 169.875 1.5 169.75 1.5H160.25C160.083 1.5 159.958 1.542 159.833 1.584L158.792 2.044C158.667 2.086 158.542 2.17 158.417 2.254L155.708 4.973C155.623 5.08937 155.553 5.21604 155.5 5.35L155.083 6.397C155 6.522 155 6.648 155 6.815V24.227C155 24.394 155 24.519 155.083 24.645L155.5 25.691C155.542 25.817 155.625 25.942 155.708 26.068L158.417 28.788C158.542 28.872 158.667 28.956 158.792 28.998L159.833 29.458C159.958 29.5 160.083 29.5 160.25 29.5H169.75C169.875 29.5 170 29.5 170.167 29.458L171.167 28.998C171.333 28.956 171.417 28.872 171.542 28.788L174.25 26.068C174.333 25.942 174.417 25.817 174.458 25.691L174.917 24.645C174.958 24.519 175 24.394 175 24.227V15.897C174.996 15.5989 174.877 15.3138 174.667 15.102Z" fill="#16793A"/>
<path fill-rule="evenodd" clip-rule="evenodd" d="M189.866 5.77H191.804C192.464 5.77 193 5.225 193 4.555V2.714C193 2.044 192.464 1.5 191.804 1.5H182.196C181.536 1.5 181 2.044 181 2.714V4.555C181 5.225 181.536 5.769 182.196 5.769H184.134C184.546 5.769 184.876 6.104 184.876 6.564V24.436C184.876 24.854 184.546 25.231 184.134 25.231H182.196C181.536 25.231 181 25.775 181 26.445V28.286C181 28.956 181.536 29.5 182.196 29.5H191.804C192.464 29.5 193 28.956 193 28.286V26.445C193 25.775 192.464 25.231 191.804 25.231H189.866C189.454 25.231 189.124 24.854 189.124 24.436V6.564C189.124 6.104 189.454 5.77 189.866 5.77Z" fill="#16793A"/>
<path fill-rule="evenodd" clip-rule="evenodd" d="M218.898 23.724C218.807 23.4718 218.66 23.243 218.47 23.054C218.299 22.804 218.042 22.636 217.785 22.511C217.534 22.3779 217.256 22.3059 216.972 22.301C216.63 22.259 216.287 22.301 215.988 22.427C215.702 22.5438 215.44 22.7142 215.218 22.929L213.463 24.979C213.304 25.1387 213.089 25.2292 212.864 25.231H204.477C204.252 25.2295 204.037 25.1393 203.878 24.98L203.621 24.77C203.488 24.6032 203.413 24.398 203.407 24.185V6.857C203.407 6.648 203.493 6.439 203.621 6.271L203.878 6.021C204.049 5.895 204.263 5.811 204.478 5.811H212.864C213.078 5.811 213.292 5.895 213.464 6.021L215.218 8.071C215.346 8.238 215.518 8.364 215.688 8.448C215.902 8.573 216.159 8.657 216.416 8.698C216.758 8.783 217.1 8.783 217.4 8.657C217.826 8.56966 218.206 8.33178 218.47 7.987C218.64 7.778 218.812 7.569 218.898 7.317C218.983 7.025 219.026 6.69 218.983 6.355C218.938 5.86941 218.708 5.41965 218.341 5.099L215.645 2.128C215.232 1.72765 214.68 1.50261 214.105 1.5H203.665C202.797 1.50255 201.966 1.84882 201.353 2.463L199.941 3.802C199.342 4.43 199 5.225 199 6.062V24.98C199 25.817 199.342 26.612 199.941 27.24L201.353 28.58C201.995 29.207 202.808 29.5 203.664 29.5H214.105C214.705 29.5 215.26 29.29 215.645 28.914L218.341 25.942C218.641 25.649 218.855 25.272 218.941 24.896C219.026 24.478 219.026 24.101 218.898 23.724Z" fill="#16793A"/>
<path fill-rule="evenodd" clip-rule="evenodd" d="M230.353 5.77H242.683C243.43 5.77 244 5.182 244 4.512V2.756C244 2.044 243.43 1.5 242.684 1.5H227.72C227.368 1.5 227.017 1.626 226.754 1.877L225.395 3.174C225.132 3.425 225 3.718 225 4.054V26.905C225 27.24 225.132 27.575 225.395 27.825L226.755 29.123C227.018 29.374 227.37 29.5 227.721 29.5H242.684C243.43 29.5 244 28.914 244 28.244V26.486C244 25.775 243.43 25.189 242.684 25.189H230.354C229.871 25.189 229.476 24.854 229.476 24.394V18.45C229.476 17.99 229.871 17.613 230.353 17.613H240.621C241.323 17.613 241.938 17.069 241.938 16.357V14.6C241.938 13.93 241.323 13.345 240.621 13.345H230.353C229.871 13.345 229.476 12.968 229.476 12.507V6.607C229.476 6.146 229.871 5.77 230.353 5.77Z" fill="#3B82F6"/>
<path fill-rule="evenodd" clip-rule="evenodd" d="M268.877 1.5H251.123C250.499 1.5 250 2.002 250 2.63V4.64C250 5.268 250.5 5.812 251.123 5.812H257.193C257.567 5.812 257.858 6.105 257.858 6.482V28.37C257.858 28.998 258.358 29.5 258.981 29.5H261.019C261.643 29.5 262.142 28.998 262.142 28.37V6.48C262.142 6.104 262.432 5.81 262.807 5.81H268.877C269.501 5.81 270 5.268 270 4.64V2.63C270 2.002 269.501 1.5 268.877 1.5Z" fill="#3B82F6"/>
<path fill-rule="evenodd" clip-rule="evenodd" d="M292.917 1.5C292.25 1.5 291.75 2.042 291.75 2.708V12.625C291.75 13.042 291.375 13.375 290.958 13.375H281C280.901 13.3754 280.804 13.3563 280.713 13.3187C280.621 13.2812 280.539 13.2259 280.469 13.1562C280.399 13.0865 280.344 13.0037 280.306 12.9125C280.269 12.8213 280.25 12.7236 280.25 12.625V2.708C280.249 2.38778 280.122 2.08083 279.896 1.8544C279.669 1.62797 279.362 1.50053 279.042 1.5H277.167C276.542 1.5 276 2.042 276 2.708V28.333C276 28.958 276.542 29.5 277.167 29.5H279.042C279.708 29.5 280.25 28.958 280.25 28.333V18.375C280.25 17.958 280.583 17.625 281 17.625H290.958C291.375 17.625 291.75 17.958 291.75 18.375V28.333C291.75 28.958 292.25 29.5 292.917 29.5H294.792C295.458 29.5 296 28.958 296 28.333V2.708C295.999 2.38778 295.872 2.08083 295.646 1.8544C295.419 1.62797 295.112 1.50053 294.792 1.5H292.917Z" fill="#3B82F6"/>
<path fill-rule="evenodd" clip-rule="evenodd" d="M321.757 27.661L315.2 18.592H316.477C316.647 18.592 316.775 18.592 316.946 18.509L317.968 18.091C318.095 18.049 318.223 17.966 318.351 17.841L321.076 15.166C321.189 15.0619 321.277 14.9328 321.331 14.789L321.757 13.787C321.839 13.6472 321.883 13.4888 321.885 13.327V7.72699C321.882 7.61068 321.853 7.49653 321.8 7.39299L321.502 6.51499C321.459 6.38999 321.417 6.26499 321.332 6.18099L318.564 2.54499C318.453 2.3989 318.306 2.28359 318.138 2.20999L316.988 1.62499C316.816 1.53964 316.627 1.49677 316.435 1.49999H304.555C304.257 1.49999 303.959 1.62499 303.703 1.83399L302.341 3.21399C302.085 3.42199 302 3.71399 302 4.04899V28.289C302 28.915 302.51 29.459 303.192 29.459H305.151C305.79 29.459 306.343 28.915 306.343 28.289V18.592H309.793L317.2 29C317.413 29.334 317.796 29.501 318.18 29.501H320.777C321.245 29.501 321.671 29.292 321.884 28.874C322.054 28.498 322.054 27.996 321.756 27.662L321.757 27.661ZM315.455 14.33H307.067C306.684 14.33 306.343 13.995 306.343 13.62V6.51399C306.343 6.09599 306.683 5.76199 307.067 5.76199H315.2C315.315 5.76167 315.429 5.78784 315.532 5.83847C315.635 5.88911 315.726 5.96285 315.796 6.05399L317.371 8.10199C317.458 8.23947 317.502 8.39943 317.499 8.56199V12.322C317.5 12.4158 317.481 12.5087 317.445 12.5951C317.408 12.6814 317.354 12.7593 317.286 12.824L315.966 14.12C315.899 14.187 315.82 14.24 315.732 14.2758C315.644 14.3117 315.551 14.3298 315.456 14.329L315.455 14.33Z" fill="#16793A"/>
<path fill-rule="evenodd" clip-rule="evenodd" d="M333.353 5.77H345.683C346.43 5.77 347 5.182 347 4.512V2.756C347 2.044 346.43 1.5 345.684 1.5H330.72C330.368 1.5 330.017 1.626 329.754 1.877L328.395 3.174C328.132 3.425 328 3.718 328 4.054V26.905C328 27.24 328.132 27.575 328.395 27.825L329.755 29.123C330.018 29.374 330.37 29.5 330.721 29.5H345.684C346.43 29.5 347 28.914 347 28.244V26.486C347 25.775 346.43 25.189 345.684 25.189H333.354C332.871 25.189 332.476 24.854 332.476 24.394V18.45C332.476 17.99 332.871 17.613 333.353 17.613H343.621C344.323 17.613 344.938 17.069 344.938 16.357V14.6C344.938 13.93 344.323 13.345 343.621 13.345H333.353C332.871 13.345 332.476 12.968 332.476 12.507V6.607C332.476 6.146 332.871 5.77 333.353 5.77Z" fill="#16793A"/>
<path fill-rule="evenodd" clip-rule="evenodd" d="M372.917 18.2L372.5 17.237C372.458 17.0763 372.372 16.931 372.25 16.818L369.583 14.14C369.471 14.0183 369.327 13.9311 369.167 13.889L368.208 13.47C368.045 13.4216 367.877 13.3934 367.708 13.386H359.292C359.188 13.389 359.086 13.3681 358.992 13.3247C358.898 13.2813 358.815 13.2167 358.75 13.136L357.5 11.88C357.419 11.8146 357.355 11.7315 357.311 11.6372C357.268 11.5428 357.247 11.4398 357.25 11.336V7.81999C357.25 7.60999 357.333 7.44299 357.5 7.27599L358.75 6.01999C358.897 5.88366 359.091 5.80857 359.292 5.80999H371.25C371.917 5.80999 372.458 5.26699 372.458 4.55499V2.75499C372.458 2.08599 371.917 1.49999 371.25 1.49999H358.292C358.13 1.49669 357.971 1.54046 357.833 1.62599L356.833 2.00199C356.679 2.0752 356.538 2.1743 356.417 2.29499L353.75 4.97399C353.667 5.09899 353.542 5.22499 353.5 5.35099L353.083 6.35499C353.042 6.52199 353 6.64799 353 6.81499V12.34C353 12.508 353.042 12.675 353.083 12.842L353.5 13.805C353.542 13.972 353.667 14.098 353.75 14.223L356.417 16.903C356.542 16.986 356.667 17.111 356.833 17.153L357.833 17.572C357.958 17.614 358.125 17.656 358.292 17.656H366.708C366.812 17.6529 366.914 17.6739 367.008 17.7173C367.102 17.7607 367.185 17.8253 367.25 17.906L368.5 19.12C368.667 19.288 368.75 19.497 368.75 19.706V23.18C368.75 23.39 368.667 23.599 368.5 23.766L367.25 25.022C367.102 25.158 366.909 25.2327 366.708 25.231H354.792C354.627 25.2283 354.462 25.2589 354.309 25.3211C354.156 25.3832 354.017 25.4757 353.9 25.5928C353.784 25.71 353.692 25.8494 353.63 26.0029C353.569 26.1564 353.539 26.3207 353.542 26.486V28.286C353.542 28.956 354.083 29.5 354.792 29.5H367.708C367.875 29.5 368.042 29.5 368.208 29.416L369.167 28.998C369.327 28.9558 369.471 28.8687 369.583 28.747L372.25 26.068C372.361 25.9633 372.447 25.8343 372.5 25.691L372.917 24.687C372.958 24.519 373 24.394 373 24.227V18.702C373 18.534 372.958 18.367 372.917 18.2Z" fill="#16793A"/>
<path fill-rule="evenodd" clip-rule="evenodd" d="M384.353 5.77H396.683C397.43 5.77 398 5.182 398 4.512V2.756C398 2.044 397.43 1.5 396.684 1.5H381.72C381.368 1.5 381.017 1.626 380.754 1.877L379.395 3.174C379.132 3.425 379 3.718 379 4.054V26.905C379 27.24 379.132 27.575 379.395 27.825L380.755 29.123C381.018 29.374 381.37 29.5 381.721 29.5H396.684C397.43 29.5 398 28.914 398 28.244V26.486C398 25.775 397.43 25.189 396.684 25.189H384.354C383.871 25.189 383.476 24.854 383.476 24.394V18.45C383.476 17.99 383.871 17.613 384.353 17.613H394.621C395.323 17.613 395.938 17.069 395.938 16.357V14.6C395.938 13.93 395.323 13.345 394.621 13.345H384.353C383.871 13.345 383.476 12.968 383.476 12.507V6.607C383.476 6.146 383.871 5.77 384.353 5.77Z" fill="#16793A"/>
<path fill-rule="evenodd" clip-rule="evenodd" d="M423.757 27.661L417.2 18.592H418.477C418.647 18.592 418.775 18.592 418.946 18.509L419.968 18.091C420.095 18.049 420.223 17.966 420.351 17.841L423.076 15.166C423.189 15.0619 423.277 14.9328 423.331 14.789L423.757 13.787C423.839 13.6472 423.883 13.4888 423.885 13.327V7.72699C423.882 7.61068 423.853 7.49653 423.8 7.39299L423.502 6.51499C423.459 6.38999 423.417 6.26499 423.332 6.18099L420.564 2.54499C420.453 2.3989 420.306 2.28359 420.138 2.20999L418.988 1.62499C418.816 1.53964 418.627 1.49677 418.435 1.49999H406.555C406.257 1.49999 405.959 1.62499 405.703 1.83399L404.341 3.21399C404.085 3.42199 404 3.71399 404 4.04899V28.289C404 28.915 404.51 29.459 405.192 29.459H407.151C407.79 29.459 408.343 28.915 408.343 28.289V18.592H411.793L419.2 29C419.413 29.334 419.796 29.501 420.18 29.501H422.777C423.245 29.501 423.671 29.292 423.884 28.874C424.054 28.498 424.054 27.996 423.756 27.662L423.757 27.661ZM417.455 14.33H409.067C408.684 14.33 408.343 13.995 408.343 13.62V6.51399C408.343 6.09599 408.683 5.76199 409.067 5.76199H417.2C417.315 5.76167 417.429 5.78784 417.532 5.83847C417.635 5.88911 417.726 5.96285 417.796 6.05399L419.371 8.10199C419.458 8.23947 419.502 8.39943 419.499 8.56199V12.322C419.5 12.4158 419.481 12.5087 419.445 12.5951C419.408 12.6814 419.354 12.7593 419.286 12.824L417.966 14.12C417.899 14.187 417.82 14.24 417.732 14.2758C417.644 14.3117 417.551 14.3298 417.456 14.329L417.455 14.33Z" fill="#16793A"/>
<path fill-rule="evenodd" clip-rule="evenodd" d="M445.75 2.36601V18.947C445.753 19.0618 445.733 19.1761 445.69 19.2826C445.647 19.3891 445.582 19.4856 445.5 19.566L440.625 24.347C440.546 24.4346 440.45 24.5046 440.342 24.5526C440.234 24.6005 440.118 24.6253 440 24.6253C439.882 24.6253 439.766 24.6005 439.658 24.5526C439.55 24.5046 439.454 24.4346 439.375 24.347L434.5 19.566C434.375 19.401 434.25 19.195 434.25 18.947V2.36601C434.252 2.25091 434.231 2.13656 434.188 2.02989C434.144 1.92323 434.08 1.82647 433.998 1.74549C433.916 1.66451 433.819 1.601 433.712 1.5588C433.605 1.5166 433.49 1.4966 433.375 1.50001H430.875C430.76 1.4966 430.645 1.5166 430.538 1.5588C430.431 1.601 430.334 1.66451 430.252 1.74549C430.17 1.82647 430.105 1.92323 430.062 2.02989C430.019 2.13656 429.998 2.25091 430 2.36601V20.06C430 20.143 430.042 20.266 430.083 20.39L430.542 21.462C430.572 21.5705 430.629 21.6697 430.708 21.75L438.292 29.253C438.462 29.4109 438.685 29.499 438.917 29.5H441.083C441.333 29.5 441.542 29.418 441.708 29.253L449.292 21.75C449.375 21.668 449.417 21.585 449.5 21.462L449.958 20.39C450 20.266 450 20.143 450 20.06V2.36601C450.002 2.25091 449.981 2.13656 449.938 2.02989C449.894 1.92323 449.83 1.82647 449.748 1.74549C449.666 1.66451 449.569 1.601 449.462 1.5588C449.355 1.5166 449.24 1.4966 449.125 1.50001H446.625C446.51 1.4966 446.395 1.5166 446.288 1.5588C446.181 1.601 446.084 1.66451 446.002 1.74549C445.92 1.82647 445.855 1.92323 445.812 2.02989C445.769 2.13656 445.748 2.25091 445.75 2.36601Z" fill="#16793A"/>
<path fill-rule="evenodd" clip-rule="evenodd" d="M461.353 5.77H473.683C474.43 5.77 475 5.182 475 4.512V2.756C475 2.044 474.43 1.5 473.684 1.5H458.72C458.368 1.5 458.017 1.626 457.754 1.877L456.395 3.174C456.132 3.425 456 3.718 456 4.054V26.905C456 27.24 456.132 27.575 456.395 27.825L457.755 29.123C458.018 29.374 458.37 29.5 458.721 29.5H473.684C474.43 29.5 475 28.914 475 28.244V26.486C475 25.775 474.43 25.189 473.684 25.189H461.354C460.871 25.189 460.476 24.854 460.476 24.394V18.45C460.476 17.99 460.871 17.613 461.353 17.613H471.621C472.323 17.613 472.938 17.069 472.938 16.357V14.6C472.938 13.93 472.323 13.345 471.621 13.345H461.353C460.871 13.345 460.476 12.968 460.476 12.507V6.607C460.476 6.146 460.871 5.77 461.353 5.77Z" fill="#16793A"/>
<path fill-rule="evenodd" clip-rule="evenodd" d="M481 26.351C481 25.722 481.507 25.219 482.14 25.219H484.134C484.768 25.219 485.275 25.722 485.275 26.351V28.404C485.275 29.034 484.768 29.494 484.135 29.494H482.14C481.506 29.494 480.999 29.034 480.999 28.404V26.351H481Z" fill="#16793A"/>
<path fill-rule="evenodd" clip-rule="evenodd" d="M512.29 8.197C512.419 8.10802 512.508 7.97306 512.54 7.82L512.917 6.857C513 6.732 513 6.564 513 6.397V2.714C513 2.044 512.457 1.5 511.79 1.5H509.952C509.284 1.5 508.742 2.044 508.742 2.714V5.434C508.742 5.644 508.658 5.853 508.532 5.978L503.064 11.796C502.938 11.922 502.73 12.047 502.521 12.047C502.271 12.047 502.103 11.921 501.936 11.796L496.467 5.978C496.331 5.82955 496.256 5.63521 496.258 5.434V2.714C496.258 2.044 495.716 1.5 495.048 1.5H493.21C492.543 1.5 492 2.044 492 2.714V6.397C492 6.564 492 6.732 492.084 6.857L492.459 7.82C492.491 7.97306 492.58 8.10802 492.709 8.197L499.056 14.977C499.125 15.0453 499.18 15.1267 499.218 15.2165C499.256 15.3063 499.275 15.4027 499.275 15.5C499.275 15.5973 499.256 15.6937 499.218 15.7835C499.18 15.8733 499.125 15.9547 499.056 16.023L492.71 22.803C492.581 22.892 492.492 23.0269 492.46 23.18L492.084 24.143C492 24.268 492 24.436 492 24.603V28.286C492 28.956 492.543 29.5 493.21 29.5H495.048C495.716 29.5 496.258 28.956 496.258 28.286V25.566C496.258 25.356 496.342 25.189 496.468 25.022L501.936 19.204C502.1 19.0671 502.307 18.9927 502.521 18.994C502.73 18.994 502.938 19.078 503.064 19.204L508.533 25.022C508.658 25.189 508.741 25.357 508.741 25.566V28.286C508.741 28.956 509.284 29.5 509.952 29.5H511.789C512.457 29.5 513 28.956 513 28.286V24.603C513 24.436 513 24.268 512.916 24.143L512.541 23.18C512.509 23.0269 512.42 22.892 512.291 22.803L505.944 16.023C505.875 15.9547 505.82 15.8733 505.782 15.7835C505.744 15.6937 505.725 15.5973 505.725 15.5C505.725 15.4027 505.744 15.3063 505.782 15.2165C505.82 15.1267 505.875 15.0453 505.944 14.977L512.29 8.197Z" fill="#3B82F6"/>
<path fill-rule="evenodd" clip-rule="evenodd" d="M537.833 1.5H535.958C535.292 1.5 534.75 2.044 534.75 2.714V8.95C534.75 9.243 534.625 9.452 534.375 9.62L529.417 12.717C529.167 12.884 528.833 12.884 528.625 12.717L523.625 9.62C523.417 9.452 523.25 9.243 523.25 8.95V2.714C523.25 2.044 522.75 1.5 522.083 1.5H520.208C519.542 1.5 519 2.044 519 2.714V10.33C519 10.498 519.042 10.707 519.167 10.916L519.792 12.088C519.917 12.255 520.042 12.423 520.208 12.506L526.542 16.483C526.646 16.5512 526.731 16.6443 526.789 16.7539C526.847 16.8635 526.877 16.9859 526.875 17.11V28.327C526.875 28.955 527.417 29.499 528.083 29.499H529.958C530.625 29.499 531.125 28.955 531.125 28.327V17.111C531.125 16.861 531.292 16.609 531.5 16.484L537.792 12.508C537.958 12.424 538.125 12.256 538.208 12.088L538.875 10.917C538.952 10.7309 538.994 10.5323 539 10.331V2.714C539 2.044 538.458 1.5 537.833 1.5Z" fill="#3B82F6"/>
<path fill-rule="evenodd" clip-rule="evenodd" d="M564.825 5.309C565.029 4.974 565.07 4.555 564.866 4.22L563.806 2.086C563.643 1.751 563.276 1.5 562.91 1.5H547.627C547.057 1.5 546.608 1.96 546.608 2.546V4.765C546.608 5.351 547.057 5.811 547.628 5.811H558.223C558.468 5.811 558.631 5.936 558.753 6.104C558.835 6.314 558.835 6.564 558.713 6.732L545.181 25.733C545.078 25.8933 545.017 26.0768 545.003 26.2667C544.989 26.4567 545.022 26.6472 545.1 26.821L546.2 28.956C546.281 29.1236 546.409 29.2642 546.568 29.3607C546.727 29.4572 546.911 29.5056 547.097 29.5H563.887C564.417 29.5 564.865 29.04 564.865 28.495V26.277C564.865 25.691 564.417 25.231 563.887 25.231H551.743C551.637 25.2302 551.535 25.1979 551.447 25.1383C551.36 25.0786 551.293 24.9942 551.254 24.896C551.132 24.729 551.173 24.478 551.295 24.31L564.825 5.309Z" fill="#3B82F6"/>
</g>
<defs>
<clipPath id="clip0_209_85">
<rect width="565" height="30" fill="white" transform="translate(0 0.5)"/>
</clipPath>
</defs>
</svg>
