<svg width="507" height="31" viewBox="0 0 507 31" fill="none" xmlns="http://www.w3.org/2000/svg">
<path fill-rule="evenodd" clip-rule="evenodd" d="M19.917 18.1999L19.5 17.2369C19.4583 17.0763 19.3716 16.9309 19.25 16.8179L16.583 14.1399C16.4712 14.0182 16.3268 13.9311 16.167 13.8889L15.208 13.4699C15.0454 13.4215 14.8775 13.3933 14.708 13.3859H6.292C6.18848 13.389 6.08566 13.368 5.99162 13.3246C5.89758 13.2812 5.81488 13.2167 5.75 13.1359L4.5 11.8799C4.41935 11.8145 4.35485 11.7315 4.31149 11.6371C4.26814 11.5428 4.2471 11.4397 4.25 11.3359V7.81993C4.25 7.60993 4.333 7.44293 4.5 7.27593L5.75 6.01993C5.89741 5.88359 6.09121 5.80851 6.292 5.80993H18.25C18.917 5.80993 19.458 5.26693 19.458 4.55493V2.75493C19.458 2.08593 18.917 1.49993 18.25 1.49993H5.292C5.13003 1.49662 4.97058 1.54039 4.833 1.62593L3.833 2.00193C3.67863 2.07514 3.53793 2.17424 3.417 2.29493L0.75 4.97393C0.667 5.09893 0.542 5.22493 0.5 5.35093L0.083 6.35493C0.042 6.52193 0 6.64793 0 6.81493V12.3399C0 12.5079 0.042 12.6749 0.083 12.8419L0.5 13.8049C0.542 13.9719 0.667 14.0979 0.75 14.2229L3.417 16.9029C3.542 16.9859 3.667 17.1109 3.833 17.1529L4.833 17.5719C4.958 17.6139 5.125 17.6559 5.292 17.6559H13.708C13.8115 17.6529 13.9143 17.6739 14.0084 17.7172C14.1024 17.7606 14.1851 17.8252 14.25 17.9059L15.5 19.1199C15.667 19.2879 15.75 19.4969 15.75 19.7059V23.1799C15.75 23.3899 15.667 23.5989 15.5 23.7659L14.25 25.0219C14.1024 25.1579 13.9087 25.2326 13.708 25.2309H1.792C1.62667 25.2282 1.46249 25.2588 1.30928 25.321C1.15606 25.3832 1.01695 25.4756 0.900267 25.5928C0.783581 25.7099 0.691714 25.8494 0.630157 26.0029C0.5686 26.1563 0.538617 26.3206 0.542 26.4859V28.2859C0.542 28.9559 1.083 29.4999 1.792 29.4999H14.708C14.875 29.4999 15.042 29.4999 15.208 29.4159L16.167 28.9979C16.3268 28.9558 16.4712 28.8687 16.583 28.7469L19.25 26.0679C19.3613 25.9632 19.4469 25.8342 19.5 25.6909L19.917 24.6869C19.958 24.5189 20 24.3939 20 24.2269V18.7019C20 18.5339 19.958 18.3669 19.917 18.1999Z" fill="#16793A"/>
<path fill-rule="evenodd" clip-rule="evenodd" d="M44.877 1.5H27.123C26.499 1.5 26 2.002 26 2.63V4.64C26 5.268 26.5 5.812 27.123 5.812H33.193C33.567 5.812 33.858 6.105 33.858 6.482V28.37C33.858 28.998 34.358 29.5 34.981 29.5H37.019C37.643 29.5 38.142 28.998 38.142 28.37V6.48C38.142 6.104 38.432 5.81 38.807 5.81H44.877C45.501 5.81 46 5.268 46 4.64V2.63C46 2.002 45.501 1.5 44.877 1.5Z" fill="#16793A"/>
<path fill-rule="evenodd" clip-rule="evenodd" d="M71.757 27.6609L65.2 18.5919H66.477C66.647 18.5919 66.775 18.5919 66.946 18.5089L67.968 18.0909C68.095 18.0489 68.223 17.9659 68.351 17.8409L71.076 15.1659C71.1892 15.0619 71.2766 14.9328 71.331 14.7889L71.757 13.7869C71.8385 13.6472 71.8826 13.4887 71.885 13.3269V7.72692C71.8821 7.61062 71.853 7.49647 71.8 7.39292L71.502 6.51492C71.459 6.38992 71.417 6.26492 71.332 6.18092L68.564 2.54492C68.4528 2.39883 68.3062 2.28353 68.138 2.20992L66.988 1.62492C66.8163 1.53958 66.6267 1.49671 66.435 1.49992H54.555C54.257 1.49992 53.959 1.62492 53.703 1.83392L52.341 3.21392C52.085 3.42192 52 3.71392 52 4.04892V28.2889C52 28.9149 52.51 29.4589 53.192 29.4589H55.151C55.79 29.4589 56.343 28.9149 56.343 28.2889V18.5919H59.793L67.2 28.9999C67.413 29.3339 67.796 29.5009 68.18 29.5009H70.777C71.245 29.5009 71.671 29.2919 71.884 28.8739C72.054 28.4979 72.054 27.9959 71.756 27.6619L71.757 27.6609ZM65.455 14.3299H57.067C56.684 14.3299 56.343 13.9949 56.343 13.6199V6.51392C56.343 6.09592 56.683 5.76192 57.067 5.76192H65.2C65.3151 5.76161 65.4287 5.78778 65.5321 5.83841C65.6354 5.88905 65.7257 5.96279 65.796 6.05392L67.371 8.10192C67.4578 8.23941 67.5023 8.39936 67.499 8.56192V12.3219C67.4997 12.4157 67.4812 12.5087 67.4445 12.595C67.4079 12.6813 67.3539 12.7593 67.286 12.8239L65.966 14.1199C65.8991 14.1869 65.8196 14.2399 65.732 14.2758C65.6445 14.3117 65.5506 14.3297 65.456 14.3289L65.455 14.3299Z" fill="#16793A"/>
<path fill-rule="evenodd" clip-rule="evenodd" d="M97.917 10.681L97.5 9.684C97.4678 9.53184 97.3783 9.3979 97.25 9.31L89.792 1.874C89.6874 1.75613 89.559 1.66183 89.4152 1.59735C89.2714 1.53287 89.1156 1.49969 88.958 1.5H87.042C86.75 1.5 86.417 1.625 86.208 1.874L78.75 9.31C78.667 9.393 78.542 9.518 78.5 9.684L78.083 10.681C78.0316 10.8281 78.0036 10.9823 78 11.138V28.295C78 28.96 78.542 29.5 79.208 29.5H81.042C81.708 29.5 82.25 28.96 82.25 28.295V20.485C82.2575 20.2775 82.3434 20.0806 82.4904 19.934C82.6374 19.7874 82.8345 19.702 83.042 19.695H92.958C93.0619 19.6947 93.1649 19.715 93.2609 19.7546C93.357 19.7941 93.4443 19.8523 93.5179 19.9257C93.5915 19.9991 93.6498 20.0862 93.6897 20.1822C93.7295 20.2782 93.75 20.3811 93.75 20.485V28.295C93.75 28.96 94.292 29.5 94.958 29.5H96.792C97.458 29.5 98 28.96 98 28.295V11.138C98 10.972 97.958 10.806 97.917 10.681ZM88 6.402C88.208 6.402 88.417 6.485 88.542 6.652L93.5 11.595C93.667 11.72 93.75 11.927 93.75 12.135V14.669C93.75 15.126 93.417 15.459 92.958 15.459H83.042C82.9381 15.4593 82.8351 15.439 82.7391 15.3994C82.643 15.3599 82.5557 15.3017 82.4821 15.2283C82.4085 15.1549 82.3502 15.0678 82.3103 14.9718C82.2705 14.8758 82.25 14.7729 82.25 14.669V12.135C82.25 11.927 82.333 11.72 82.5 11.595L87.458 6.651C87.625 6.485 87.792 6.402 88 6.402Z" fill="#16793A"/>
<path fill-rule="evenodd" clip-rule="evenodd" d="M122.877 1.5H105.123C104.499 1.5 104 2.002 104 2.63V4.64C104 5.268 104.5 5.812 105.123 5.812H111.193C111.567 5.812 111.858 6.105 111.858 6.482V28.37C111.858 28.998 112.358 29.5 112.981 29.5H115.019C115.643 29.5 116.142 28.998 116.142 28.37V6.48C116.142 6.104 116.432 5.81 116.807 5.81H122.877C123.501 5.81 124 5.268 124 4.64V2.63C124 2.002 123.501 1.5 122.877 1.5Z" fill="#16793A"/>
<path fill-rule="evenodd" clip-rule="evenodd" d="M135.353 5.77H147.683C148.43 5.77 149 5.182 149 4.512V2.756C149 2.044 148.43 1.5 147.684 1.5H132.72C132.368 1.5 132.017 1.626 131.754 1.877L130.395 3.174C130.132 3.425 130 3.718 130 4.054V26.905C130 27.24 130.132 27.575 130.395 27.825L131.755 29.123C132.018 29.374 132.37 29.5 132.721 29.5H147.684C148.43 29.5 149 28.914 149 28.244V26.486C149 25.775 148.43 25.189 147.684 25.189H135.354C134.871 25.189 134.476 24.854 134.476 24.394V18.45C134.476 17.99 134.871 17.613 135.353 17.613H145.621C146.323 17.613 146.938 17.069 146.938 16.357V14.6C146.938 13.93 146.323 13.345 145.621 13.345H135.353C134.871 13.345 134.476 12.968 134.476 12.507V6.607C134.476 6.146 134.871 5.77 135.353 5.77Z" fill="#16793A"/>
<path fill-rule="evenodd" clip-rule="evenodd" d="M174.667 15.102L173.25 13.68C173.042 13.471 172.792 13.387 172.5 13.387H165.917C165.774 13.3865 165.632 13.4143 165.5 13.4689C165.368 13.5235 165.248 13.6038 165.148 13.7051C165.047 13.8064 164.967 13.9267 164.913 14.059C164.859 14.1913 164.832 14.3331 164.833 14.476V16.568C164.833 17.154 165.292 17.656 165.917 17.656H170.083C170.417 17.656 170.708 17.949 170.708 18.326V23.265C170.712 23.3489 170.7 23.4327 170.671 23.5117C170.643 23.5907 170.599 23.6632 170.542 23.725L169.208 25.065C169.147 25.1221 169.075 25.1663 168.996 25.195C168.917 25.2237 168.834 25.2363 168.75 25.232H161.208C161.124 25.2361 161.041 25.2234 160.962 25.1945C160.883 25.1657 160.811 25.1213 160.75 25.064L159.417 23.725C159.36 23.6633 159.316 23.5908 159.287 23.5118C159.258 23.4329 159.246 23.3489 159.25 23.265V7.778C159.246 7.69406 159.258 7.61012 159.287 7.53112C159.316 7.45212 159.36 7.37966 159.417 7.318L160.75 5.978C160.811 5.9209 160.883 5.87669 160.962 5.848C161.041 5.81932 161.124 5.80673 161.208 5.811H168.75C168.917 5.811 169.083 5.853 169.208 5.978L171.083 7.904C171.292 8.113 171.583 8.197 171.875 8.197C172.167 8.197 172.458 8.113 172.625 7.904L174.125 6.397C174.333 6.187 174.417 5.937 174.417 5.644C174.417 5.351 174.333 5.058 174.125 4.848L171.542 2.253C171.417 2.17 171.333 2.086 171.167 2.044L170.167 1.584C170 1.542 169.875 1.5 169.75 1.5H160.25C160.083 1.5 159.958 1.542 159.833 1.584L158.792 2.044C158.667 2.086 158.542 2.17 158.417 2.254L155.708 4.973C155.623 5.08937 155.553 5.21604 155.5 5.35L155.083 6.397C155 6.522 155 6.648 155 6.815V24.227C155 24.394 155 24.519 155.083 24.645L155.5 25.691C155.542 25.817 155.625 25.942 155.708 26.068L158.417 28.788C158.542 28.872 158.667 28.956 158.792 28.998L159.833 29.458C159.958 29.5 160.083 29.5 160.25 29.5H169.75C169.875 29.5 170 29.5 170.167 29.458L171.167 28.998C171.333 28.956 171.417 28.872 171.542 28.788L174.25 26.068C174.333 25.942 174.417 25.817 174.458 25.691L174.917 24.645C174.958 24.519 175 24.394 175 24.227V15.897C174.996 15.5989 174.877 15.3138 174.667 15.102Z" fill="#16793A"/>
<path fill-rule="evenodd" clip-rule="evenodd" d="M189.866 5.77H191.804C192.464 5.77 193 5.225 193 4.555V2.714C193 2.044 192.464 1.5 191.804 1.5H182.196C181.536 1.5 181 2.044 181 2.714V4.555C181 5.225 181.536 5.769 182.196 5.769H184.134C184.546 5.769 184.876 6.104 184.876 6.564V24.436C184.876 24.854 184.546 25.231 184.134 25.231H182.196C181.536 25.231 181 25.775 181 26.445V28.286C181 28.956 181.536 29.5 182.196 29.5H191.804C192.464 29.5 193 28.956 193 28.286V26.445C193 25.775 192.464 25.231 191.804 25.231H189.866C189.454 25.231 189.124 24.854 189.124 24.436V6.564C189.124 6.104 189.454 5.77 189.866 5.77Z" fill="#16793A"/>
<path fill-rule="evenodd" clip-rule="evenodd" d="M218.898 23.724C218.807 23.4718 218.66 23.243 218.47 23.054C218.299 22.804 218.042 22.636 217.785 22.511C217.534 22.3779 217.256 22.3059 216.972 22.301C216.63 22.259 216.287 22.301 215.988 22.427C215.702 22.5438 215.44 22.7142 215.218 22.929L213.463 24.979C213.304 25.1387 213.089 25.2292 212.864 25.231H204.477C204.252 25.2295 204.037 25.1393 203.878 24.98L203.621 24.77C203.488 24.6032 203.413 24.398 203.407 24.185V6.857C203.407 6.648 203.493 6.439 203.621 6.271L203.878 6.021C204.049 5.895 204.263 5.811 204.478 5.811H212.864C213.078 5.811 213.292 5.895 213.464 6.021L215.218 8.071C215.346 8.238 215.518 8.364 215.688 8.448C215.902 8.573 216.159 8.657 216.416 8.698C216.758 8.783 217.1 8.783 217.4 8.657C217.826 8.56966 218.206 8.33178 218.47 7.987C218.64 7.778 218.812 7.569 218.898 7.317C218.983 7.025 219.026 6.69 218.983 6.355C218.938 5.86941 218.708 5.41965 218.341 5.099L215.645 2.128C215.232 1.72765 214.68 1.50261 214.105 1.5H203.665C202.797 1.50255 201.966 1.84882 201.353 2.463L199.941 3.802C199.342 4.43 199 5.225 199 6.062V24.98C199 25.817 199.342 26.612 199.941 27.24L201.353 28.58C201.995 29.207 202.808 29.5 203.664 29.5H214.105C214.705 29.5 215.26 29.29 215.645 28.914L218.341 25.942C218.641 25.649 218.855 25.272 218.941 24.896C219.026 24.478 219.026 24.101 218.898 23.724Z" fill="#16793A"/>
<path fill-rule="evenodd" clip-rule="evenodd" d="M246.353 5.77H258.683C259.43 5.77 260 5.182 260 4.512V2.756C260 2.044 259.43 1.5 258.684 1.5H243.72C243.368 1.5 243.017 1.626 242.754 1.877L241.395 3.174C241.132 3.425 241 3.718 241 4.054V26.905C241 27.24 241.132 27.575 241.395 27.825L242.755 29.123C243.018 29.374 243.37 29.5 243.721 29.5H258.684C259.43 29.5 260 28.914 260 28.244V26.486C260 25.775 259.43 25.189 258.684 25.189H246.354C245.871 25.189 245.476 24.854 245.476 24.394V18.45C245.476 17.99 245.871 17.613 246.353 17.613H256.621C257.323 17.613 257.938 17.069 257.938 16.357V14.6C257.938 13.93 257.323 13.345 256.621 13.345H246.353C245.871 13.345 245.476 12.968 245.476 12.507V6.607C245.476 6.146 245.871 5.77 246.353 5.77Z" fill="#16793A"/>
<path fill-rule="evenodd" clip-rule="evenodd" d="M284.877 1.5H267.123C266.499 1.5 266 2.002 266 2.63V4.64C266 5.268 266.5 5.812 267.123 5.812H273.193C273.567 5.812 273.858 6.105 273.858 6.482V28.37C273.858 28.998 274.358 29.5 274.981 29.5H277.019C277.643 29.5 278.142 28.998 278.142 28.37V6.48C278.142 6.104 278.432 5.81 278.807 5.81H284.877C285.501 5.81 286 5.268 286 4.64V2.63C286 2.002 285.501 1.5 284.877 1.5Z" fill="#16793A"/>
<path fill-rule="evenodd" clip-rule="evenodd" d="M308.917 1.5C308.25 1.5 307.75 2.042 307.75 2.708V12.625C307.75 13.042 307.375 13.375 306.958 13.375H297C296.901 13.3754 296.804 13.3563 296.713 13.3187C296.621 13.2812 296.539 13.2259 296.469 13.1562C296.399 13.0865 296.344 13.0037 296.306 12.9125C296.269 12.8213 296.25 12.7236 296.25 12.625V2.708C296.249 2.38778 296.122 2.08083 295.896 1.8544C295.669 1.62797 295.362 1.50053 295.042 1.5H293.167C292.542 1.5 292 2.042 292 2.708V28.333C292 28.958 292.542 29.5 293.167 29.5H295.042C295.708 29.5 296.25 28.958 296.25 28.333V18.375C296.25 17.958 296.583 17.625 297 17.625H306.958C307.375 17.625 307.75 17.958 307.75 18.375V28.333C307.75 28.958 308.25 29.5 308.917 29.5H310.792C311.458 29.5 312 28.958 312 28.333V2.708C311.999 2.38778 311.872 2.08083 311.646 1.8544C311.419 1.62797 311.112 1.50053 310.792 1.5H308.917Z" fill="#16793A"/>
<path fill-rule="evenodd" clip-rule="evenodd" d="M353.757 27.6609L347.2 18.5919H348.477C348.647 18.5919 348.775 18.5919 348.946 18.5089L349.968 18.0909C350.095 18.0489 350.223 17.9659 350.351 17.8409L353.076 15.1659C353.189 15.0619 353.277 14.9328 353.331 14.7889L353.757 13.7869C353.839 13.6472 353.883 13.4887 353.885 13.3269V7.72692C353.882 7.61062 353.853 7.49647 353.8 7.39292L353.502 6.51492C353.459 6.38992 353.417 6.26492 353.332 6.18092L350.564 2.54492C350.453 2.39883 350.306 2.28353 350.138 2.20992L348.988 1.62492C348.816 1.53958 348.627 1.49671 348.435 1.49992H336.555C336.257 1.49992 335.959 1.62492 335.703 1.83392L334.341 3.21392C334.085 3.42192 334 3.71392 334 4.04892V28.2889C334 28.9149 334.51 29.4589 335.192 29.4589H337.151C337.79 29.4589 338.343 28.9149 338.343 28.2889V18.5919H341.793L349.2 28.9999C349.413 29.3339 349.796 29.5009 350.18 29.5009H352.777C353.245 29.5009 353.671 29.2919 353.884 28.8739C354.054 28.4979 354.054 27.9959 353.756 27.6619L353.757 27.6609ZM347.455 14.3299H339.067C338.684 14.3299 338.343 13.9949 338.343 13.6199V6.51392C338.343 6.09592 338.683 5.76192 339.067 5.76192H347.2C347.315 5.76161 347.429 5.78778 347.532 5.83841C347.635 5.88905 347.726 5.96279 347.796 6.05392L349.371 8.10192C349.458 8.23941 349.502 8.39936 349.499 8.56192V12.3219C349.5 12.4157 349.481 12.5087 349.445 12.595C349.408 12.6813 349.354 12.7593 349.286 12.8239L347.966 14.1199C347.899 14.1869 347.82 14.2399 347.732 14.2758C347.644 14.3117 347.551 14.3297 347.456 14.3289L347.455 14.3299Z" fill="#16793A"/>
<path fill-rule="evenodd" clip-rule="evenodd" d="M365.353 5.77H377.683C378.43 5.77 379 5.182 379 4.512V2.756C379 2.044 378.43 1.5 377.684 1.5H362.72C362.368 1.5 362.017 1.626 361.754 1.877L360.395 3.174C360.132 3.425 360 3.718 360 4.054V26.905C360 27.24 360.132 27.575 360.395 27.825L361.755 29.123C362.018 29.374 362.37 29.5 362.721 29.5H377.684C378.43 29.5 379 28.914 379 28.244V26.486C379 25.775 378.43 25.189 377.684 25.189H365.354C364.871 25.189 364.476 24.854 364.476 24.394V18.45C364.476 17.99 364.871 17.613 365.353 17.613H375.621C376.323 17.613 376.938 17.069 376.938 16.357V14.6C376.938 13.93 376.323 13.345 375.621 13.345H365.353C364.871 13.345 364.476 12.968 364.476 12.507V6.607C364.476 6.146 364.871 5.77 365.353 5.77Z" fill="#16793A"/>
<path fill-rule="evenodd" clip-rule="evenodd" d="M404.917 18.1999L404.5 17.2369C404.458 17.0763 404.372 16.9309 404.25 16.8179L401.583 14.1399C401.471 14.0182 401.327 13.9311 401.167 13.8889L400.208 13.4699C400.045 13.4215 399.877 13.3933 399.708 13.3859H391.292C391.188 13.389 391.086 13.368 390.992 13.3246C390.898 13.2812 390.815 13.2167 390.75 13.1359L389.5 11.8799C389.419 11.8145 389.355 11.7315 389.311 11.6371C389.268 11.5428 389.247 11.4397 389.25 11.3359V7.81993C389.25 7.60993 389.333 7.44293 389.5 7.27593L390.75 6.01993C390.897 5.88359 391.091 5.80851 391.292 5.80993H403.25C403.917 5.80993 404.458 5.26693 404.458 4.55493V2.75493C404.458 2.08593 403.917 1.49993 403.25 1.49993H390.292C390.13 1.49662 389.971 1.54039 389.833 1.62593L388.833 2.00193C388.679 2.07514 388.538 2.17424 388.417 2.29493L385.75 4.97393C385.667 5.09893 385.542 5.22493 385.5 5.35093L385.083 6.35493C385.042 6.52193 385 6.64793 385 6.81493V12.3399C385 12.5079 385.042 12.6749 385.083 12.8419L385.5 13.8049C385.542 13.9719 385.667 14.0979 385.75 14.2229L388.417 16.9029C388.542 16.9859 388.667 17.1109 388.833 17.1529L389.833 17.5719C389.958 17.6139 390.125 17.6559 390.292 17.6559H398.708C398.812 17.6529 398.914 17.6739 399.008 17.7172C399.102 17.7606 399.185 17.8252 399.25 17.9059L400.5 19.1199C400.667 19.2879 400.75 19.4969 400.75 19.7059V23.1799C400.75 23.3899 400.667 23.5989 400.5 23.7659L399.25 25.0219C399.102 25.1579 398.909 25.2326 398.708 25.2309H386.792C386.627 25.2282 386.462 25.2588 386.309 25.321C386.156 25.3832 386.017 25.4756 385.9 25.5928C385.784 25.7099 385.692 25.8494 385.63 26.0029C385.569 26.1563 385.539 26.3206 385.542 26.4859V28.2859C385.542 28.9559 386.083 29.4999 386.792 29.4999H399.708C399.875 29.4999 400.042 29.4999 400.208 29.4159L401.167 28.9979C401.327 28.9558 401.471 28.8687 401.583 28.7469L404.25 26.0679C404.361 25.9632 404.447 25.8342 404.5 25.6909L404.917 24.6869C404.958 24.5189 405 24.3939 405 24.2269V18.7019C405 18.5339 404.958 18.3669 404.917 18.1999Z" fill="#16793A"/>
<path fill-rule="evenodd" clip-rule="evenodd" d="M416.353 5.77H428.683C429.43 5.77 430 5.182 430 4.512V2.756C430 2.044 429.43 1.5 428.684 1.5H413.72C413.368 1.5 413.017 1.626 412.754 1.877L411.395 3.174C411.132 3.425 411 3.718 411 4.054V26.905C411 27.24 411.132 27.575 411.395 27.825L412.755 29.123C413.018 29.374 413.37 29.5 413.721 29.5H428.684C429.43 29.5 430 28.914 430 28.244V26.486C430 25.775 429.43 25.189 428.684 25.189H416.354C415.871 25.189 415.476 24.854 415.476 24.394V18.45C415.476 17.99 415.871 17.613 416.353 17.613H426.621C427.323 17.613 427.938 17.069 427.938 16.357V14.6C427.938 13.93 427.323 13.345 426.621 13.345H416.353C415.871 13.345 415.476 12.968 415.476 12.507V6.607C415.476 6.146 415.871 5.77 416.353 5.77Z" fill="#16793A"/>
<path fill-rule="evenodd" clip-rule="evenodd" d="M455.757 27.6609L449.2 18.5919H450.477C450.647 18.5919 450.775 18.5919 450.946 18.5089L451.968 18.0909C452.095 18.0489 452.223 17.9659 452.351 17.8409L455.076 15.1659C455.189 15.0619 455.277 14.9328 455.331 14.7889L455.757 13.7869C455.839 13.6472 455.883 13.4887 455.885 13.3269V7.72692C455.882 7.61062 455.853 7.49647 455.8 7.39292L455.502 6.51492C455.459 6.38992 455.417 6.26492 455.332 6.18092L452.564 2.54492C452.453 2.39883 452.306 2.28353 452.138 2.20992L450.988 1.62492C450.816 1.53958 450.627 1.49671 450.435 1.49992H438.555C438.257 1.49992 437.959 1.62492 437.703 1.83392L436.341 3.21392C436.085 3.42192 436 3.71392 436 4.04892V28.2889C436 28.9149 436.51 29.4589 437.192 29.4589H439.151C439.79 29.4589 440.343 28.9149 440.343 28.2889V18.5919H443.793L451.2 28.9999C451.413 29.3339 451.796 29.5009 452.18 29.5009H454.777C455.245 29.5009 455.671 29.2919 455.884 28.8739C456.054 28.4979 456.054 27.9959 455.756 27.6619L455.757 27.6609ZM449.455 14.3299H441.067C440.684 14.3299 440.343 13.9949 440.343 13.6199V6.51392C440.343 6.09592 440.683 5.76192 441.067 5.76192H449.2C449.315 5.76161 449.429 5.78778 449.532 5.83841C449.635 5.88905 449.726 5.96279 449.796 6.05392L451.371 8.10192C451.458 8.23941 451.502 8.39936 451.499 8.56192V12.3219C451.5 12.4157 451.481 12.5087 451.445 12.595C451.408 12.6813 451.354 12.7593 451.286 12.8239L449.966 14.1199C449.899 14.1869 449.82 14.2399 449.732 14.2758C449.644 14.3117 449.551 14.3297 449.456 14.3289L449.455 14.3299Z" fill="#16793A"/>
<path fill-rule="evenodd" clip-rule="evenodd" d="M477.75 2.36588V18.9469C477.753 19.0617 477.733 19.176 477.69 19.2825C477.647 19.389 477.582 19.4855 477.5 19.5659L472.625 24.3469C472.546 24.4345 472.45 24.5045 472.342 24.5524C472.234 24.6004 472.118 24.6252 472 24.6252C471.882 24.6252 471.766 24.6004 471.658 24.5524C471.55 24.5045 471.454 24.4345 471.375 24.3469L466.5 19.5659C466.375 19.4009 466.25 19.1949 466.25 18.9469V2.36588C466.252 2.25079 466.231 2.13644 466.188 2.02977C466.144 1.92311 466.08 1.82635 465.998 1.74537C465.916 1.66439 465.819 1.60088 465.712 1.55868C465.605 1.51648 465.49 1.49648 465.375 1.49988H462.875C462.76 1.49648 462.645 1.51648 462.538 1.55868C462.431 1.60088 462.334 1.66439 462.252 1.74537C462.17 1.82635 462.105 1.92311 462.062 2.02977C462.019 2.13644 461.998 2.25079 462 2.36588V20.0599C462 20.1429 462.042 20.2659 462.083 20.3899L462.542 21.4619C462.572 21.5704 462.629 21.6695 462.708 21.7499L470.292 29.2529C470.462 29.4107 470.685 29.4989 470.917 29.4999H473.083C473.333 29.4999 473.542 29.4179 473.708 29.2529L481.292 21.7499C481.375 21.6679 481.417 21.5849 481.5 21.4619L481.958 20.3899C482 20.2659 482 20.1429 482 20.0599V2.36588C482.002 2.25079 481.981 2.13644 481.938 2.02977C481.894 1.92311 481.83 1.82635 481.748 1.74537C481.666 1.66439 481.569 1.60088 481.462 1.55868C481.355 1.51648 481.24 1.49648 481.125 1.49988H478.625C478.51 1.49648 478.395 1.51648 478.288 1.55868C478.181 1.60088 478.084 1.66439 478.002 1.74537C477.92 1.82635 477.855 1.92311 477.812 2.02977C477.769 2.13644 477.748 2.25079 477.75 2.36588Z" fill="#16793A"/>
<path fill-rule="evenodd" clip-rule="evenodd" d="M493.353 5.77H505.683C506.43 5.77 507 5.182 507 4.512V2.756C507 2.044 506.43 1.5 505.684 1.5H490.72C490.368 1.5 490.017 1.626 489.754 1.877L488.395 3.174C488.132 3.425 488 3.718 488 4.054V26.905C488 27.24 488.132 27.575 488.395 27.825L489.755 29.123C490.018 29.374 490.37 29.5 490.721 29.5H505.684C506.43 29.5 507 28.914 507 28.244V26.486C507 25.775 506.43 25.189 505.684 25.189H493.354C492.871 25.189 492.476 24.854 492.476 24.394V18.45C492.476 17.99 492.871 17.613 493.353 17.613H503.621C504.323 17.613 504.938 17.069 504.938 16.357V14.6C504.938 13.93 504.323 13.345 503.621 13.345H493.353C492.871 13.345 492.476 12.968 492.476 12.507V6.607C492.476 6.146 492.871 5.77 493.353 5.77Z" fill="#16793A"/>
</svg>
