<svg width="565" height="30" viewBox="0 0 565 30" fill="none" xmlns="http://www.w3.org/2000/svg">
<g clip-path="url(#clip0_209_107)">
<path fill-rule="evenodd" clip-rule="evenodd" d="M19.917 17.7L19.5 16.737C19.4583 16.5763 19.3716 16.431 19.25 16.318L16.583 13.64C16.4712 13.5183 16.3268 13.4311 16.167 13.389L15.208 12.97C15.0454 12.9216 14.8775 12.8934 14.708 12.886H6.292C6.18848 12.889 6.08566 12.8681 5.99162 12.8247C5.89758 12.7813 5.81488 12.7167 5.75 12.636L4.5 11.38C4.41935 11.3146 4.35485 11.2315 4.31149 11.1372C4.26814 11.0428 4.2471 10.9398 4.25 10.836V7.31999C4.25 7.10999 4.333 6.94299 4.5 6.77599L5.75 5.51999C5.89741 5.38366 6.09121 5.30857 6.292 5.30999H18.25C18.917 5.30999 19.458 4.76699 19.458 4.05499V2.25499C19.458 1.58599 18.917 0.999991 18.25 0.999991H5.292C5.13003 0.996686 4.97058 1.04046 4.833 1.12599L3.833 1.50199C3.67863 1.5752 3.53793 1.6743 3.417 1.79499L0.75 4.47399C0.667 4.59899 0.542 4.72499 0.5 4.85099L0.083 5.85499C0.042 6.02199 0 6.14799 0 6.31499V11.84C0 12.008 0.042 12.175 0.083 12.342L0.5 13.305C0.542 13.472 0.667 13.598 0.75 13.723L3.417 16.403C3.542 16.486 3.667 16.611 3.833 16.653L4.833 17.072C4.958 17.114 5.125 17.156 5.292 17.156H13.708C13.8115 17.1529 13.9143 17.1739 14.0084 17.2173C14.1024 17.2607 14.1851 17.3253 14.25 17.406L15.5 18.62C15.667 18.788 15.75 18.997 15.75 19.206V22.68C15.75 22.89 15.667 23.099 15.5 23.266L14.25 24.522C14.1024 24.658 13.9087 24.7327 13.708 24.731H1.792C1.62667 24.7283 1.46249 24.7589 1.30928 24.8211C1.15606 24.8832 1.01695 24.9757 0.900267 25.0928C0.783581 25.21 0.691714 25.3494 0.630157 25.5029C0.5686 25.6564 0.538617 25.8207 0.542 25.986V27.786C0.542 28.456 1.083 29 1.792 29H14.708C14.875 29 15.042 29 15.208 28.916L16.167 28.498C16.3268 28.4558 16.4712 28.3687 16.583 28.247L19.25 25.568C19.3613 25.4633 19.4469 25.3343 19.5 25.191L19.917 24.187C19.958 24.019 20 23.894 20 23.727V18.202C20 18.034 19.958 17.867 19.917 17.7Z" fill="#00FFAA"/>
<path fill-rule="evenodd" clip-rule="evenodd" d="M44.877 1H27.123C26.499 1 26 1.502 26 2.13V4.14C26 4.768 26.5 5.312 27.123 5.312H33.193C33.567 5.312 33.858 5.605 33.858 5.982V27.87C33.858 28.498 34.358 29 34.981 29H37.019C37.643 29 38.142 28.498 38.142 27.87V5.98C38.142 5.604 38.432 5.31 38.807 5.31H44.877C45.501 5.31 46 4.768 46 4.14V2.13C46 1.502 45.501 1 44.877 1Z" fill="#00FFAA"/>
<path fill-rule="evenodd" clip-rule="evenodd" d="M71.757 27.161L65.2 18.092H66.477C66.647 18.092 66.775 18.092 66.946 18.009L67.968 17.591C68.095 17.549 68.223 17.466 68.351 17.341L71.076 14.666C71.1892 14.5619 71.2766 14.4328 71.331 14.289L71.757 13.287C71.8385 13.1472 71.8826 12.9888 71.885 12.827V7.22699C71.8821 7.11068 71.853 6.99653 71.8 6.89299L71.502 6.01499C71.459 5.88999 71.417 5.76499 71.332 5.68099L68.564 2.04499C68.4528 1.8989 68.3062 1.78359 68.138 1.70999L66.988 1.12499C66.8163 1.03964 66.6267 0.996767 66.435 0.999986H54.555C54.257 0.999986 53.959 1.12499 53.703 1.33399L52.341 2.71399C52.085 2.92199 52 3.21399 52 3.54899V27.789C52 28.415 52.51 28.959 53.192 28.959H55.151C55.79 28.959 56.343 28.415 56.343 27.789V18.092H59.793L67.2 28.5C67.413 28.834 67.796 29.001 68.18 29.001H70.777C71.245 29.001 71.671 28.792 71.884 28.374C72.054 27.998 72.054 27.496 71.756 27.162L71.757 27.161ZM65.455 13.83H57.067C56.684 13.83 56.343 13.495 56.343 13.12V6.01399C56.343 5.59599 56.683 5.26199 57.067 5.26199H65.2C65.3151 5.26167 65.4287 5.28784 65.5321 5.33847C65.6354 5.38911 65.7257 5.46285 65.796 5.55399L67.371 7.60199C67.4578 7.73947 67.5023 7.89943 67.499 8.06199V11.822C67.4997 11.9158 67.4812 12.0087 67.4445 12.0951C67.4079 12.1814 67.3539 12.2593 67.286 12.324L65.966 13.62C65.8991 13.687 65.8196 13.74 65.732 13.7758C65.6445 13.8117 65.5506 13.8298 65.456 13.829L65.455 13.83Z" fill="#00FFAA"/>
<path fill-rule="evenodd" clip-rule="evenodd" d="M97.917 10.181L97.5 9.184C97.4678 9.03184 97.3783 8.8979 97.25 8.81L89.792 1.374C89.6874 1.25613 89.559 1.16183 89.4152 1.09735C89.2714 1.03287 89.1156 0.999691 88.958 1H87.042C86.75 1 86.417 1.125 86.208 1.374L78.75 8.81C78.667 8.893 78.542 9.018 78.5 9.184L78.083 10.181C78.0316 10.3281 78.0036 10.4823 78 10.638V27.795C78 28.46 78.542 29 79.208 29H81.042C81.708 29 82.25 28.46 82.25 27.795V19.985C82.2575 19.7775 82.3434 19.5806 82.4904 19.434C82.6374 19.2874 82.8345 19.202 83.042 19.195H92.958C93.0619 19.1947 93.1649 19.215 93.2609 19.2546C93.357 19.2941 93.4443 19.3523 93.5179 19.4257C93.5915 19.4991 93.6498 19.5862 93.6897 19.6822C93.7295 19.7782 93.75 19.8811 93.75 19.985V27.795C93.75 28.46 94.292 29 94.958 29H96.792C97.458 29 98 28.46 98 27.795V10.638C98 10.472 97.958 10.306 97.917 10.181ZM88 5.902C88.208 5.902 88.417 5.985 88.542 6.152L93.5 11.095C93.667 11.22 93.75 11.427 93.75 11.635V14.169C93.75 14.626 93.417 14.959 92.958 14.959H83.042C82.9381 14.9593 82.8351 14.939 82.7391 14.8994C82.643 14.8599 82.5557 14.8017 82.4821 14.7283C82.4085 14.6549 82.3502 14.5678 82.3103 14.4718C82.2705 14.3758 82.25 14.2729 82.25 14.169V11.635C82.25 11.427 82.333 11.22 82.5 11.095L87.458 6.151C87.625 5.985 87.792 5.902 88 5.902Z" fill="#00FFAA"/>
<path fill-rule="evenodd" clip-rule="evenodd" d="M122.877 1H105.123C104.499 1 104 1.502 104 2.13V4.14C104 4.768 104.5 5.312 105.123 5.312H111.193C111.567 5.312 111.858 5.605 111.858 5.982V27.87C111.858 28.498 112.358 29 112.981 29H115.019C115.643 29 116.142 28.498 116.142 27.87V5.98C116.142 5.604 116.432 5.31 116.807 5.31H122.877C123.501 5.31 124 4.768 124 4.14V2.13C124 1.502 123.501 1 122.877 1Z" fill="#00FFAA"/>
<path fill-rule="evenodd" clip-rule="evenodd" d="M135.353 5.27H147.683C148.43 5.27 149 4.682 149 4.012V2.256C149 1.544 148.43 1 147.684 1H132.72C132.368 1 132.017 1.126 131.754 1.377L130.395 2.674C130.132 2.925 130 3.218 130 3.554V26.405C130 26.74 130.132 27.075 130.395 27.325L131.755 28.623C132.018 28.874 132.37 29 132.721 29H147.684C148.43 29 149 28.414 149 27.744V25.986C149 25.275 148.43 24.689 147.684 24.689H135.354C134.871 24.689 134.476 24.354 134.476 23.894V17.95C134.476 17.49 134.871 17.113 135.353 17.113H145.621C146.323 17.113 146.938 16.569 146.938 15.857V14.1C146.938 13.43 146.323 12.845 145.621 12.845H135.353C134.871 12.845 134.476 12.468 134.476 12.007V6.107C134.476 5.646 134.871 5.27 135.353 5.27Z" fill="#00FFAA"/>
<path fill-rule="evenodd" clip-rule="evenodd" d="M174.667 14.602L173.25 13.18C173.042 12.971 172.792 12.887 172.5 12.887H165.917C165.774 12.8865 165.632 12.9143 165.5 12.9689C165.368 13.0235 165.248 13.1038 165.148 13.2051C165.047 13.3064 164.967 13.4267 164.913 13.559C164.859 13.6913 164.832 13.8331 164.833 13.976V16.068C164.833 16.654 165.292 17.156 165.917 17.156H170.083C170.417 17.156 170.708 17.449 170.708 17.826V22.765C170.712 22.8489 170.7 22.9327 170.671 23.0117C170.643 23.0907 170.599 23.1632 170.542 23.225L169.208 24.565C169.147 24.6221 169.075 24.6663 168.996 24.695C168.917 24.7237 168.834 24.7363 168.75 24.732H161.208C161.124 24.7361 161.041 24.7234 160.962 24.6945C160.883 24.6657 160.811 24.6213 160.75 24.564L159.417 23.225C159.36 23.1633 159.316 23.0908 159.287 23.0118C159.258 22.9329 159.246 22.8489 159.25 22.765V7.278C159.246 7.19406 159.258 7.11012 159.287 7.03112C159.316 6.95212 159.36 6.87966 159.417 6.818L160.75 5.478C160.811 5.4209 160.883 5.37669 160.962 5.348C161.041 5.31932 161.124 5.30673 161.208 5.311H168.75C168.917 5.311 169.083 5.353 169.208 5.478L171.083 7.404C171.292 7.613 171.583 7.697 171.875 7.697C172.167 7.697 172.458 7.613 172.625 7.404L174.125 5.897C174.333 5.687 174.417 5.437 174.417 5.144C174.417 4.851 174.333 4.558 174.125 4.348L171.542 1.753C171.417 1.67 171.333 1.586 171.167 1.544L170.167 1.084C170 1.042 169.875 1 169.75 1H160.25C160.083 1 159.958 1.042 159.833 1.084L158.792 1.544C158.667 1.586 158.542 1.67 158.417 1.754L155.708 4.473C155.623 4.58937 155.553 4.71604 155.5 4.85L155.083 5.897C155 6.022 155 6.148 155 6.315V23.727C155 23.894 155 24.019 155.083 24.145L155.5 25.191C155.542 25.317 155.625 25.442 155.708 25.568L158.417 28.288C158.542 28.372 158.667 28.456 158.792 28.498L159.833 28.958C159.958 29 160.083 29 160.25 29H169.75C169.875 29 170 29 170.167 28.958L171.167 28.498C171.333 28.456 171.417 28.372 171.542 28.288L174.25 25.568C174.333 25.442 174.417 25.317 174.458 25.191L174.917 24.145C174.958 24.019 175 23.894 175 23.727V15.397C174.996 15.0989 174.877 14.8138 174.667 14.602Z" fill="#00FFAA"/>
<path fill-rule="evenodd" clip-rule="evenodd" d="M189.866 5.27H191.804C192.464 5.27 193 4.725 193 4.055V2.214C193 1.544 192.464 1 191.804 1H182.196C181.536 1 181 1.544 181 2.214V4.055C181 4.725 181.536 5.269 182.196 5.269H184.134C184.546 5.269 184.876 5.604 184.876 6.064V23.936C184.876 24.354 184.546 24.731 184.134 24.731H182.196C181.536 24.731 181 25.275 181 25.945V27.786C181 28.456 181.536 29 182.196 29H191.804C192.464 29 193 28.456 193 27.786V25.945C193 25.275 192.464 24.731 191.804 24.731H189.866C189.454 24.731 189.124 24.354 189.124 23.936V6.064C189.124 5.604 189.454 5.27 189.866 5.27Z" fill="#00FFAA"/>
<path fill-rule="evenodd" clip-rule="evenodd" d="M218.898 23.224C218.807 22.9718 218.66 22.743 218.47 22.554C218.299 22.304 218.042 22.136 217.785 22.011C217.534 21.8779 217.256 21.8059 216.972 21.801C216.63 21.759 216.287 21.801 215.988 21.927C215.702 22.0438 215.44 22.2142 215.218 22.429L213.463 24.479C213.304 24.6387 213.089 24.7292 212.864 24.731H204.477C204.252 24.7295 204.037 24.6393 203.878 24.48L203.621 24.27C203.488 24.1032 203.413 23.898 203.407 23.685V6.357C203.407 6.148 203.493 5.939 203.621 5.771L203.878 5.521C204.049 5.395 204.263 5.311 204.478 5.311H212.864C213.078 5.311 213.292 5.395 213.464 5.521L215.218 7.571C215.346 7.738 215.518 7.864 215.688 7.948C215.902 8.073 216.159 8.157 216.416 8.198C216.758 8.283 217.1 8.283 217.4 8.157C217.826 8.06966 218.206 7.83178 218.47 7.487C218.64 7.278 218.812 7.069 218.898 6.817C218.983 6.525 219.026 6.19 218.983 5.855C218.938 5.36941 218.708 4.91965 218.341 4.599L215.645 1.628C215.232 1.22765 214.68 1.00261 214.105 1H203.665C202.797 1.00255 201.966 1.34882 201.353 1.963L199.941 3.302C199.342 3.93 199 4.725 199 5.562V24.48C199 25.317 199.342 26.112 199.941 26.74L201.353 28.08C201.995 28.707 202.808 29 203.664 29H214.105C214.705 29 215.26 28.79 215.645 28.414L218.341 25.442C218.641 25.149 218.855 24.772 218.941 24.396C219.026 23.978 219.026 23.601 218.898 23.224Z" fill="#00FFAA"/>
<path fill-rule="evenodd" clip-rule="evenodd" d="M230.353 5.27H242.683C243.43 5.27 244 4.682 244 4.012V2.256C244 1.544 243.43 1 242.684 1H227.72C227.368 1 227.017 1.126 226.754 1.377L225.395 2.674C225.132 2.925 225 3.218 225 3.554V26.405C225 26.74 225.132 27.075 225.395 27.325L226.755 28.623C227.018 28.874 227.37 29 227.721 29H242.684C243.43 29 244 28.414 244 27.744V25.986C244 25.275 243.43 24.689 242.684 24.689H230.354C229.871 24.689 229.476 24.354 229.476 23.894V17.95C229.476 17.49 229.871 17.113 230.353 17.113H240.621C241.323 17.113 241.938 16.569 241.938 15.857V14.1C241.938 13.43 241.323 12.845 240.621 12.845H230.353C229.871 12.845 229.476 12.468 229.476 12.007V6.107C229.476 5.646 229.871 5.27 230.353 5.27Z" fill="#76A8F9"/>
<path fill-rule="evenodd" clip-rule="evenodd" d="M268.877 1H251.123C250.499 1 250 1.502 250 2.13V4.14C250 4.768 250.5 5.312 251.123 5.312H257.193C257.567 5.312 257.858 5.605 257.858 5.982V27.87C257.858 28.498 258.358 29 258.981 29H261.019C261.643 29 262.142 28.498 262.142 27.87V5.98C262.142 5.604 262.432 5.31 262.807 5.31H268.877C269.501 5.31 270 4.768 270 4.14V2.13C270 1.502 269.501 1 268.877 1Z" fill="#76A8F9"/>
<path fill-rule="evenodd" clip-rule="evenodd" d="M292.917 1C292.25 1 291.75 1.542 291.75 2.208V12.125C291.75 12.542 291.375 12.875 290.958 12.875H281C280.901 12.8754 280.804 12.8563 280.713 12.8187C280.621 12.7812 280.539 12.7259 280.469 12.6562C280.399 12.5865 280.344 12.5037 280.306 12.4125C280.269 12.3213 280.25 12.2236 280.25 12.125V2.208C280.249 1.88778 280.122 1.58083 279.896 1.3544C279.669 1.12797 279.362 1.00053 279.042 1H277.167C276.542 1 276 1.542 276 2.208V27.833C276 28.458 276.542 29 277.167 29H279.042C279.708 29 280.25 28.458 280.25 27.833V17.875C280.25 17.458 280.583 17.125 281 17.125H290.958C291.375 17.125 291.75 17.458 291.75 17.875V27.833C291.75 28.458 292.25 29 292.917 29H294.792C295.458 29 296 28.458 296 27.833V2.208C295.999 1.88778 295.872 1.58083 295.646 1.3544C295.419 1.12797 295.112 1.00053 294.792 1H292.917Z" fill="#76A8F9"/>
<path fill-rule="evenodd" clip-rule="evenodd" d="M321.757 27.161L315.2 18.092H316.477C316.647 18.092 316.775 18.092 316.946 18.009L317.968 17.591C318.095 17.549 318.223 17.466 318.351 17.341L321.076 14.666C321.189 14.5619 321.277 14.4328 321.331 14.289L321.757 13.287C321.839 13.1472 321.883 12.9888 321.885 12.827V7.22699C321.882 7.11068 321.853 6.99653 321.8 6.89299L321.502 6.01499C321.459 5.88999 321.417 5.76499 321.332 5.68099L318.564 2.04499C318.453 1.8989 318.306 1.78359 318.138 1.70999L316.988 1.12499C316.816 1.03964 316.627 0.996767 316.435 0.999986H304.555C304.257 0.999986 303.959 1.12499 303.703 1.33399L302.341 2.71399C302.085 2.92199 302 3.21399 302 3.54899V27.789C302 28.415 302.51 28.959 303.192 28.959H305.151C305.79 28.959 306.343 28.415 306.343 27.789V18.092H309.793L317.2 28.5C317.413 28.834 317.796 29.001 318.18 29.001H320.777C321.245 29.001 321.671 28.792 321.884 28.374C322.054 27.998 322.054 27.496 321.756 27.162L321.757 27.161ZM315.455 13.83H307.067C306.684 13.83 306.343 13.495 306.343 13.12V6.01399C306.343 5.59599 306.683 5.26199 307.067 5.26199H315.2C315.315 5.26167 315.429 5.28784 315.532 5.33847C315.635 5.38911 315.726 5.46285 315.796 5.55399L317.371 7.60199C317.458 7.73947 317.502 7.89943 317.499 8.06199V11.822C317.5 11.9158 317.481 12.0087 317.445 12.0951C317.408 12.1814 317.354 12.2593 317.286 12.324L315.966 13.62C315.899 13.687 315.82 13.74 315.732 13.7758C315.644 13.8117 315.551 13.8298 315.456 13.829L315.455 13.83Z" fill="#00FFAA"/>
<path fill-rule="evenodd" clip-rule="evenodd" d="M333.353 5.27H345.683C346.43 5.27 347 4.682 347 4.012V2.256C347 1.544 346.43 1 345.684 1H330.72C330.368 1 330.017 1.126 329.754 1.377L328.395 2.674C328.132 2.925 328 3.218 328 3.554V26.405C328 26.74 328.132 27.075 328.395 27.325L329.755 28.623C330.018 28.874 330.37 29 330.721 29H345.684C346.43 29 347 28.414 347 27.744V25.986C347 25.275 346.43 24.689 345.684 24.689H333.354C332.871 24.689 332.476 24.354 332.476 23.894V17.95C332.476 17.49 332.871 17.113 333.353 17.113H343.621C344.323 17.113 344.938 16.569 344.938 15.857V14.1C344.938 13.43 344.323 12.845 343.621 12.845H333.353C332.871 12.845 332.476 12.468 332.476 12.007V6.107C332.476 5.646 332.871 5.27 333.353 5.27Z" fill="#00FFAA"/>
<path fill-rule="evenodd" clip-rule="evenodd" d="M372.917 17.7L372.5 16.737C372.458 16.5763 372.372 16.431 372.25 16.318L369.583 13.64C369.471 13.5183 369.327 13.4311 369.167 13.389L368.208 12.97C368.045 12.9216 367.877 12.8934 367.708 12.886H359.292C359.188 12.889 359.086 12.8681 358.992 12.8247C358.898 12.7813 358.815 12.7167 358.75 12.636L357.5 11.38C357.419 11.3146 357.355 11.2315 357.311 11.1372C357.268 11.0428 357.247 10.9398 357.25 10.836V7.31999C357.25 7.10999 357.333 6.94299 357.5 6.77599L358.75 5.51999C358.897 5.38366 359.091 5.30857 359.292 5.30999H371.25C371.917 5.30999 372.458 4.76699 372.458 4.05499V2.25499C372.458 1.58599 371.917 0.999991 371.25 0.999991H358.292C358.13 0.996686 357.971 1.04046 357.833 1.12599L356.833 1.50199C356.679 1.5752 356.538 1.6743 356.417 1.79499L353.75 4.47399C353.667 4.59899 353.542 4.72499 353.5 4.85099L353.083 5.85499C353.042 6.02199 353 6.14799 353 6.31499V11.84C353 12.008 353.042 12.175 353.083 12.342L353.5 13.305C353.542 13.472 353.667 13.598 353.75 13.723L356.417 16.403C356.542 16.486 356.667 16.611 356.833 16.653L357.833 17.072C357.958 17.114 358.125 17.156 358.292 17.156H366.708C366.812 17.1529 366.914 17.1739 367.008 17.2173C367.102 17.2607 367.185 17.3253 367.25 17.406L368.5 18.62C368.667 18.788 368.75 18.997 368.75 19.206V22.68C368.75 22.89 368.667 23.099 368.5 23.266L367.25 24.522C367.102 24.658 366.909 24.7327 366.708 24.731H354.792C354.627 24.7283 354.462 24.7589 354.309 24.8211C354.156 24.8832 354.017 24.9757 353.9 25.0928C353.784 25.21 353.692 25.3494 353.63 25.5029C353.569 25.6564 353.539 25.8207 353.542 25.986V27.786C353.542 28.456 354.083 29 354.792 29H367.708C367.875 29 368.042 29 368.208 28.916L369.167 28.498C369.327 28.4558 369.471 28.3687 369.583 28.247L372.25 25.568C372.361 25.4633 372.447 25.3343 372.5 25.191L372.917 24.187C372.958 24.019 373 23.894 373 23.727V18.202C373 18.034 372.958 17.867 372.917 17.7Z" fill="#00FFAA"/>
<path fill-rule="evenodd" clip-rule="evenodd" d="M384.353 5.27H396.683C397.43 5.27 398 4.682 398 4.012V2.256C398 1.544 397.43 1 396.684 1H381.72C381.368 1 381.017 1.126 380.754 1.377L379.395 2.674C379.132 2.925 379 3.218 379 3.554V26.405C379 26.74 379.132 27.075 379.395 27.325L380.755 28.623C381.018 28.874 381.37 29 381.721 29H396.684C397.43 29 398 28.414 398 27.744V25.986C398 25.275 397.43 24.689 396.684 24.689H384.354C383.871 24.689 383.476 24.354 383.476 23.894V17.95C383.476 17.49 383.871 17.113 384.353 17.113H394.621C395.323 17.113 395.938 16.569 395.938 15.857V14.1C395.938 13.43 395.323 12.845 394.621 12.845H384.353C383.871 12.845 383.476 12.468 383.476 12.007V6.107C383.476 5.646 383.871 5.27 384.353 5.27Z" fill="#00FFAA"/>
<path fill-rule="evenodd" clip-rule="evenodd" d="M423.757 27.161L417.2 18.092H418.477C418.647 18.092 418.775 18.092 418.946 18.009L419.968 17.591C420.095 17.549 420.223 17.466 420.351 17.341L423.076 14.666C423.189 14.5619 423.277 14.4328 423.331 14.289L423.757 13.287C423.839 13.1472 423.883 12.9888 423.885 12.827V7.22699C423.882 7.11068 423.853 6.99653 423.8 6.89299L423.502 6.01499C423.459 5.88999 423.417 5.76499 423.332 5.68099L420.564 2.04499C420.453 1.8989 420.306 1.78359 420.138 1.70999L418.988 1.12499C418.816 1.03964 418.627 0.996767 418.435 0.999986H406.555C406.257 0.999986 405.959 1.12499 405.703 1.33399L404.341 2.71399C404.085 2.92199 404 3.21399 404 3.54899V27.789C404 28.415 404.51 28.959 405.192 28.959H407.151C407.79 28.959 408.343 28.415 408.343 27.789V18.092H411.793L419.2 28.5C419.413 28.834 419.796 29.001 420.18 29.001H422.777C423.245 29.001 423.671 28.792 423.884 28.374C424.054 27.998 424.054 27.496 423.756 27.162L423.757 27.161ZM417.455 13.83H409.067C408.684 13.83 408.343 13.495 408.343 13.12V6.01399C408.343 5.59599 408.683 5.26199 409.067 5.26199H417.2C417.315 5.26167 417.429 5.28784 417.532 5.33847C417.635 5.38911 417.726 5.46285 417.796 5.55399L419.371 7.60199C419.458 7.73947 419.502 7.89943 419.499 8.06199V11.822C419.5 11.9158 419.481 12.0087 419.445 12.0951C419.408 12.1814 419.354 12.2593 419.286 12.324L417.966 13.62C417.899 13.687 417.82 13.74 417.732 13.7758C417.644 13.8117 417.551 13.8298 417.456 13.829L417.455 13.83Z" fill="#00FFAA"/>
<path fill-rule="evenodd" clip-rule="evenodd" d="M445.75 1.86601V18.447C445.753 18.5618 445.733 18.6761 445.69 18.7826C445.647 18.8891 445.582 18.9856 445.5 19.066L440.625 23.847C440.546 23.9346 440.45 24.0046 440.342 24.0526C440.234 24.1005 440.118 24.1253 440 24.1253C439.882 24.1253 439.766 24.1005 439.658 24.0526C439.55 24.0046 439.454 23.9346 439.375 23.847L434.5 19.066C434.375 18.901 434.25 18.695 434.25 18.447V1.86601C434.252 1.75091 434.231 1.63656 434.188 1.52989C434.144 1.42323 434.08 1.32647 433.998 1.24549C433.916 1.16451 433.819 1.101 433.712 1.0588C433.605 1.0166 433.49 0.996599 433.375 1.00001H430.875C430.76 0.996599 430.645 1.0166 430.538 1.0588C430.431 1.101 430.334 1.16451 430.252 1.24549C430.17 1.32647 430.105 1.42323 430.062 1.52989C430.019 1.63656 429.998 1.75091 430 1.86601V19.56C430 19.643 430.042 19.766 430.083 19.89L430.542 20.962C430.572 21.0705 430.629 21.1697 430.708 21.25L438.292 28.753C438.462 28.9109 438.685 28.999 438.917 29H441.083C441.333 29 441.542 28.918 441.708 28.753L449.292 21.25C449.375 21.168 449.417 21.085 449.5 20.962L449.958 19.89C450 19.766 450 19.643 450 19.56V1.86601C450.002 1.75091 449.981 1.63656 449.938 1.52989C449.894 1.42323 449.83 1.32647 449.748 1.24549C449.666 1.16451 449.569 1.101 449.462 1.0588C449.355 1.0166 449.24 0.996599 449.125 1.00001H446.625C446.51 0.996599 446.395 1.0166 446.288 1.0588C446.181 1.101 446.084 1.16451 446.002 1.24549C445.92 1.32647 445.855 1.42323 445.812 1.52989C445.769 1.63656 445.748 1.75091 445.75 1.86601Z" fill="#00FFAA"/>
<path fill-rule="evenodd" clip-rule="evenodd" d="M461.353 5.27H473.683C474.43 5.27 475 4.682 475 4.012V2.256C475 1.544 474.43 1 473.684 1H458.72C458.368 1 458.017 1.126 457.754 1.377L456.395 2.674C456.132 2.925 456 3.218 456 3.554V26.405C456 26.74 456.132 27.075 456.395 27.325L457.755 28.623C458.018 28.874 458.37 29 458.721 29H473.684C474.43 29 475 28.414 475 27.744V25.986C475 25.275 474.43 24.689 473.684 24.689H461.354C460.871 24.689 460.476 24.354 460.476 23.894V17.95C460.476 17.49 460.871 17.113 461.353 17.113H471.621C472.323 17.113 472.938 16.569 472.938 15.857V14.1C472.938 13.43 472.323 12.845 471.621 12.845H461.353C460.871 12.845 460.476 12.468 460.476 12.007V6.107C460.476 5.646 460.871 5.27 461.353 5.27Z" fill="#00FFAA"/>
<path fill-rule="evenodd" clip-rule="evenodd" d="M481 25.851C481 25.222 481.507 24.719 482.14 24.719H484.134C484.768 24.719 485.275 25.222 485.275 25.851V27.904C485.275 28.534 484.768 28.994 484.135 28.994H482.14C481.506 28.994 480.999 28.534 480.999 27.904V25.851H481Z" fill="#00FFAA"/>
<path fill-rule="evenodd" clip-rule="evenodd" d="M512.29 7.697C512.419 7.60802 512.508 7.47306 512.54 7.32L512.917 6.357C513 6.232 513 6.064 513 5.897V2.214C513 1.544 512.457 1 511.79 1H509.952C509.284 1 508.742 1.544 508.742 2.214V4.934C508.742 5.144 508.658 5.353 508.532 5.478L503.064 11.296C502.938 11.422 502.73 11.547 502.521 11.547C502.271 11.547 502.103 11.421 501.936 11.296L496.467 5.478C496.331 5.32955 496.256 5.13521 496.258 4.934V2.214C496.258 1.544 495.716 1 495.048 1H493.21C492.543 1 492 1.544 492 2.214V5.897C492 6.064 492 6.232 492.084 6.357L492.459 7.32C492.491 7.47306 492.58 7.60802 492.709 7.697L499.056 14.477C499.125 14.5453 499.18 14.6267 499.218 14.7165C499.256 14.8063 499.275 14.9027 499.275 15C499.275 15.0973 499.256 15.1937 499.218 15.2835C499.18 15.3733 499.125 15.4547 499.056 15.523L492.71 22.303C492.581 22.392 492.492 22.5269 492.46 22.68L492.084 23.643C492 23.768 492 23.936 492 24.103V27.786C492 28.456 492.543 29 493.21 29H495.048C495.716 29 496.258 28.456 496.258 27.786V25.066C496.258 24.856 496.342 24.689 496.468 24.522L501.936 18.704C502.1 18.5671 502.307 18.4927 502.521 18.494C502.73 18.494 502.938 18.578 503.064 18.704L508.533 24.522C508.658 24.689 508.741 24.857 508.741 25.066V27.786C508.741 28.456 509.284 29 509.952 29H511.789C512.457 29 513 28.456 513 27.786V24.103C513 23.936 513 23.768 512.916 23.643L512.541 22.68C512.509 22.5269 512.42 22.392 512.291 22.303L505.944 15.523C505.875 15.4547 505.82 15.3733 505.782 15.2835C505.744 15.1937 505.725 15.0973 505.725 15C505.725 14.9027 505.744 14.8063 505.782 14.7165C505.82 14.6267 505.875 14.5453 505.944 14.477L512.29 7.697Z" fill="#76A8F9"/>
<path fill-rule="evenodd" clip-rule="evenodd" d="M537.833 1H535.958C535.292 1 534.75 1.544 534.75 2.214V8.45C534.75 8.743 534.625 8.952 534.375 9.12L529.417 12.217C529.167 12.384 528.833 12.384 528.625 12.217L523.625 9.12C523.417 8.952 523.25 8.743 523.25 8.45V2.214C523.25 1.544 522.75 1 522.083 1H520.208C519.542 1 519 1.544 519 2.214V9.83C519 9.998 519.042 10.207 519.167 10.416L519.792 11.588C519.917 11.755 520.042 11.923 520.208 12.006L526.542 15.983C526.646 16.0512 526.731 16.1443 526.789 16.2539C526.847 16.3635 526.877 16.4859 526.875 16.61V27.827C526.875 28.455 527.417 28.999 528.083 28.999H529.958C530.625 28.999 531.125 28.455 531.125 27.827V16.611C531.125 16.361 531.292 16.109 531.5 15.984L537.792 12.008C537.958 11.924 538.125 11.756 538.208 11.588L538.875 10.417C538.952 10.2309 538.994 10.0323 539 9.831V2.214C539 1.544 538.458 1 537.833 1Z" fill="#76A8F9"/>
<path fill-rule="evenodd" clip-rule="evenodd" d="M564.825 4.809C565.029 4.474 565.07 4.055 564.866 3.72L563.806 1.586C563.643 1.251 563.276 1 562.91 1H547.627C547.057 1 546.608 1.46 546.608 2.046V4.265C546.608 4.851 547.057 5.311 547.628 5.311H558.223C558.468 5.311 558.631 5.436 558.753 5.604C558.835 5.814 558.835 6.064 558.713 6.232L545.181 25.233C545.078 25.3933 545.017 25.5768 545.003 25.7667C544.989 25.9567 545.022 26.1472 545.1 26.321L546.2 28.456C546.281 28.6236 546.409 28.7642 546.568 28.8607C546.727 28.9572 546.911 29.0056 547.097 29H563.887C564.417 29 564.865 28.54 564.865 27.995V25.777C564.865 25.191 564.417 24.731 563.887 24.731H551.743C551.637 24.7302 551.535 24.6979 551.447 24.6383C551.36 24.5786 551.293 24.4942 551.254 24.396C551.132 24.229 551.173 23.978 551.295 23.81L564.825 4.809Z" fill="#76A8F9"/>
</g>
<defs>
<clipPath id="clip0_209_107">
<rect width="565" height="30" fill="white"/>
</clipPath>
</defs>
</svg>
